<svg xmlns="http://www.w3.org/2000/svg" viewBox="0 0 212.02 212.02"><defs><style>.cls-1{fill:#ffd900;}</style></defs><title>busqueda</title><g id="Capa_2" data-name="Capa 2"><g id="Capa_1-2" data-name="Capa 1"><path class="cls-1" d="M207.31,184.23l-43.7-43.69A87.22,87.22,0,0,0,179.4,89.71a88.1,88.1,0,0,0-7.07-34.86A87.81,87.81,0,0,0,124.55,7.07a89.43,89.43,0,0,0-69.7,0A87.89,87.89,0,0,0,7.07,54.85a89.45,89.45,0,0,0,0,69.71,88,88,0,0,0,47.78,47.78,88.23,88.23,0,0,0,34.85,7.07,87.27,87.27,0,0,0,50.84-15.81l43.7,43.57A15.11,15.11,0,0,0,195.71,212a16.32,16.32,0,0,0,11.6-27.79ZM130,130A55,55,0,0,1,89.7,146.78,55,55,0,0,1,49.38,130,55,55,0,0,1,32.62,89.71,55,55,0,0,1,49.38,49.37,55,55,0,0,1,89.7,32.61,55,55,0,0,1,130,49.37a55,55,0,0,1,16.76,40.34A55,55,0,0,1,130,130Z"/></g></g></svg>