<svg xmlns="http://www.w3.org/2000/svg" viewBox="0 0 243.79 243.78"><defs><style>.cls-1{fill:#ffd900;}</style></defs><title>etiqueta</title><g id="Capa_2" data-name="Capa 2"><g id="Capa_1-2" data-name="Capa 1"><path class="cls-1" d="M125.55,107a11.29,11.29,0,0,0-6.32,3.23,10.76,10.76,0,0,0-3,5.89,14.08,14.08,0,0,0,1.11,7.66l15.45-15.66A11.91,11.91,0,0,0,125.55,107Z"/><path class="cls-1" d="M91.89,162.73a12.92,12.92,0,0,0,8.63,2.3,12.41,12.41,0,0,0,8-3.81,11.22,11.22,0,0,0,3.37-7q.39-4-2.53-9.16Z"/><path class="cls-1" d="M217.43,0H156c-14.49,0-34.74,8.38-45,18.63L7.69,121.91a26.42,26.42,0,0,0,0,37.26L84.61,236.1a26.45,26.45,0,0,0,37.27,0L225.15,132.82c10.24-10.25,18.64-30.49,18.64-45V26.35A26.43,26.43,0,0,0,217.43,0ZM150.49,137.11l-12.93-9.81q4.23-6.36,1.72-12.6l-17.47,17.7q8,13.66,7.28,22.23t-7.92,15.91q-8.08,8.19-18.58,8.91T82,172.73l-8.35,8.47-6.56-6.48,8.12-8.24q-6.89-8.67-7-18.39t7.38-20l13.06,10.39a21.11,21.11,0,0,0-3.44,8.92,17.46,17.46,0,0,0,.68,8.18l18.71-19q-6.36-11.28-5.44-20.51a27.06,27.06,0,0,1,8.16-16.56,24.75,24.75,0,0,1,17-7.84q9.67-.43,18.21,6.48L147,93.74l6.57,6.48-4.42,4.48q6.34,8,6.6,16.21T150.49,137.11Zm31.8-49.27a26.36,26.36,0,1,1,26.36-26.35A26.35,26.35,0,0,1,182.29,87.84Z"/></g></g></svg>