<svg xmlns="http://www.w3.org/2000/svg" viewBox="0 0 285.57 262"><defs><style>.cls-1{fill:#1d1d1b;fill-rule:evenodd;}</style></defs><title>canasta</title><g id="Capa_2" data-name="Capa 2"><g id="Capa_1-2" data-name="Capa 1"><path class="cls-1" d="M266.49,86.88H158.9V15.12C158.9,6.77,151.68,0,142.79,0s-16.12,6.77-16.12,15.12V86.88H18A17.75,17.75,0,0,0,0,104.8v11.28A18.19,18.19,0,0,0,13.53,134c7.79,30.28,27,98.8,30.36,107.85C47.2,253,58.41,262,73.1,262H211.31c14.69,0,27.06-9,30.37-20.15C244,232.8,263.09,164.28,272,134a18.19,18.19,0,0,0,13.53-17.92V104.8C285.57,94.76,276.61,86.88,266.49,86.88ZM87.69,222.68c0,6.81-4.47,11.29-10.12,11.29-6.81,0-11.2-4.48-11.2-11.29V147.46a11.19,11.19,0,0,1,11.2-11.2c5.65,0,10.12,5.64,10.12,11.2Zm43.81,0c0,6.81-4.49,11.29-11.2,11.29-5.64,0-10.12-4.48-10.12-11.29V147.46c0-5.56,4.48-11.2,10.12-11.2a11.26,11.26,0,0,1,11.2,11.2Zm43.89,0c0,6.81-4.48,11.29-11.2,11.29-5.64,0-10.12-4.48-10.12-11.29V147.46c0-5.56,4.48-11.2,10.12-11.2a11.25,11.25,0,0,1,11.2,11.2Zm43.89,0a11.29,11.29,0,1,1-22.57,0V147.46c0-5.56,5.64-11.2,11.29-11.2s11.28,5.64,11.28,11.2Z"/></g></g></svg>