<svg xmlns="http://www.w3.org/2000/svg" viewBox="0 0 326.5 297.02"><defs><style>.cls-1{fill:#1d1d1b;}</style></defs><title>carrito</title><g id="Capa_2" data-name="Capa 2"><g id="Capa_1-2" data-name="Capa 1"><path class="cls-1" d="M125.3,241.26a27.88,27.88,0,1,0,27.87,27.87A27.88,27.88,0,0,0,125.3,241.26Z"/><path class="cls-1" d="M238.09,241.26A27.88,27.88,0,1,0,266,269.13,27.86,27.86,0,0,0,238.09,241.26Z"/><path class="cls-1" d="M309.09,88.46H108.24a13.54,13.54,0,0,0-2.74,1.07l-.13-1.07s-3-25.79-4.73-36.43-28.46-24.1-86-51.2c-13.52-5.67-24.83,19.07,0,32L60,54s10.54,6.13,11.45,14.34S90.79,213,90.79,213s.73,19,18,19H272.92c14.49,0,17.3-15.14,17.3-15.14L324.51,115S334.68,88.46,309.09,88.46Zm-26.46,57.26h-125s-9.47,2.14-9.47,12.53,9.47,13.49,9.47,13.49H275l-8.13,27.43H119.14l-10.4-82.78H291.3Z"/></g></g></svg>