<svg xmlns="http://www.w3.org/2000/svg" viewBox="0 0 401.53 198.47"><defs><style>.cls-1{fill:#1d1d1b;}</style></defs><title>envios</title><g id="Capa_2" data-name="Capa 2"><g id="Capa_1-2" data-name="Capa 1"><path class="cls-1" d="M401.52,109.6V99.2a19,19,0,0,0-5.63-13.51l-56-55.37a18.82,18.82,0,0,0-13.32-5.5H298.34V14.24A14.27,14.27,0,0,0,284,0H121a14.21,14.21,0,0,0-14.24,14.24v90.87H130a11.95,11.95,0,0,1,0,23.9H106.71v10.44h48.18a12,12,0,1,1,0,23.9h-5.23a29.55,29.55,0,1,0,58-.08h96.62a29.56,29.56,0,1,0,58,0h24.93A14.25,14.25,0,0,0,401.53,149V109.6Zm-222.8,74.08a14.8,14.8,0,1,1,14.79-14.79A14.76,14.76,0,0,1,178.72,183.68Zm154.65,0a14.8,14.8,0,1,1,14.73-14.79A14.76,14.76,0,0,1,333.37,183.68ZM371.5,87.53H317.29a2.2,2.2,0,0,1-2.21-2.2V43.46a2.2,2.2,0,0,1,2.21-2.2h10.33a2.56,2.56,0,0,1,1.59.61L373,83.74A2.19,2.19,0,0,1,371.5,87.53Z"/><path class="cls-1" d="M36.92,139.45H12a12,12,0,1,0,0,23.9h25a12,12,0,0,0,0-23.9Z"/><path class="cls-1" d="M140.05,163.27H121A14.26,14.26,0,0,1,106.71,149v-9.57H74.31a12,12,0,0,0,0,23.9h75.35a.25.25,0,0,0,0-.08Z"/><path class="cls-1" d="M106.72,109.6v-4.49H41.86a12,12,0,0,0,0,23.9h64.85V109.6Z"/></g></g></svg>