<svg xmlns="http://www.w3.org/2000/svg" viewBox="0 0 262.18 175.8"><defs><style>.cls-1{fill:#1d1d1b;}</style></defs><title>tarjeta</title><g id="Capa_2" data-name="Capa 2"><g id="Capa_1-2" data-name="Capa 1"><path class="cls-1" d="M20.39,17.76H241.77a2.68,2.68,0,0,1,2.66,2.67V36.11H17.75V20.43A2.67,2.67,0,0,1,20.39,17.76ZM241.77,0H20.39A20.43,20.43,0,0,0,0,20.43V155.35A20.43,20.43,0,0,0,20.39,175.8H241.77a20.44,20.44,0,0,0,20.41-20.45V20.43A20.44,20.44,0,0,0,241.77,0Zm0,158H20.39a2.66,2.66,0,0,1-2.64-2.69V82.29H244.43v73.06A2.67,2.67,0,0,1,241.77,158Z"/></g></g></svg>