<svg xmlns="http://www.w3.org/2000/svg" viewBox="0 0 243.19 261.7"><defs><style>.cls-1{fill:#ffd900;}</style></defs><title>bolsa</title><g id="Capa_2" data-name="Capa 2"><g id="Capa_1-2" data-name="Capa 1"><path class="cls-1" d="M243,244.09,215.22,81.8a13.29,13.29,0,0,0-.61-2.37c-1.42-5.05-5.23-8.67-9.72-8.67H171V48.44h-.05a50.6,50.6,0,0,0-101.12.5h0V70.76H40.68A13,13,0,0,0,28,81.8L.15,244.09a13,13,0,0,0,.1,4.5v.07c0,7.2,6.25,13,14,13H229.08c7.71,0,14-5.84,14-13,0-.16,0-.31,0-.46A13.1,13.1,0,0,0,243,244.09ZM85,49.78h0a35.38,35.38,0,0,1,70.74,0h0v21H85ZM27.87,235.61,52,96.85H191.15L215.32,235.6Z"/></g></g></svg>