<svg xmlns="http://www.w3.org/2000/svg" viewBox="0 0 54.59 54.59"><defs><style>.cls-1{fill:#ffd900;}</style></defs><title>facebook</title><g id="Capa_2" data-name="Capa 2"><g id="Design"><path class="cls-1" d="M27.29,0a27.3,27.3,0,1,0,27.3,27.29A27.32,27.32,0,0,0,27.29,0Zm7.57,16.19a.41.41,0,0,1-.41.41H31.17a1.46,1.46,0,0,0-1.46,1.46V21.5h4.67a.41.41,0,0,1,.41.44l-.41,4.85a.41.41,0,0,1-.41.37H29.71V43.24a.41.41,0,0,1-.41.41H23.42a.41.41,0,0,1-.41-.41V27.16H20.08a.41.41,0,0,1-.42-.41V21.91a.41.41,0,0,1,.42-.41H23V16.83a5.9,5.9,0,0,1,5.9-5.9h5.54a.41.41,0,0,1,.41.42Z"/></g></g></svg>