<svg xmlns="http://www.w3.org/2000/svg" viewBox="0 0 130 130"><defs><style>.cls-1{fill:#e9531d;}.cls-2{fill:#ffd900;}</style></defs><title>Recurso 9</title><g id="Capa_2" data-name="Capa 2"><g id="Capa_1-2" data-name="Capa 1"><polygon class="cls-1" points="78.87 113.78 73.96 102.2 85.54 97.28 90.45 108.86 86.59 110.5 83.32 102.78 79.46 104.42 82.73 112.14 78.87 113.78"/><rect class="cls-1" x="77.24" y="95.63" width="4.19" height="6.29" transform="translate(-32.29 38.85) rotate(-23)"/><path class="cls-2" d="M65,2.1A62.9,62.9,0,1,0,127.9,65,62.9,62.9,0,0,0,65,2.1Zm0,111.13A48.23,48.23,0,1,1,113.23,65,48.24,48.24,0,0,1,65,113.23Z"/><path d="M65,130a65,65,0,1,1,65-65A65.08,65.08,0,0,1,65,130ZM65,4.19A60.81,60.81,0,1,0,125.81,65,60.88,60.88,0,0,0,65,4.19Z"/><path d="M33,106.5A52.42,52.42,0,0,1,93.39,20.93l-2.27,3.52a48.23,48.23,0,0,0-55.59,78.73Z"/><path d="M65,117.42a52.2,52.2,0,0,1-28.39-8.35l2.27-3.52a48.23,48.23,0,0,0,56.26-78.2l2.62-3.27A52.42,52.42,0,0,1,65,117.42Z"/><path d="M65,75.48A10.48,10.48,0,1,1,75.48,65,10.49,10.49,0,0,1,65,75.48Zm0-16.77A6.29,6.29,0,1,0,71.29,65,6.29,6.29,0,0,0,65,58.71Z"/><path d="M65,83.87A18.87,18.87,0,1,1,83.87,65,18.88,18.88,0,0,1,65,83.87Zm0-33.55A14.68,14.68,0,1,0,79.68,65,14.7,14.7,0,0,0,65,50.32Z"/><rect x="62.9" y="14.68" width="4.19" height="33.55"/><rect x="39.18" y="24.5" width="4.19" height="33.55" transform="translate(-17.1 41.28) rotate(-45)"/><rect x="14.68" y="62.9" width="33.55" height="4.19"/><rect x="24.5" y="86.63" width="33.55" height="4.19" transform="translate(-50.65 55.17) rotate(-45)"/><rect x="62.9" y="81.77" width="4.19" height="33.55"/><rect x="86.63" y="71.95" width="4.19" height="33.55" transform="translate(-36.75 88.72) rotate(-45)"/><rect x="81.77" y="62.9" width="33.55" height="4.19"/><rect x="71.95" y="39.18" width="33.55" height="4.19" transform="translate(-3.2 74.83) rotate(-45)"/></g></g></svg>