<svg xmlns="http://www.w3.org/2000/svg" viewBox="0 0 127.98 129.44"><defs><style>.cls-1{fill:#ffd900;}.cls-2{fill:#e9531d;}</style></defs><title>Recurso 6</title><g id="Capa_2" data-name="Capa 2"><g id="Capa_1-2" data-name="Capa 1"><path class="cls-1" d="M112.74,27.14l-12.53,8.35V2.09H33.4V53.85A20.89,20.89,0,0,0,37.29,66l6.55,9.17h8.35v-9.4a19.84,19.84,0,0,1,39.67,0v9.4h8.35V71l25.05-27.14Z"/><rect class="cls-2" x="43.84" y="75.16" width="16.7" height="4.18"/><path class="cls-2" d="M100.21,96H73.07a10.44,10.44,0,1,1,0-20.87h27.14v4.17H73.07a6.27,6.27,0,0,0,0,12.53h27.14Z"/><rect class="cls-2" x="43.84" y="91.86" width="16.7" height="4.18"/><polygon points="102.3 96.03 98.12 96.03 98.12 70.17 122.55 43.7 112.25 29.97 101.37 37.23 99.05 33.75 113.22 24.31 127.97 43.98 102.3 71.8 102.3 96.03"/><path d="M45.93,96H41.75V75.83l-6.93-9.72a18.66,18.66,0,0,1-3.5-10.92V0h71V29.23H98.12v-25H35.49v51a14.5,14.5,0,0,0,2.72,8.49l7.72,10.81Z"/><rect x="48.02" y="2.09" width="4.18" height="27.14"/><rect x="64.72" y="2.09" width="4.18" height="27.14"/><polygon class="cls-1" points="60.54 100.21 60.54 108.56 68.89 108.56 68.89 104.39 72.75 100.21 60.54 100.21"/><path class="cls-1" d="M43.84,35.49H39.67v19.7a10.34,10.34,0,0,0,1.94,6.06l2.23,3.13Z"/><path class="cls-1" d="M37.58,77.16l-6.16-8.62a22.83,22.83,0,0,1-4.28-13.35V35.49h-25V87.26A20.86,20.86,0,0,0,6,99.39l6.55,9.17h8.35V99.17A19.83,19.83,0,0,1,37.58,79.6Z"/><rect x="81.42" y="2.09" width="4.18" height="27.14"/><rect x="70.98" y="83.51" width="4.18" height="4.18"/><rect class="cls-2" x="12.53" y="108.56" width="16.7" height="4.18"/><path class="cls-2" d="M68.89,129.44H41.75a10.44,10.44,0,0,1,0-20.88H68.89v4.18H41.75a6.26,6.26,0,1,0,0,12.52H68.89Z"/><rect class="cls-2" x="12.53" y="125.26" width="16.7" height="4.18"/><rect x="39.67" y="116.91" width="4.18" height="4.18"/><path d="M94,75.16H89.77v-9.4a17.75,17.75,0,0,0-35.49,0v9.4H50.1v-9.4a21.93,21.93,0,0,1,43.85,0Z"/><polygon points="70.98 129.44 66.81 129.44 66.81 103.57 71.21 98.79 74.28 101.62 70.98 105.2 70.98 129.44"/><path d="M14.61,129.44H10.44V109.23L3.5,99.51A18.64,18.64,0,0,1,0,88.59V33.4H27.14v4.18h-23v51a14.53,14.53,0,0,0,2.72,8.5l7.71,10.8Z"/><rect x="16.7" y="35.49" width="4.18" height="27.14"/><path d="M23,108.56H18.79V99.17A21.8,21.8,0,0,1,37.25,77.52l.65,4.12A17.65,17.65,0,0,0,23,99.17Z"/><rect x="58.46" y="100.21" width="4.18" height="8.35"/></g></g></svg>