<svg xmlns="http://www.w3.org/2000/svg" viewBox="0 0 130.09 130.09"><defs><style>.cls-1{fill:#ffd900;}.cls-2{fill:#e9531d;}</style></defs><title>Recurso 4</title><g id="Capa_2" data-name="Capa 2"><g id="Capa_1-2" data-name="Capa 1"><rect class="cls-1" x="37.77" y="31.47" width="75.53" height="20.98"/><path class="cls-1" d="M100.71,58.75H83.93V63L57.65,87.58a22.91,22.91,0,0,0-6.71,11.81,4.26,4.26,0,0,1-4.11,3.42h-9a4.26,4.26,0,0,0-.25,8.52A64.2,64.2,0,0,1,52.21,114a23.06,23.06,0,0,0,34.48,9.81L73.44,88.12,100.71,63Z"/><path d="M117.5,54.55H25.18a12.59,12.59,0,0,1,0-25.18H117.5a12.59,12.59,0,1,1,0,25.18Zm-92.32-21a8.4,8.4,0,0,0,0,16.79H117.5a8.4,8.4,0,0,0,0-16.79Z"/><path class="cls-2" d="M85.24,119.65l-2.62-3.27a14.7,14.7,0,0,0-9.18-26.16V86a18.88,18.88,0,0,1,11.8,33.62Z"/><path d="M73.44,111.2a6.3,6.3,0,1,1,6.29-6.29A6.3,6.3,0,0,1,73.44,111.2Zm0-8.39a2.1,2.1,0,1,0,2.09,2.1A2.1,2.1,0,0,0,73.44,102.81Z"/><rect class="cls-2" x="88.6" y="111.73" width="4.2" height="6.3" transform="translate(-54.13 136) rotate(-60.01)"/><rect class="cls-2" x="90.22" y="102.81" width="6.29" height="4.2"/><rect class="cls-2" x="87.55" y="92.84" width="6.3" height="4.2" transform="translate(-35.32 58.06) rotate(-29.99)"/><rect class="cls-2" x="80.26" y="85.55" width="6.29" height="4.2" transform="translate(-34.2 116.06) rotate(-60.01)"/><path d="M73.44,130.09A25.15,25.15,0,0,1,50.7,115.72a63,63,0,0,0-13.25-2.3,6.36,6.36,0,0,1,.39-12.71h9a2.16,2.16,0,0,0,2.06-1.78,25,25,0,0,1,7.32-12.88L81.83,62V58.75H86v5.11L59.09,89.11A20.71,20.71,0,0,0,53,99.84a6.34,6.34,0,0,1-6.16,5.07h-9a2.17,2.17,0,0,0-.12,4.33A66.55,66.55,0,0,1,52.82,112l.94.29.38.9a21,21,0,0,0,19.3,12.73,20.74,20.74,0,0,0,10.7-3L71,87.54,98.61,62V58.75h4.2v5.11L75.89,88.71l13.33,35.86-1.33.94A25,25,0,0,1,73.44,130.09Z"/><path d="M25.18,71.34H8.39V58.75H25.18Zm-12.59-4.2H21V63H12.59Z"/><rect x="23.08" y="62.95" width="23.08" height="4.2"/><rect x="29.37" y="58.75" width="4.2" height="6.29"/><rect x="37.77" y="58.75" width="4.2" height="6.29"/><path d="M16.29,34.64C15.18,31.84,11.91,25,5.56,22.12A9.19,9.19,0,0,1,0,13.77v-.56A10.13,10.13,0,0,1,5.92,3.9,47.46,47.46,0,0,1,25.18,0c14,0,17.45,1.9,18.27,2.71l.61.62v9.26H25.18a2.1,2.1,0,0,0,0,4.2H44.06v9.9l-1.43.48c-1.26.42-4.86,2.13-4.86,4.3h-4.2c0-4.22,4-6.67,6.3-7.71V21H25.18a6.3,6.3,0,1,1,0-12.59H39.87V5.52C38.36,5,34.43,4.2,25.18,4.2A43.33,43.33,0,0,0,7.63,7.73,5.87,5.87,0,0,0,4.2,13.21v.56A5,5,0,0,0,7.3,18.3C14.77,21.7,18.58,29,20.19,33.09Z"/><rect x="109.11" y="31.47" width="4.2" height="14.69"/><rect x="37.77" y="31.47" width="4.2" height="14.69"/><path d="M111.47,25.18H52.18l4.62-3.73a39.79,39.79,0,0,1,50.06,0ZM65,21H98.62A35.76,35.76,0,0,0,65,21Z"/><rect x="98.61" y="41.96" width="4.2" height="4.2"/><rect x="46.16" y="41.96" width="48.26" height="4.2"/><rect x="8.39" y="10.49" width="4.2" height="4.2"/></g></g></svg>