<svg xmlns="http://www.w3.org/2000/svg" viewBox="0 0 133.1 124.51"><defs><style>.cls-1{fill:#ffd900;}.cls-2{fill:#e9531d;}</style></defs><title>Recurso 10</title><g id="Capa_2" data-name="Capa 2"><g id="Capa_1-2" data-name="Capa 1"><path class="cls-1" d="M120.22,51.52H106A45.09,45.09,0,1,0,106,73h14.22a10.74,10.74,0,0,0,0-21.47Zm-25.35,0H93.75A57.31,57.31,0,0,1,78.1,49.34L83.37,35.2A34.41,34.41,0,0,1,94.87,51.52ZM75.13,30.43,64.4,42.93l-.29.3a57.24,57.24,0,0,1-14.74-12.8,34.18,34.18,0,0,1,25.76,0Zm-34,4.77,6.24,18.47-19.1,3.82A34.23,34.23,0,0,1,41.14,35.2ZM28.28,67l19.1,3.82L41.14,89.31A34.25,34.25,0,0,1,28.28,67ZM49.37,94.08h0A57,57,0,0,1,63.83,81.44l11.3,12.64h0a34.18,34.18,0,0,1-25.76,0Zm34-4.77L78.66,75a57.27,57.27,0,0,1,15.09-2h1.12A34.46,34.46,0,0,1,83.37,89.31Z"/><path class="cls-2" d="M70.84,124.51H53.67v-9.29c-1.26-.2-2.52-.45-3.75-.74l-3.56,8.58L30.5,116.48l3.55-8.57q-1.62-1-3.18-2.13l-6.56,6.57L12.16,100.2l6.57-6.56c-.75-1-1.45-2.1-2.13-3.18L8,94,1.45,78.14,10,74.59c-.29-1.23-.54-2.49-.74-3.75H0V53.67H9.29c.2-1.26.45-2.52.74-3.75L1.45,46.36,8,30.5l8.57,3.55c.68-1.08,1.38-2.14,2.13-3.18l-6.57-6.56L24.31,12.16l6.56,6.57c1-.75,2.1-1.45,3.18-2.13L30.5,8,46.36,1.45,49.92,10c1.23-.29,2.49-.54,3.75-.74V0H70.84V9.29c1.26.2,2.52.45,3.75.74l3.55-8.58L94,8,90.46,16.6c1.08.68,2.14,1.38,3.18,2.13l6.56-6.57,12.15,12.15-6.57,6.56q1.11,1.56,2.13,3.18l8.57-3.55,5.75,13.88-4,1.64-4.11-9.91-8.07,3.34-.94-1.64a49.63,49.63,0,0,0-3.9-5.82l-1.16-1.5,6.18-6.18-6.07-6.08L94,24.42l-1.49-1.16a49.63,49.63,0,0,0-5.82-3.9l-1.64-.94,3.34-8.07L80.47,7.06l-3.34,8.07-1.83-.5a50.57,50.57,0,0,0-6.87-1.35L66.55,13V4.29H58V13l-1.88.24a50.57,50.57,0,0,0-6.87,1.35l-1.83.5L44,7.06l-7.93,3.29,3.34,8.07-1.64.94A49.63,49.63,0,0,0,32,23.26l-1.5,1.16-6.18-6.19-6.08,6.08,6.19,6.18L23.26,32a49.63,49.63,0,0,0-3.9,5.82l-.94,1.64-8.07-3.34L7.06,44l8.07,3.34-.5,1.83a50.57,50.57,0,0,0-1.35,6.87L13,58H4.29v8.59H13l.24,1.88a50.57,50.57,0,0,0,1.35,6.87l.5,1.83L7.06,80.47l3.29,7.93,8.07-3.34.94,1.64a49.63,49.63,0,0,0,3.9,5.82L24.42,94l-6.19,6.19,6.08,6.07,6.18-6.18,1.5,1.16a49.63,49.63,0,0,0,5.82,3.9l1.64.94-3.34,8.07L44,117.45l3.34-8.07,1.83.49a49.11,49.11,0,0,0,6.87,1.36l1.88.24v8.75h8.59v-8.75l1.88-.24a49.11,49.11,0,0,0,6.87-1.36l1.83-.49,3.34,8.07,7.93-3.29-3.34-8.07,1.64-.94a49.63,49.63,0,0,0,5.82-3.9L94,100.09l6.19,6.18,6.07-6.07L100.09,94l1.16-1.49a49.63,49.63,0,0,0,3.9-5.82l.94-1.64,8.07,3.34,4.11-9.92,4,1.65L116.48,94l-8.57-3.55q-1,1.62-2.13,3.18l6.57,6.56L100.2,112.35l-6.56-6.57q-1.56,1.11-3.18,2.13L94,116.48l-15.87,6.58-3.55-8.58c-1.23.29-2.49.54-3.75.74Z"/><path d="M62.25,107.34a45.09,45.09,0,1,1,41.33-63.12l-3.93,1.72a40.79,40.79,0,1,0,0,32.63l3.93,1.72A45.1,45.1,0,0,1,62.25,107.34Z"/><path d="M25.71,60.19l.42-3A36.33,36.33,0,0,1,39.81,33.49l2.39-1.86,8,23.66Zm14.4-21.31a32.29,32.29,0,0,0-5.74,7.27,32,32,0,0,0-3.43,8.62L44.57,52Z"/><path d="M42.2,92.88,39.81,91a36.28,36.28,0,0,1-13.68-23.7l-.42-3L50.2,69.21ZM30.94,69.74a32.15,32.15,0,0,0,9.17,15.88l4.46-13.15Z"/><path d="M82.31,92.88l-5.8-17.15,4.07-1.37,3.81,11.26a32.07,32.07,0,0,0,8.45-13.3l4.08,1.33A36.3,36.3,0,0,1,84.7,91Z"/><path d="M92.84,52.19a32,32,0,0,0-8.45-13.31L80.58,50.15l-4.07-1.37,5.8-17.15,2.39,1.86A36.42,36.42,0,0,1,96.92,50.85Z"/><path d="M62.25,98.75a36.2,36.2,0,0,1-13.68-2.68L45.88,95l1.83-2.25a59.12,59.12,0,0,1,46-21.89h26.47a8.59,8.59,0,0,0,0-17.17H93.75a59.12,59.12,0,0,1-46-21.89l-1.83-2.25,2.69-1.09a36.5,36.5,0,0,1,27.37,0l2.8,1.13-11.46,13a54.91,54.91,0,0,0,26.47,6.75h26.47a12.88,12.88,0,0,1,0,25.76H93.75a54.92,54.92,0,0,0-26.47,6.76l11.46,13-2.8,1.13A36.25,36.25,0,0,1,62.25,98.75Zm-9.2-5.65a32.09,32.09,0,0,0,18.37,0l-7.88-9A55.08,55.08,0,0,0,53.05,93.1Zm0-61.69a55.08,55.08,0,0,0,10.49,9l7.88-9A32.09,32.09,0,0,0,53.05,31.41Z"/></g></g></svg>