<svg xmlns="http://www.w3.org/2000/svg" viewBox="0 0 133.36 124.76"><defs><style>.cls-1{fill:#ffd900;}.cls-2{fill:#e9531d;}</style></defs><title>Recurso 5</title><g id="Capa_2" data-name="Capa 2"><g id="Capa_1-2" data-name="Capa 1"><path class="cls-1" d="M107.55,75.29A23.66,23.66,0,1,0,131.21,99,23.66,23.66,0,0,0,107.55,75.29Zm0,38.72A15.06,15.06,0,1,1,122.61,99,15.06,15.06,0,0,1,107.55,114Z"/><path class="cls-1" d="M25.81,75.29A23.66,23.66,0,1,0,49.47,99,23.66,23.66,0,0,0,25.81,75.29Zm0,38.72A15.06,15.06,0,1,1,40.87,99,15.06,15.06,0,0,1,25.81,114Z"/><path d="M107.55,124.76A25.82,25.82,0,0,1,96.79,75.48l1.79,3.91a21.53,21.53,0,1,0,9-2q-1,0-2,.09l-.4-4.29c.78-.07,1.56-.1,2.35-.1a25.81,25.81,0,1,1,0,51.62Z"/><path d="M107.55,116.16a17.21,17.21,0,0,1-8.87-32l2.22,3.68A12.92,12.92,0,1,0,107.55,86v-4.3a17.21,17.21,0,0,1,0,34.42Z"/><rect x="105.4" y="101.1" width="4.3" height="12.91"/><rect x="92.49" y="96.8" width="30.11" height="4.3"/><rect x="95.14" y="103.19" width="12.02" height="4.3" transform="translate(-44.86 102.38) rotate(-45)"/><rect x="111.8" y="99.34" width="4.3" height="12.02" transform="translate(-41.12 111.43) rotate(-45)"/><path d="M25.81,124.76A25.81,25.81,0,1,1,35.2,74.9l-1.57,4a21.51,21.51,0,1,0,13.34,24l4.23.78A25.8,25.8,0,0,1,25.81,124.76Z"/><path d="M47,95A21.37,21.37,0,0,0,40.58,83.3l3-3.13A25.67,25.67,0,0,1,51.2,94.26Z"/><path d="M25.81,116.16a17.21,17.21,0,0,1,0-34.42,18.38,18.38,0,0,1,2.46.17l-.61,4.26A14.26,14.26,0,0,0,25.81,86a12.91,12.91,0,1,0,12.38,16.59l4.12,1.23A17.32,17.32,0,0,1,25.81,116.16Z"/><rect x="23.66" y="107.55" width="4.3" height="6.45"/><rect x="10.76" y="96.8" width="10.76" height="4.3"/><rect x="13.85" y="104.27" width="8.97" height="4.3" transform="translate(-69.88 44.14) rotate(-45)"/><rect x="17.26" y="86.54" width="4.3" height="12.02" transform="translate(-59.76 40.83) rotate(-45)"/><rect x="31.14" y="101.94" width="4.3" height="8.97" transform="translate(-65.5 54.71) rotate(-45)"/><path d="M99.24,93,84.05,24.64a7.57,7.57,0,0,1-.16-1.5V22a6.9,6.9,0,0,1,13.65-1.42L112.6,92.05l-4.21.89-15-71.52a2.6,2.6,0,0,0-5.15.54v1.18a2.6,2.6,0,0,0,.06.56L103.44,92Z"/><path d="M117.94,43A8.24,8.24,0,0,1,112.11,29l5.57-5.56a2.16,2.16,0,0,0,.63-1.52V7.53a7.53,7.53,0,1,1,15.05,0V23.88a17.06,17.06,0,0,1-5,12.16l-4.57,4.57A8.18,8.18,0,0,1,117.94,43Zm7.9-38.72a3.23,3.23,0,0,0-3.23,3.23V21.88a6.41,6.41,0,0,1-1.89,4.56L115.16,32a3.93,3.93,0,0,0,5.56,5.56L125.28,33a12.8,12.8,0,0,0,3.78-9.12V7.53A3.23,3.23,0,0,0,125.84,4.3Z"/><rect x="44.9" y="29.85" width="4.3" height="13.44" transform="translate(-8.36 14.64) rotate(-16.26)"/><rect x="52.9" y="51.17" width="4.3" height="39.63" transform="translate(-13.89 13.4) rotate(-12.34)"/><rect x="61.58" y="51.16" width="4.3" height="37.49" transform="translate(-13.84 15.76) rotate(-12.73)"/><rect x="53.57" y="29.83" width="4.3" height="13.48" transform="translate(-8.18 17.62) rotate(-16.76)"/><path d="M92.49,53.78H43a6.46,6.46,0,0,1,0-12.91H90.34v4.3H43a2.15,2.15,0,0,0,0,4.3H92.49Z"/><rect x="62.42" y="70.71" width="30.04" height="4.3" transform="translate(-28.87 74.77) rotate(-44.28)"/><rect x="61.35" y="63.55" width="21.43" height="4.3" transform="translate(-25.32 70.87) rotate(-45.4)"/><path class="cls-2" d="M66.68,32.27H32.27V15.06H45.54a24.44,24.44,0,0,1,20.84,11.8l.3.51ZM36.57,28H62a20.13,20.13,0,0,0-16.43-8.6h-9Z"/><path d="M66.68,111.85A12.91,12.91,0,1,1,79.59,99,12.92,12.92,0,0,1,66.68,111.85Zm0-21.51A8.61,8.61,0,1,0,75.29,99,8.61,8.61,0,0,0,66.68,90.34Z"/><polygon class="cls-2" points="73.14 124.76 64.53 124.76 64.53 98.95 68.83 98.95 68.83 120.46 73.14 120.46 73.14 124.76"/><rect class="cls-2" x="60.23" y="120.46" width="6.45" height="4.3"/><rect x="36.57" y="101.1" width="19.36" height="4.3"/><rect x="40.87" y="92.49" width="15.06" height="4.3"/><path d="M24.45,108.47a6.8,6.8,0,0,1-5.81-10.33l29-47.63,3.67,2.23-29,47.64a2.46,2.46,0,0,0-.24,2.08,2.52,2.52,0,0,0,1.25,1.45,2.48,2.48,0,0,0,1.91.13l.42-.14A2.43,2.43,0,0,0,27,102.82L51.93,61.27l3.69,2.22L30.69,105A6.79,6.79,0,0,1,27,108l-.42.13A6.66,6.66,0,0,1,24.45,108.47Z"/><rect x="92.13" y="11.83" width="28.7" height="4.3" transform="translate(-0.42 24.27) rotate(-12.98)"/><rect x="96.36" y="20.44" width="24.53" height="4.3" transform="translate(-2.12 29.33) rotate(-15.23)"/></g></g></svg>