<svg xmlns="http://www.w3.org/2000/svg" viewBox="0 0 798.36 209.67"><defs><style>.cls-1{fill:#141414;}</style></defs><title>huella_2_1</title><g id="Capa_2" data-name="Capa 2"><g id="Capa_1-2" data-name="Capa 1"><path class="cls-1" d="M516.42,5.58a5.25,5.25,0,0,0,.13-1.88l-2.82,0c1.22,2.39,2.42,4.77,3.64,7.15C517,9.08,516,7.18,516.42,5.58Zm16.79-1.76h-2.35a10.49,10.49,0,0,1,.62,2C532.06,5.16,532.63,4.5,533.21,3.82Zm29.71,9.86,1.47-6.63-1.62-.31q-.72,3.28-1.47,6.59Zm-41.1-1.76c.63-.58,1.26-1.17,1.08-1a61.1,61.1,0,0,0-1-6.7,1.42,1.42,0,0,0-.26-.46l-2.71,0C516.88,7.05,521.53,9.06,521.82,11.92Zm12.31.6,3,.67,0-2.26A6.32,6.32,0,0,0,534.13,12.52Zm8.8-8.26,0,3.32A11.88,11.88,0,0,1,548,7.07c2,.34,3.88,1.41,5.83,2.09a7.77,7.77,0,0,0,1.91.21c-.71-1.83-1.4-3.6-2.09-5.4l-8.64-.06c-.1.29-.2.58-.31.87ZM526,25.33h0S526,25.32,526,25.33ZM348.92,35.94v.35c1.23.54,2.43,1,3.57,1.59s2.14,1.18,3.21,1.79l-.6,1.17L348.89,40l0,3.79c4.26,1.41,3.51,5.3,3.52,9.06a15.76,15.76,0,0,1-3.57-2.38l-.13,17.75,24,.17.23-32.3Zm20.38,3.44L366,42.7c3.63,1.75,3.64,1.8,1.25,4.26l-4.2-2.7c1.06,2.09,1.6,3.13,2.38,4.66-3-.24-5.52-.42-8.14-.61,0-.82-.08-1.7-.09-1.86l-4.26-2.53c.15-.32.29-.65.44-1l3.7.27c.25-1.14.47-2.1.69-3.08L364,41.51c.17-1.38.31-2.45.51-4ZM121.84,94l-1.61-1.77c1.24-1.86,2.34-5.11,3.77-5.26a4.25,4.25,0,0,1,2.22.6l2.85-6a9,9,0,0,1-1.89-4.08.39.39,0,0,0-.08-.1l0,0c-4,1.82-6.29,1-6.2-1.72a19.38,19.38,0,0,1,4.06.11c.8.17,1.44,1,2.14,1.61l.07,0a.66.66,0,0,1,0,.15,13.88,13.88,0,0,0,2.58,2.61l3.61-7.64-5.57,0c-.15.27-.3.54-.5.87-.35-.33-.66-.59-1-.88L110,72.24l-9.4,19.86,1.14.71c-.62.17-1.17.3-1.67.41L98.43,96.7l5.37-1c.45.48.87.9,1.29,1.35l16.59.12,1.85-3.91Zm-8-16c.2-.39.41-.78.61-1.18q4.17,2.44,8.37,4.88l-.49,1ZM552,30.74c-2.78-2.41-5.42-4.71-8.3-7.23-.26,1.79-.47,3.31-.74,5.24-.55-.74-.71-1.12-1-1.31-1.18-.77-2.38-1.47-3.58-2.19-.18.35-.38.71-.56,1.07l2.35,2.51c-1.21,0-1.8,0-2.38,0a5.91,5.91,0,0,0-1.85.24c-3.58,1.54-3.56,1.57-5.31-2.58l4.63.2,1.84-3.89c-4.55-2.08-7.81.1-11,2.5,1.52,2.07,3,4.14,4.53,6.21l29.07.21c-1.72-1.16-3.42-2.32-5.17-3.49C553.79,28.93,553,29.71,552,30.74ZM428,54.86c1-.52,1.73-1,1.86-.89.72.67,1.44,1.36,2.18,2.08l.14-19.51h-1.41c-.95,1.88-1.75,3.46-2.71,5.34-.71-1.47-.17-3.78-.52-5.36l-7.27,0a3.3,3.3,0,0,0,1.18,1.34c2.84,2,3.75,4.7,1.8,8.07-1-.38-2.07-.76-3.13-1.17s-2.13-.81-3.39-1.31c.46-1.27.83-2.29,1.66-4.53-3.79.9-6.75,1.59-9.69,2.33-.11,0-.12.46-.19.76l3.31,1.61c-1.37.73-2.25,1.21-3.66,1.95v.17l10.31,11.9c-2.81-.87-5.79-1-6.16-2.06-.81-2.4-2.47-2.78-4.2-3.17L408,68.67l24,.17.06-9.21C430.56,58.19,429.7,56.14,428,54.86Zm-5.46-2.68a19.89,19.89,0,0,1,.42-3.34l1.44-1.36c.52,7,3.08,3.23,5.45,2.64-.4,1.34-1.09,2.76-1.89,2.84A16,16,0,0,1,422.58,52.18Zm5.92,9.56-4.38-3,1-1.35c2.35-.7,3.77.47,4.46,2.67C429.66,60.5,428.87,61.18,428.5,61.74Zm96.73-41.41,1.61-3.78c-1.75-1.28-3.48-2.56-5.22-3.85h0l-3.49,3-.81-4.6a6.44,6.44,0,0,0-4.12-.28l0,5.38A2.78,2.78,0,0,1,513,17c2.5,1.71,6.75.56,8.28,3.35-.78,1.08-2.08,2.23-1.87,2.72.61,1.4,1.62,3,2.9,3.61.85.38,2.45-.89,3.71-1.42l0,0c1.16-1.72,2.32-3.45,3.9-5.83C528.75,17,527.21,19.31,525.23,20.33Zm-23-16.73h-1.36c.5.76,1.15,1.51,1.63,2.26C502.49,5.12,502.33,4.36,502.27,3.6Zm27.89,13.12c1.05.26,2.3,0,3.24.36s1.72,1.41,2.9,1.77c-1.78-4.69-7.66-4.84-9.91-9.08C524.92,13.11,526.77,15.89,530.16,16.72ZM645.48,61.37v.41l.24-.17C645.65,61.52,645.56,61.46,645.48,61.37Zm20.43-.58c2.67-2.75,3.13-7.09,1.07-8-1.63-.72-4,.09-6.76.26-1.5-1.33-3.89-3.47-6.27-5.61.21-.35.43-.69.64-1,1.61.79,3.15,2,4.84,2.3,2.44.4,3.56-.85,3.51-2.64-1.59.05-3.21.08-4.84.11,0-.31,0-.63,0-.95l4-2.91c2.52,1.64,5,3.27,7.45,4.9v-2h0a67.59,67.59,0,0,0-5.81-4.65c-1.21-.77-2.82-.92-4.24-1.35l-1.19-.2a3.14,3.14,0,0,1,.37-.78l-6.87,0c.59,1,.73,2.32-.35,4.3-1.55,2.88-2.36,5-5.88,5.33V48c7.12,2.16,10.92,7.53,15,12.55l-.71.84-12-10-1.22,1.57c1.06.72,2.19,1.35,3.18,2.17,1.19,1,2.26,2.12,3.39,3.2a3.38,3.38,0,0,1-2.48-.22c-1.15-.34-2.33-.58-3.51-.85a20.62,20.62,0,0,0,.07,3.43c.29,1.67.82,3.29,1.53,6l-3.38-2.27,0,2.91.62.45-.63,1v1.66l8.85.06a2.61,2.61,0,0,0,.17-.28,4.53,4.53,0,0,1,2.58.3l9,.06c-1-.69-1.88-1.36-2.59-1.89.35-2.07.63-3.67.91-5.27l.81-.3c.9,2.49,1.79,5,2.69,7.48h1.58l.06-8.78ZM646.66,38.16l-.06-.08h-1v.63ZM639.93,38h-.31l.31.21Zm-24,14.3,1.38-1.21-1.38-.56ZM572.6,4.13V5.92c1.86.94,2.87,2.92,3.63,5.32C577.5,7.37,575.14,5.54,572.6,4.13Zm-5.28,19a38.36,38.36,0,0,0,4.76-1.78c2-1.1,3.91-2.41,6.54-4.07-4.75-.39-7.9-1.68-4.59-6.81l-1.48.61,0,5.63a2.85,2.85,0,0,1-2.88,2.84,2.81,2.81,0,0,1-2.28-1.25C566.1,20,565.24,21.71,567.32,23.08Zm55,26.14-5.2-3.51c.1,2.27.16,3.85.22,5.42l1.47,2.94Zm-5.06,1.91.09,0s0,0,0,0l0-.05ZM128,108.6l11.22,24.63,23.37.16-11.22-24.62Zm24.19,20.24c-4.42,2.24-8.8.3-9.29-3.77C146,126.31,148.68,127.41,152.21,128.84Zm-71.34,42,2.46,0a8.32,8.32,0,0,1-2.45-1.54ZM370.75,169a6.39,6.39,0,0,1,1.18-2.38l0-2c-.63.35-1.12.63-1.22.54-2.26-2.11-4.44-4.31-7.37-7.21,5.45-.62,6.23,3.29,8.59,5.72l0-3a5.1,5.1,0,0,1-.87-1.66c-.12-.36.5-.95.9-1.47l.11-15.26c-.91-.56-1.83-1.12-2.73-1.69l-21.21-.15L348,161.21a.46.46,0,0,0,.07-.07c1.12.87,2.23,1.73,3.89,3-.23-1.49-.34-2.26-.46-3l.95-.26c.47,2.18,1,4.36,1.64,7.52l-6.14-.25,0,4.61h.71l4.33-1.83c.16.59.32,1.24.49,1.86h.85l3.81-5.89c-.37,4.67-.43,5.18-3,5.89l8.52.06-3.33-4.25c3.77.15,4.39,2.14,4.7,4.26l6.85.06,0-4.42A5.25,5.25,0,0,1,370.75,169Zm125.78-27.46-.1,14.7,6.45,1.44c-3.52,2.24-5.11,2.51-6.47.6l-.08,10.39,2.8,1.66.06,1.07a26.8,26.8,0,0,1-2.88.76v1.67l23.95.17.24-32.3ZM460.4,151.1c-.08,1.13-.16,2.24-.29,4l-5.65-7,6.63-.35.05-6.49-24-.17-.2,29.24c2.23.17,4.3.33,6.37.47,0,.83.08,1.7.09,1.86.48.3.89.54,1.32.79l4.42,0c-1.27-1.87-.92-4.58-.92-7.25a16.07,16.07,0,0,1,4.75,3.42c.14.16-1.22,1.74-2.35,3.31l1.29.54,8.95.07.16-22.2Zm-29.68-1.69c-.85-1.44-1.58-2.71-2.31-3.95l.7-.72,2.32.63,0-4.33-24-.17-.07,9.88c1.92,1.95,3.91,3.95,5.84,5.92a5.8,5.8,0,0,1-5.86-2.6l-.14,19.1,24,.17.18-24.48Zm-9.35,11.69c-1.37,3.62-2.76,3.6-6.54-.43ZM104.31,148.19c-.48-2.32-.23-5-1.41-6.06-1.48-1.37-2.21-2.48-2-3.47l-3.91,0-2.12,1,1,1.38,6.17,2.47-2.85,2.07.08.12c-.35.2-.7.4-1.06.59l-1,.71,3.36.47c-.73,1.16-1.48,2.32-2.35,3.67.42.89.92,2,1.42,3L98.5,155c-.67-1-1.71-2-1.88-3.14-.21-1.3.35-2.72.58-4.09a20.38,20.38,0,0,1-7.55-2.93c0,.15.09.27.13.43.48,2.47,1.09,5,1.81,8.12.62.89,1.2,1.75,1.77,2.59,0,.24,0,.49,0,.73-1.43-.82-3.29-1.34-4.18-2.56a4.12,4.12,0,0,1-.42-2.4c-1.24-.79-2.17-1.74-1.43-4,.95-2.88-.21-4-3.38-3.41a17,17,0,0,1,1,3.24c.44,4.52,2.31,7.78,7,9,.75.2,1.24,1.36,2.51,2.83a32.86,32.86,0,0,1-5-1.81,57.87,57.87,0,0,1-8.19-5.48c-.09-.09-.17-.19-.26-.27l0,4.38,1.93.62,1.75-2.2c2.84,2.47,6.29,4.27,7.83,7.12,2,3.77,4.82,4.14,8.28,4.09.2,1.26.38,2.45.51,3.22L90.37,165.3c.29,1.19.52,2.12.76,3.14l-2.84.16,1.3,2.28,15.24.11.16-22.76ZM646.21,42.43c.53.32,1.5-.11,2.26-.2-.32-.61-.5-1.45-1-1.79a6.81,6.81,0,0,0-1.82-.75l0,2.36ZM140.65,140.88l-.21-.1,0,2.79,6.68,3.92-.91,1.45c-2.85.45-4.25-1.34-5.79-2.93l-.08,12.26.42-.5c4,3.33,8,6.69,12,10l1.22-1.57a34.92,34.92,0,0,1-3.18-2.17c-1.19-1-2.27-2.11-3.39-3.18a3.4,3.4,0,0,1,2.48.2c1.15.35,2.33.58,3.51.86a21.89,21.89,0,0,0-.07-3.44c-.29-1.66-.83-3.29-1.53-6L157,156l-2.05,1.5c2.62,3.42,6,5.8,9.29,8.34l0-6.29c-1.18.1-2.2-.52-3.21-1.74a6.34,6.34,0,0,1,3.25-3.32l0-6.19-1.12-3.68c.36.12.76.22,1.14.32l0-3.46-4.26-2.38L140.45,139v1.54C140.51,140.63,140.57,140.73,140.65,140.88Zm20.69,13.25-1,1.53q-2.85-2.13-5.72-4.24l.75-1.23ZM593.52,11.67c.48,1.27-1.29,3.39-2.23,5.56,1.65-.82,3.38-1.83,5.19-2.68l.08-10.27-9.62-.07a9.38,9.38,0,0,1,1.75,1.06A16.63,16.63,0,0,1,593.52,11.67Zm186,75.46-.71.63,1.4,2,.68-1.41A4,4,0,0,1,779.49,87.13Zm-58.73,44.19c-1-2.18-1.65-3.71-2.58-5.81l2.85.15-1-2.23a10.19,10.19,0,0,1-2.7,1c-3.24.71-4-1.19-2.18-5.21h0a1.6,1.6,0,0,0,0-.21c0-2.12,0-4.19-.06-6.21l-23.25-.16,2.51,5.5,3.67-3.54c2,2.77,3.46,4.88,5.35,7.55l-6.51,1.27-.19-.2,6.39,14,23.36.17L722.57,129Zm-21.87-5c5.51-1.49,6.27-1,6.88,4.25Zm16.19-7,.06,0a0,0,0,0,0,0,0l3.51,1.17-2-4.42a4.33,4.33,0,0,0-1.5,3,1.09,1.09,0,0,1,0,.18S715.08,119.25,715.08,119.25Zm53.35-23.78c2.78.46,5.53,1.06,8.27,1.68l.89-1.89c-2.76-.49-5.42-1-8-1.38-2.07-.33-4.58-2.85-6.05,1-.09.24-1.24.33-1.75.12-2.09-.85-4.4-1.32-6.37-2.38l-4.27,9,21.4.15c-2.91-1.54-5.73-3-9.08-4.84C765.17,96.41,766.92,95.24,768.43,95.47ZM51.35,149.56,65.26,159l.8-1.06c-.53-1.76-.15-3.82-3.44-4-1.73-.1-3.34-2.11-5.66-3.72l3.64-.67.12-.75-6.46-1c-.28-.94-.66-2.25-1.06-3.61a3.38,3.38,0,0,1-1.81.18Zm106.34-40.74,11.23,24.62,23.37.16L181.06,109Zm-52.65,33,0-3.1h-.47A3.08,3.08,0,0,0,105,141.79Zm-37.53-1-.54.1c-.6,1.59-1.48,3.25-2.19,5.07,1.26-.51,2.44-.94,2.88-.54,2.3,2.1,5.83,3.2,7.41,5.67l.22.1,0-6.94a4.69,4.69,0,0,0-3.62-1.13c-.68.06-1.48-1.55-2.23-2.4-.11-.62-.22-1.24-.33-1.88,3.07,3.44,3.33,1.38,4.28,0l-.45-.37-5.45-.05a2,2,0,0,0,0,.33C67.5,139.42,67.51,140.1,67.51,140.78ZM217,109.24l3.86,8.46a6.71,6.71,0,0,1,1.78,2.18l-.84-.1,6.42,14.09,23.38.16-11.23-24.61ZM187.37,109l11.22,24.62,23.37.17L210.73,109.2ZM80.93,163.26v.42l.55-.4Zm-27.35-21.7L53,142.68l.21.06c.17-.37.35-.74.51-1.1Zm2.49,1.07-.89.52,5.35.67-2.33-4.08-1.42-1.4h-.85c.85,1.48-.07,1.92-1.6,1.73l-.26.51Zm-1.74-2.56,0,0h-.11l.06,0ZM62,143.41a9.93,9.93,0,0,0,.52,3.41c.65-.2,1.41-.52,2.17-.83ZM54.24,140a9.31,9.31,0,0,0-2.05-1.72h-.32l1.65,1.7ZM744.77,81.66c.43.43.35,1.37.5,2.09l.08,0,0,0,2.09-.08A28,28,0,0,1,744.82,81c-1.16-1.74-.16-2.2,1.48-2,.09-.17.18-.34.26-.51l-1.66-1.71-3.94,0c.5.85,1,1.73,1.47,2.57C743.21,80.12,744,80.88,744.77,81.66ZM544,126.55,539.18,116c-.27-.12-.54-.25-.81-.36l.33-.69-1.56-3.42-23.37-.17,4.63,10.16a2.37,2.37,0,0,1,1.5-.24c2.25.56,4.18,2.36,6.25,3.64-1.51,1.18-3.31,1-4.43,1.78a4,4,0,0,0-.66.64L525,136l23.37.16-2.28-5A7.55,7.55,0,0,1,544,126.55Zm-19.72-5.84c.87-2.31,1.76-4.73,2.7-7.14a1.78,1.78,0,0,1,.74-.82c1.31-.77,7.28,1.35,8.8,3.92-5.39-1.76-5.55,2.52-7.44,5.35C527.74,118.12,525.72,119.6,524.26,120.71ZM753.53,80.39a6.92,6.92,0,0,0,.92-1.15l-3.7-.07Zm-6.47-2.85.36-.7h-.22l-.3.64ZM711.47,94.83l.67-1.19,5.19,3.14,4.94-10.44-1.63-1.79c-1.15.11-2.27.17-3.33.27-.22-1.42-.49-3.16-.78-5a7.11,7.11,0,0,0-2.06-1.56c-.24-.12-.42-.24-.64-.36a7.71,7.71,0,0,1,.48,2l-6.9-3.27c.92,2.44,1.24,5.25,2.19,5.48,3.89,1,4.16,5.19,7.44,6.44l-.46,1-8.93-.92c1.93-1.85,2.61-3.49-.09-4.71-1.79-.82-3.56-1.66-5.65-2.64l3.9-1.83c-.34-.45-.67-.92-1-1.38l-1.74-.69-3.55,7.49,3.36,3.45a19.64,19.64,0,0,1-4.23-1.61L693.3,98l5,.6c-.12.51-.24,1-.37,1.53-1.67-.82-3.81.15-5.64,0l-.51,1.08,23.37.16,1.66-3.49ZM424.75,110.74,434,131q.13-.33.3-.69l4.35,5.11,20.72.14L448.12,110.9Zm59.35.43,11.23,24.62,23.36.16-11.22-24.61Zm28.26,21.68-5.44-2.25,8.26-1.67Zm232.91-49.1-.3.07c0,.07.09.14.13.22.07-.09.15-.18.21-.27s0,0,0,0A0,0,0,0,1,745.27,83.75Zm1.85-4.65h-.73a9,9,0,0,0,2.84,2.17C748.52,80.55,747.82,79.81,747.12,79.1ZM545.34,61.84l5.13-1.36.27.33.17-23.41L527,37.23l-.19,26.25a3.26,3.26,0,0,0,3.39-2.21l5.89,1.31L535,65.77l-8.21-1,0,4.8,24,.18,0-5.89ZM529.73,51.46c4.91,2.5,6,4.28,4.17,5.94C532.5,55.41,531.12,53.42,529.73,51.46ZM454.43,111l11.22,24.62,23.37.17-11.23-24.62ZM469.06,119l-.57,1c-2.13-1.13-4.26-2.26-6.39-3.41.32-.55.64-1.12,1-1.68ZM746.39,79.09a.12.12,0,0,0,0,0h0a.17.17,0,0,1,0,0ZM631.91,10.23l0,3.33c3,1.19,3.55-.66,3.69-2.51ZM215.74,86l.59-.09,6.07-12.82L199,72.88,187.34,97.59l16.22.11-1.12-1.45a24.13,24.13,0,0,1,4.25,1.48l4,0,5.43-11.46A2.44,2.44,0,0,0,215.74,86Zm72.31-12.44L279.3,92c1-1,1.64-2.49,2.75-4.17,1.55.79,3.83,1.55,1.52,3.73.71,1.58,1.32,2.93,1.94,4.29-1.61.71-3.44,2.29-4.78,2a11.25,11.25,0,0,1-3.38-1.68l-1,2.1,23.37.17,11.7-24.71Zm5.66,15c-3.09.61-5.12,1-8.26,1.66l2.83-3.91ZM562.92,29.6A4.34,4.34,0,0,1,564.6,31c.13.24.22.49.35.74l2.44,0a29.66,29.66,0,0,0-11.77-7.66A32.59,32.59,0,0,0,562.92,29.6ZM317.73,73.74,306,98.44l23.36.17,11.7-24.71Zm78.36,23.14-1,2.21,2.92,0A5.33,5.33,0,0,1,396.09,96.88ZM423.9,75.74l.62-1.23-17.78-.13-8.25,17.45.33.2-.49.12-1.7,3.59c3-.92,5.72.23,7.84,3.41l13.94.1,9.84-20.76Zm-13.37,9.91c.85.19,1.37,2,2.42,3.67l-6.74-1.51c-.08-.47-.14-1-.22-1.41C407.51,86.09,409.13,85.35,410.53,85.65Zm-17.78,2.73c.29.18.52.32.81.48l6.88-14.53-23.37-.16L370.7,87.63a32.21,32.21,0,0,0,2.4,3.91,6,6,0,0,1-3.47-1.66l-4.25,9,12.5.09,2-3.6,2.4,1.09c-1,1.19-1.73,2-2.26,2.53l8.72.06,4-8.42A12.21,12.21,0,0,1,392.75,88.38Zm-15.12-.68c2.79,1.64,5.54,3.26,8.95,5.25C378.53,93.79,376,92.15,377.63,87.7Zm163,2.22c.26-.34.52-.7.79-1l.71.5,5.64-11.9a6.74,6.74,0,0,1-1.54-2l2.05.9.47-1-23.37-.18L513.74,99.94l23.37.17,4.47-9.47C541.28,90.41,541,90.16,540.68,89.92Zm-5.22-10.14c.15-.39.3-.78.44-1.18,2.42.3,4.84.55,7.24,1,.29,0,.37,1.2.83,2.79ZM258.37,73.31l-6,12.64c.33.31.63.63,1,.91,3.25,2.54,3.71,5.42,3.17,9.51-1-1.9-1.53-3.6-2.62-4.72-.95-1-1.94-1.86-2.91-2.78L246.68,98l23.36.18,11.7-24.71Zm19.34,4.4L275.92,82c-1.3-2.81-2.33-5.07-3.36-7.33l.91-.4ZM574.3,75.58a2.92,2.92,0,0,1-1.5.69,13.24,13.24,0,0,1-4.1-.73l-13.59-.1-.37.79c.69,1.06,1.41,2.15,2.25,3.42a14.54,14.54,0,0,1-3.89,0l-6.18,13c.12.07.24.16.37.25l-1,1.38a.18.18,0,0,1-.07-.05l-2.76,5.83,4.53,0c-.36-.49-.72-1-1.07-1.44l.88-.64a4.77,4.77,0,0,0,1.82,2.09l17.2.12,11.7-24.7ZM243,81.14c-.86-.91-.62-2.83-.89-4.29l1.2-.34a16.33,16.33,0,0,1,2.36,1.83c.88,1,1.71,2,2.55,3l3.83-8.1L228.7,73.1l-5.54,11.72,4.41-.69c-2,2.32-3.31,5.28-5.52,6.24a3.45,3.45,0,0,1-1.68.32L217,97.8h.7c.61-1.13,1.28-2.4,2.17-4,0,1.65,0,2.91,0,4.06l11.63.09a3.11,3.11,0,0,1,4.47,0l4.38,0,6.29-13.28C245.43,83.52,244.18,82.37,243,81.14ZM227.63,92.76c.17-.54.33-1.08.49-1.63L238,94.22c-.13.45-.26.88-.39,1.32Zm13.82,2.88c-3.43-2.31-3.57-7.44-8.43-4.93-.64-2.55-1.18-4.71-1.92-7.63,3.44,1.6,6.58,2.19,8.18,4.08S240.63,92.08,241.45,95.64ZM495.77,75l-11.7,24.7,23.37.17,11.69-24.7Zm-75,48.73c-.81-.36-1.57-.72-2.4-1.08,2.53-2.92,3.13-3.61,3.95-3.54l-3.85-8.44-4.7,0a1.28,1.28,0,0,0,.52.59c-.31.31-.62.6-.94.9-.87-.47-1.74-1-2.75-1.5l-15.5-.11,3.74,8.2c2.54.41,5,1,6.12,4.32a6.49,6.49,0,0,1-3.91.54l1.52,3.31c2.72-.72,5.94-2.41,5.34,3.82l-5-3,3.38,7.4,23.36.16-6.91-15.16Zm-9.91-9c.43-.4.86-.79,1.28-1.2l3.81,3.72c-.44.37-1.21,1.12-1.29,1C413.33,117.16,412.1,115.94,410.84,114.73ZM423,131.4l-9-5.24C422.1,125.31,424.67,127,423,131.4Zm-252.88,7.76-.06,7.44a9.31,9.31,0,0,1,2,1.13c2,1.54,2.66,4.84,3.91,7.36l-1.17.7c-.86-1-1.73-2.06-2.61-3.12-.79,1-1.51,1.88-2.19,2.65l0,4.64a8.52,8.52,0,0,1,1-.62c.39-.19,1.35.78,2.06,1.22.08.32.17.64.25.95l-2.63.15c.09.35.2.69.29,1l1.74,1.27c3.11-1.86,5.46-3.63,8.09-4.68,1.16-.46,2.9.53,4.38.85-.08.45-.15.88-.22,1.33l-4.76.42,5.68,3.88L183.37,168c3,1.21,6,2.41,9,3.64h1.48l.23-32.29Zm167.65,28.33-6.07-.15,0-.69,4.38-1.27c-2.73-2.23-4.57-4.42-6.93-5.49-3.34-1.53-3.77-2.54-.76-5.56,3.11,5.48,9.09,9,13.91,9.14l.17-23.07-24-.17-.2,28.42,1,.68-.53.85-.52-.09,0,2.44,24,.18v-1.58Zm-12-19.55c1.09-.14,1.92-.26,3.11-.43l-3-3.77,1.2-.89,7.11,9.84c-.27.24-.54.49-.82.72ZM183.29,168l0,.06.05-.05-.07,0A0,0,0,0,0,183.29,168ZM170.05,150.1l0,3.06a22,22,0,0,0,2.18-.49Zm8.27,19.78,2.44,1.66,2.68,0c-.06-1.32-.1-2.5-.15-3.59L181.83,165C180.45,166.93,179.37,168.43,178.32,169.88ZM625,112.77l3.9,5.43-2.74-6-18.66-.14,9.09,4.87c-6.63.89-9.37-.64-9.21-4.87l-4.59,0L614,136.64l23.37.17-8.21-18C626.24,120.05,625.85,119.63,625,112.77ZM250.16,158.63,246.4,154l6.9,2.52.1-13.33-6.21-2.74c.28,1.38.48,2.39.69,3.4-.32.19-.63.4-.95.6-1-1.48-1.94-3-3.12-4.77l-14.34-.1,0,3.37c1.31.22,2.66.69,4.07,1-.34,1-.76,2.31-1.08,3.28l-3-.86-.18,25.49,23.95.18.1-14.27C252.1,158.12,251.18,158.36,250.16,158.63ZM741.85,98.69c.22-.3.45-.61.67-.93l3.1,2.15,5.23-11-8.79-1c.91-1.17,1.74-2.21,2.57-3.26l-7.1.81a2.9,2.9,0,0,1-.64,2.09c-.42-.64-.9-1.25-1.39-1.86l-2.33.27c0-1.18,0-2.67,0-4.27,0-.15-.11-.28-.12-.44a5.74,5.74,0,0,1,.12-.89c0-.67,0-1.35,0-2l.55-.1c.18-.49.41-1,.64-1.49h-1.16l-1.67,3.54-1.22,2.57c.19.14.34.29.53.44l-1,.49-8.36,17.67,12.23.08-.4-.49c.54.15,1,.33,1.46.5l10.07.07.21-.45ZM725.57,68c-1.1-.47-2.21-.91-3.26-1.46-.8-.41-1.09-1.83-1.6-3.31l-3-.94L716,64.52c-2.83-2.47-6.28-4.28-7.82-7.13a7.25,7.25,0,0,0-3.26-3.3l-.13,16.72,5.44,0c-.35-1.55-.72-3.17-1.16-5.07l-1.76-2.59,0-.75c1.44.83,3.3,1.35,4.19,2.58a4.09,4.09,0,0,1,.42,2.4,2.88,2.88,0,0,1,1.52,3.46l2.2,0c-.57-4.16-2.46-7.16-6.93-8.31-.74-.19-1.23-1.35-2.5-2.83,2.46.88,3.84,1.14,5,1.82A55.88,55.88,0,0,1,719.36,67a17.21,17.21,0,0,1,3,3.89l6.31,0V70.8A9.68,9.68,0,0,1,725.57,68ZM691,46.59c2.65-3.65,2.59-4.24-.58-4.72a4.65,4.65,0,0,1-4.23-3.49l-2.83,0c1.67,1.76,3.15,3.22,4.42,4.81A9.43,9.43,0,0,1,688.88,46c-1-.19-2.19-.11-3-.63-2.25-1.49-4.32-3.23-6.92-5.21l3.43-1.78-7.11-.06,0,3.44c.6.47.86,1.12.16,2.3-.05.08-.12.17-.18.25l-.07,9.08c1,.79,2.24,1,4.12.36,3.56-1.3,6.41.43,8.11,4.33-.93-.36-2.26-1-2.39-.88-3.14,4.23-3.52,0-4-.63-2.22-.38-4.2-.41-5.82-.77l0,5.88.84.56c-.22.41-.41.81-.62,1.22l-.23-.07-.06,6.6c2.16-.51,3.66-.32,4.7.67l4.15,0c.28-1,.86-2,1.3-3.14l1.1,2.89,6.13.31,6.57,0,.18-24.25Zm-6.92,5.58-5.35-7.06C684.86,49.33,684.86,49.33,684.11,52.17Zm52.17-6.07c-.1,1.74-.16,2.8-.24,4.25l-1.45-.49-.06,8.58a6.75,6.75,0,0,0,.79.17c3.41.32,6.67,2.18,10,3.39,1.4.37,3.18-.68,4.82-.5,1.48.17,2.85,1.41,4.29,2.34l.19-.07c-1.35-2.64-5.57-5.55-6.74-4.33-2.49,2.58-3.42.61-4.94-1.07l2-1.08-1.87-2.1.49-.78L752.1,58c.17-1.8.76-3.35.25-4.24s-2.18-1-3.34-1c-2.45,0-4.91.55-7.33.38A5.39,5.39,0,0,1,738.5,51c-.35-.42.39-1.71.75-3.05ZM754.06,68c-.14-.27-.3-.54-.45-.84-.89,1.23-1.6,2.24-2.55,3.56L735.38,60.13l-.81,1.06c.53,1.76.16,3.82,3.45,4,1.73.11,3.34,2.12,5.65,3.72l-3.64.68c0,.24-.08.5-.12.76l4.62.72,9.23.07A5.33,5.33,0,0,0,754.06,68ZM696.6,43.48l.47-2.09,2.18.76,0-3.69-6.24,0C693.47,41.08,695.68,41.58,696.6,43.48Zm-119.79-5.9-3.21,0,3,2.33C576.67,39.1,576.74,38.34,576.81,37.58ZM452.55,58l-3.88-3c.23,1.49.35,2.25.46,3l-1,.27c-.47-2.18-.94-4.36-1.63-7.52,3.79.17,7.19.3,10.8.45.15-.66.35-1.58.77-3.44,1.5,1.23,2.67,2.17,3.68,3l.1-14-8.53-.07c-.72.56-1.42,1.46-2.18,1.51-.93.07-1.89-.84-2.88-.94-2.07-.22-4.18-.11-6.27-.29a14.61,14.61,0,0,1-2.81-.37l-1.28,0-.08,10.81c.75,1,1.54,2,2.44,3.12a6.26,6.26,0,0,1-2.46-.55l-.13,18.92,24,.18.09-12.84C458,55.05,454.45,55.42,452.55,58Zm7.17-14.25L456.46,46l-3.76-3.69C458.84,42.57,458.84,42.57,459.72,43.71Zm-13.29-3.25a1.77,1.77,0,0,1,1.6-.35c1.85,1.86,3.59,3.86,5.26,5.7l-5.62,2.38c-.49-1.79-1.05-3.68-1.47-5.6A3.3,3.3,0,0,1,446.43,40.46Zm.08,5.58-4,6.16C442.93,47,442.93,47,446.51,46ZM139.69,72.46,135,82.32a8.35,8.35,0,0,0,3.52-.22c.18,1.22.34,2.37.52,3.58a14.15,14.15,0,0,1-5.23-.85L128,97.17l23.38.16,11.69-24.7Zm9,16.82-4.09-2.82c2-1,3.33-1.72,5.33-2.77C149.5,85.71,149.13,87.36,148.71,89.28Zm1.34-9.91-3.4,4.53c-.36-4.1-2.81-5.36-6.23-5.38.81-4.08,3.81-3.77,6-4.12ZM610.23,42.1V39.83c-1.5-.73-2.87-1.37-4.16-2l-4.21,0a3.52,3.52,0,0,1,.78,1.5A5,5,0,0,0,610.23,42.1ZM222.53,170.31c-.11.51-.23,1-.34,1.52h1.33V170.4C223.2,170.36,222.86,170.34,222.53,170.31ZM598.16,40.48a8.66,8.66,0,0,1,1.28-2.3,4.37,4.37,0,0,1,.61-.43H598.1a7.35,7.35,0,0,0-.88,1.26ZM218.85,165a10.78,10.78,0,0,1,4.7,2.58l.2-28-13.09-.1a6.28,6.28,0,0,1,1.74,1,65.88,65.88,0,0,1,4.67,5.68c1.45,1.78,3,3.48,4.34,5.35.32.45-.07,1.4-.16,2.47-2.68-3.06-4.72-5.49-6.87-7.8s-4.37-4.47-6.57-6.7l0-.05-8-.06-.17,22.9,2.83,2.42c2-2.34,4-3,6.62.16l-4.72,1.46c0,.34-.06.67-.1,1a9.45,9.45,0,0,0,3,.12c1.74-.51,2.89-1,3.45,1.61a5.36,5.36,0,0,0,1.42,2.69l2.92,0-3.87-6.46C214.39,165.14,216.7,164.61,218.85,165Zm34.57-25.24-4.5,0a8.1,8.1,0,0,1,4.48,2.66Zm-35.94,32h1.3l-.42-.47Zm60-3.61.83-1.25c1.54.73,3.05,1.47,4.59,2.19l.2-29.15L265,139.84c-.08.22-.17.44-.24.66-1.79-.22-3.57-.44-5.35-.69h-.24l-.24,32.3,24,.17V171Zm-7-10.36-5.89-1.3c.54-1.57,1-2.92,1.09-3.19l16.72,2.12c0,1.27,0,2.72,0,4.41C276.52,154.58,271.52,154.53,270.47,157.83Zm-3.74,3.88c1.41,2,2.79,4,4.18,5.94C266,165.15,264.91,163.37,266.73,161.71Zm44.12,4c.3-.45.6-.92.89-1.38.29.19.57.37.85.57l.18-24.68L288.82,140l-.23,31.85c.32.15.64.29,1,.45l23,.16,0-4.24A5.28,5.28,0,0,1,310.85,165.68Zm-18.51-10.05,5.8,1.3c-.11.41-.22.83-.34,1.24C295.75,158.58,293.23,160.55,292.34,155.63ZM290.88,159a48.2,48.2,0,0,0,4.92,1.91,23.88,23.88,0,0,0,4,.42c-.05.42-.11.86-.17,1.28C296.58,161.87,292.55,163.79,290.88,159Zm42.87,47.32,5.1,0-5.1-.72ZM21,203c1.22-2.63,1.22-2.63-5.55-5.69ZM84.6,187l-.77.84c2.16,2.55,4.32,5.13,6.38,7.56l-3.37,0a17.17,17.17,0,0,0,3.84,2.61l0-5.64ZM66.69,204.42h1.13c-.37-.33-.75-.65-1.13-1Zm356.16-9,0,2.8a10.56,10.56,0,0,1,.27,4.28c-.07.55,1.63,1.84,2.49,1.84a7,7,0,0,0,3.48-1.53,7.56,7.56,0,0,0,1.48-2.08l-3.6-.8C425.52,198.33,424.18,196.85,422.85,195.4ZM96.4,198.61l0,6h2c-.73-2.09-1.31-3.64-1.73-5.2C96.5,199.17,96.47,198.89,96.4,198.61Zm-10.81,5.57c.2-.43.4-.86.61-1.29-2.54-1-5.09-2-7.62-3-.2.55-.42,1.1-.62,1.64Zm345.48-4.05c-.19.06-.3.39-.45.6h0c.31.83,1,1.74.78,2.43A34.14,34.14,0,0,1,430,207l7,0-5.44-.56c.68-1.24,1.2-2.15,1.75-3.14,2,1.12,3.58,2,5.19,2.91-.07.28-.14.53-.2.81l2.87,0C441.22,204.22,433.88,199.29,431.07,200.13ZM436.41,74.6l-2.59,5.48.75.47c-.28.47-.57.94-.85,1.42l-.61-.4L424.72,99.3l23.37.16,11.69-24.7Zm351,83.22,0-4.24c-.24-.21-.51-.39-.75-.6a1.7,1.7,0,0,1,0-1.64,2.39,2.39,0,0,1,.74-.3l0-5.77-.28-.39-2.38,3.75-3.07-3.4c.91-.63,1.63-1.12,2.41-1.64l-6.71-.06c0,.65.09,1.3.13,1.94a4,4,0,0,1-.89-1.94l-13.15-.1,0,4.64ZM785,150c0,.37-.07.75-.11,1.12l-8.82-.46c-.14-.27-.28-.54-.41-.81l3.17-2.58Zm-14.56-5.88a55.38,55.38,0,0,1,4.93,3.27c-.28.48-.57.95-.85,1.42l-5.92-3.19C769.23,145,770.17,143.92,770.43,144.07Zm-16.61-31c1.29,1.62,2.47,3.09,3.63,4.53-3.78-.72-5.44-1.85-6-4.54h-.3l11.23,24.62,8.68.06-6.17-3.19c3,.56,7.36-1.54,8.78,3.21l3,0c.13-.14.28-.28.39-.42l0,.42,8.66.06-11.22-24.62Zm13.27,15.54a12.66,12.66,0,0,1,1.44.46c0,.52-.09,1-.12,1.53-1.81-.36-3.63-.67-5.4-1.17-.25-.07-.24-1.05-.36-1.62C764.13,128.11,765.61,128.35,767.09,128.64Zm-4.94-7.42c-1.21-2.41-2.43-4.81-3.87-7.69C764.22,114.67,761.26,118.72,762.15,121.22Zm-119-109.5a12.44,12.44,0,0,0,3.31,1c.19-1.24.39-2.49.58-3.79l-6.57-1.46c.06-.36.11-.71.16-1l7.21-.41-2.39-1.42-3.33,0-.15.46-7.14-.18c0-.11,0-.22,0-.34h-2.42l0,0a.1.1,0,0,0-.05,0H632l0,2.88A28.16,28.16,0,0,1,643.17,11.72Zm-212.62,189,.06,0a.15.15,0,0,0,0-.07Zm-22.12-5.34c0-.37,0-.73,0-1.08,4.77.06,5.24-.34,4-3.35l-6.76,1.78c-.74-1.74-.91-3.38-1.82-4.07-2.79-2.14-3-4.24-.87-6.12l-5-3.71-3.23,0c-.07,1.88-.13,3.58-.19,5.55l3.13,1.81-6.54,2.55c-2.89-1.47-4.17-6.33-9.08-3.57l6.75,4.56c-.06.35-.1.7-.15,1l-4.32-.09.36,1.59-4.43,2v0a14.62,14.62,0,0,1,7.13.46v-.82a2.86,2.86,0,1,1,5.72,0l0,2.61a18,18,0,0,0,8.62,1c.12-.09,1.09-.92,2.07-1.74.58,1.34,1.71,2.73,1.6,4-.14,1.62-1.29,3.14-2.11,4.92l-3-2.69-3.72,4.77,9.64.07c-.94-1.83-.63-2.24.44-3.42l3.45,3.31c.3-.14.59-.29.89-.45-.68-1.6-1.35-3.19-2-4.8l-.12-.06.08,0-.93-2.28c.88-.35,2.08-1.24,2.57-.95a58.05,58.05,0,0,1,5.51,4.16l-.55.86a25.93,25.93,0,0,0-3.82-1.87,8.16,8.16,0,0,0-2.77.11l0,.07c3.5,1.59,4.48,3.16,3,5.4l5,0,.08-11.81ZM398.85,21.56l-2.07,1.74c-.58-1.34-1.72-2.73-1.61-4,.14-1.62,1.3-3.13,2.12-4.92l3,2.7c1.47-1.87,2.75-3.52,4.21-5.39l5.61,1.24c-4.74-1.77-5.12-2.09-4.69-4.63,5,2.69,6.92,2.63,10.19-.3,1.21,1.12,2.14,2,2.83,2.79L418.52,3l-10.93-.08.52,1a25.7,25.7,0,0,0-4.2,1.47c-.72.4-1.14,1.31-1.7,2-.51-.66-1.51-1.37-1.45-2a5.76,5.76,0,0,1,1-2.56l-3.31,0c-.65,1.75-1.27,3.42-1.86,5l-1.18,0c-.3-1-.54-2-.9-2.94l-.05,7.42c.66,1.36.59,1.91,0,2.66v.31a2.84,2.84,0,0,1-2.6,2.79c.25.6.49,1.2.74,1.81-.88.35-2.08,1.23-2.58.94a59.11,59.11,0,0,1-5.5-4.15c.17-.29.36-.58.54-.86a26.49,26.49,0,0,0,3.83,1.86,3.42,3.42,0,0,0,1.36.07,2.85,2.85,0,0,1-1.41-1.95c-1.19-1.13-1.19-2.37-.08-3.93l0-4.81-5.26-2.61,1-1.67,4.29,2.58,0-2.67-8.91-.06c0,1,.07,1.93.1,2.86l.05,0a.43.43,0,0,1,.1.09l8.1,3.19c-.1.47-.2.94-.29,1.42-1,.07-2.25.58-2.81.14a60.46,60.46,0,0,1-5-4.75l-.13,0L378,9.35c3.95,1.4,1.58,4.39,1.61,6.71,0,3-.89,6.21,3.53,6.94.27.05.33,1.32.26,1l8.83-.24,0,1.08c-4.77-.07-5.24.34-4,3.35L395,26.39c.74,1.74.92,3.38,1.82,4.07.06,0,.08.08.13.11l11.84.09.68-.27c.14.07.27.19.41.28l3.83,0-1.9-1.28.15-1.05,4.32.09-.36-1.58,4.42-2v0C412.79,26.42,406.83,20.24,398.85,21.56Zm-9.69,9,4.33,0c.24-.37.51-.76.85-1.21Zm116.74.24c-1.53-1.11-2.61-2-3.79-2.72-3.45-2.08-6.75-4.69-11.2-3.82a30.84,30.84,0,0,1-4,.84,7.68,7.68,0,0,1-2.49-.71A20.32,20.32,0,0,0,484,27.5a25,25,0,0,0,.58,3.44l-6.49-.33c.24-3.11.44-5.53.64-8.12,1.21-.35,2.61-.77,4.19-1.22-2.37-1.41-4.4-2.62-6.66-3.95l-2.7,4.06c0-3.22-1.55-4.35-4.32-4.61a22.48,22.48,0,0,1-5.52-1.34,9.92,9.92,0,0,1-2.57-2.07l.61-.63,5.3.75c.13-4.23-6.62-3.17-4.69-8A8.05,8.05,0,0,1,456,3.26h-2.09L453.83,14c5.07-.08-.31-2.79.87-3.84,3.45.35,4.14,2.47,2.19,5.94l2.78,2.77-.9.88c-2.4-1.09-4.75-2.24-4.94-5.55v1.6a2.86,2.86,0,1,1-5.72-.05v-.87a13.06,13.06,0,0,1-9.55-3.31c.33,1.75.54,2.89.88,4.73l-5.07-3,3.15-3.89c.12-.43.23-.86.34-1.29-4.79,1.72-8.63,1.1-10.91-4.61-.88,2.62-1.29,3.85-1.86,5.58-.31-.14-.59-.26-.88-.41l-.05,7a2.86,2.86,0,1,1-5.72,0v0C417,14.27,415.51,13,414,11.7l-.93.69c1.26,2.22,2,5.42,3.9,6.43,2.86,1.5,3.76,3.15,3.34,6h.07l-.07.05,4.9-1c.32,1,.61,1.93.83,2.63a8.24,8.24,0,0,1,2.82-.33c2,.5,3.89,1.26,5.82,1.93-.6.34-1.35,1.05-1.76.9-2.68-1.06-3.3.63-3.64,1.4l.39.44,5.38,0c.87-.85,1.85-1.8,3.24-3.18l-3.56.38,0,.06-5.7-7.1,7.33,2.5c-1.21-3.65-6.65-3.38-4.31-7.63,3.18,4,3.91,6.76,10,1.17a8.14,8.14,0,0,1-1.18,3.49c-1.37,2-1.16,3.59,1.27,4,3,.49,3.22,2.47,3.26,4.78,0,.52,0,1.09.05,1.62l4.05,0c.87-1.68-2.31-4.14-2.8-6.58,2.45,1.05,5,1.34,5.5,2.51a7.45,7.45,0,0,1,.09,4.09l8.11.06c.2-.92.4-1.78.6-2.7l7,2.65-.27.1,30.74.22c-2.3-1.44-4.74-2.8-8.12-2.46-1.68,1-1.68,1-3.56-1.58,5.08-1.5,13.25.6,17.76,4.08l3.95,0-2.26-4.44C506.12,28.75,506,29.52,505.9,30.75ZM714,8.61l-1.9-3.5-7.4-.05,8.37,4Zm-17-.09-5.72-.24V9.37c1.84.37,3.67.76,5.5,1.12.35.07.93,0,1.08-.16,1.34-1.74,2.63-3.53,3.93-5.29l-5.28,0C697,6.25,697.63,7.53,697,8.52ZM129.5,196.75c-.82-.67-1.73-1.26-3.39-2.44L126,204.85l10.41.08c-1.48-2-3-4-4.56-5.92A14.59,14.59,0,0,0,129.5,196.75ZM756.91,12.44c0,.19,0,.4,0,.59a64.56,64.56,0,0,0,7.5-.52c.7-.11,1.18-1.53,1.76-2.36a10.57,10.57,0,0,0-2.65.1C761.29,10.88,759.11,11.69,756.91,12.44ZM165.2,203.24c-2.83-.76-4.8-5.32-8.8-1.49a.92.92,0,0,1-.67.1V203a5.19,5.19,0,0,0,4.22-1.38l4.68,2.73Zm-128.09-79c.1-.24,1.25-.32,1.75-.12s1,.37,1.46.54l-7.63-16.72-14.54-.1,9.13.68c-.73.6-1.38,1.09-2,1.54,1,.56,1.92,1.09,2.88,1.63L23.78,113c-.08-.28-.17-.55-.25-.83l-1.6-.16c-2.75,1-4.41-.34-6.53-4.18l-6.07,0,1.61,3.54,11.72,3.19c-.11.57-.23,1.14-.34,1.71l-1.13.1,2,1-.6,1.45,3.12-.55s-.13-.91-.35-2.35c4,2.1,7.43,4,11.82,6.3-1.72.55-3.46,1.73-5,1.49-3.59-.59-7.15-1.4-10.7-2.23-.27.67-.54,1.34-.83,2,3.69.65,7,1.25,10.4,1.79C33.14,125.55,35.65,128.08,37.11,124.22ZM4.76,118.8a4.59,4.59,0,0,1-1.22,0c0,.14,0,.26,0,.39a17.6,17.6,0,0,1,2.94-.13A3.63,3.63,0,0,0,4.76,118.8ZM64.11,92.93,74,72l-14.88-.1a11,11,0,0,1,1.34.38A26.85,26.85,0,0,1,66,76c.15.12-.78,1.59-1.54,3.07-.86-3.65-2.34-4.69-5.23-4-3.38.78-4.7-.4-4.72-3.17l-3.85,0L39,96.53l22.89.16c.61-1.49,1.21-2.94,1.8-4.39Zm-3.28.13-8.53,2c-1.77-2.29.48-3.34,3.43-4.82l-8.56-.2c0-.4,0-.77,0-1.16L50,87.82c0-.22-.07-.45-.1-.68-1.63-.27-3.26-.53-4.89-.81C52,83.89,55.29,90.25,60.83,93.06Zm87.7,105.57a7.41,7.41,0,0,0,1.49,1.89v-1C149.57,199.23,149.1,199,148.53,198.63ZM703.32,30c-.72.31-2.2-1.15-3.34-1.79.12-.48.23-.95.34-1.43,3.79,3.19,4.93-1.23,7.25-2.11L716,32.1l.77-.84c-2.16-2.55-4.33-5.12-6.38-7.56l3.36,0c-1.69-1.64-3.65-2.44-5.43-3.52a4.71,4.71,0,0,1-1.68-2.37c-.09-.26,1-1,2-1.77L702,13.46c.9,2.65,1.58,4.39,2.08,6.19.4,1.48.58,3,.86,4.51-1.38-.28-3.07-.14-4.08-.9-3.3-2.51-6.44-5.23-9.61-7.9v2.15a2.82,2.82,0,0,1-.74,1.85l1.61-.07c2.95,5.5,2.95,5.5-4.45,6a13.79,13.79,0,0,0-1.47-3,20.54,20.54,0,0,0-3.31-2.56l3.52-.16a2.87,2.87,0,0,1-.89-2.07l0-4.18-.07,0a.86.86,0,0,0,.07-.1l0-3.1A7.07,7.07,0,0,1,684.18,8l-2.9,2.09c-.28-1.6-.55-3.18-.91-5.19l-10.81-.07,1.54,1.81-.79.86-2.87-2.69-5.82,0,0,5.7a.61.61,0,0,0,.07.14,110.54,110.54,0,0,0,7.09,9.5,14.58,14.58,0,0,0,2.39,2.25c.83.68,1.74,1.27,3.43,2.48l-7.35,1.56c-2.13-2.44-4.23-4.87-6.36-7.32a2.81,2.81,0,0,1-2.21,1.08,2.75,2.75,0,0,1-1.65-.6c.87,4.23-.83,9.36,5.49,12.41l-2.65.51,29.09.21-2.79-2.43c-.16-.7-.33-1.4-.49-2.11a16.73,16.73,0,0,1,4.21-1.08A3.05,3.05,0,0,1,692,28.93a26.58,26.58,0,0,1,.68,3.77l5.63,0a25.06,25.06,0,0,1-4.66-6.12l5-2.71c-1.87,5.5.3,7.42,3.13,8.86l9.29.06C709,30.76,707.21,28.28,703.32,30Zm-17.53-2c-1.25-.36-2.5-.73-3.77-1.08-.93.28-2.45,1.07-2.7.78a44.4,44.4,0,0,1-3.94-5.73,7.36,7.36,0,0,1-.44-2.32c.72,0,1.71-.33,2.11,0,1.93,1.66,3.71,3.51,5.53,5.29.2-.86.4-1.74.59-2.61.88.58,2.21,1,2.5,1.77C686.11,25.19,685.79,26.62,685.79,27.92ZM13.51,74l1.17-2.46-3.22,0,1.92,2.69A2.39,2.39,0,0,0,13.51,74Zm20,16.44A10.94,10.94,0,0,1,32.11,90l.12-1.53c1.28.27,2.57.52,3.84.81l8.29-17.51H42.18c.2,1.29-.69,2.89-.86,4.36l-3.93-.87c0-.27,0-.54,0-.81L40.73,73c-.22-.45-.42-.84-.62-1.24l-11.55-.08c1.16.62,2.32,1.25,3.48,1.86-.63.54-1.58,1.66-1.83,1.51a51.33,51.33,0,0,1-4.93-3.27l.08-.13-3.21,0-.34.27-.63-.27H21L18.45,77l2.6.89c-1.16.28-2.22.44-3.34.67L9.3,96.31l3.18,0-1.68-2c.86-.45,2-1.47,2.55-1.23a8,8,0,0,1,3.55,2.78c.06.09,0,.26-.07.44l15.83.11,2.69-5.68C34.75,90.68,34.15,90.58,33.55,90.46ZM23,73.63c.85.78.74,2.14,1.14,2.31,5.06,2.16.9,3.91-.56,5.77C23.39,79,23.2,76.33,23,73.63Zm3.59,6.17,9.15,4.73C32.42,83.91,27.48,86.59,26.59,79.8ZM10.64,60.24c0-3.16.06-5.41.08-7.66l-1.27-.13C8.18,53.83,6.9,55.2,5.63,56.57c1,1.57,1.49,3.31.87,4.31-1.07,1.72-2.59,3.63-5.52,2l0,2.81,9.15.07c-.65-.86-1.29-1.72-1.94-2.57l.9-1c1.51,1.16,3,2.3,4.48,3.54l3,0,0-3.18Zm12.12-8-.38,0v.26Zm8.65-18.54c1.15.8,1.92,2,1.72,4.29L29.06,37l1.33-1.86-1.16-1.54-6.72,0-.07,10.18c1.07,2.33,2.12,4.67,3.06,7,1.12,2.86,2.12,5.73.38,9.12-.58,1.14,1.82,3.84,3,5.75a17.66,17.66,0,0,0,2-1L32.21,66l14,.1.23-32.3ZM34.2,62l7-.76C39.24,65,37.56,65.21,34.2,62Zm2.58-2.24-5-4.05,7-1.09C38,56.62,37.36,58.22,36.78,59.71ZM45,47.36c-.87,1.23-1.48,3.15-2.63,3.57-8.2,3-11,2.28-14.85-3.53,3.2,1.07,5.79,2.77,8.22,2.57,2.85-.23,5.58-2.09,8.36-3.25ZM32.5,39.43l.21.41,4.09,2.54-1.85,2-2.24-4.53-1.18-.73Zm337.59-21H370a.14.14,0,0,1,0,.06ZM4.35,86.1a18.07,18.07,0,0,1,3.07.8l3.41-7.2c-1.21.16-2.42.35-3.61.48-.42.06-1.26-.67-1.33-1.12a2.43,2.43,0,0,1,.62-2C7.84,76,9.35,75,10.86,73.9c-.1-.7-.22-1.54-.35-2.37L.92,71.46.75,96.24l2.24,0,3.33-7C5.71,88.27,5.08,87.25,4.35,86.1ZM2.66,50.5l4.2,1.35c-.2-1.79-.32-2.87-.5-4.45l2.43,2.22c4-2,.21-4.3.44-5.55,1.4-2.06,2.3-3.5,3.35-4.85a2.17,2.17,0,0,1,1.58-.79c.41.06,1.12.92,1,1.26-.95,3.76-2,7.49-3.18,11.52l3.56,3.87-.62.55c-.71-.44-1.41-.87-2.12-1.29l-.33.49c.87,1.19,1.76,2.37,2.56,3.47l1.56-1.23,0-4.53a3,3,0,0,1-.45-.1c-1-.47-1-3.31-1.61-5.86l2.09.64.1-13.67-3.46,0A7.39,7.39,0,0,1,15,35.71c-2.91.46-5.94,1-9,1.32-.61,0-1.5-.9-2-1.6a6,6,0,0,1-.65-2H3A4.89,4.89,0,0,1,1.18,35.2L1.1,47.08c1.81.19,2.29,1.3,1.5,3.34h.06Zm.69,5.8c-.12-1.93-.44-3.87-.69-5.8l-.08,0s0,0,0-.06c-.51-.14-1-.27-1.52-.42l0,4.92a1.46,1.46,0,0,1,0,1.39l0,3.26.16,0c-.06.09-.1.17-.16.25l0,2.71L3.19,61A45,45,0,0,0,3.35,56.3ZM778.94,196.73l-.1,12.82,18.14.12,0-3.73-5.49,1.69c1-2.58,1.56-4.22,2.38-6.43l3.12,3.87.11-16.38c-.26.32-.75.46-1.74.22-3.91-1-8-1.88-9.73-5.52,2.93-.45,6-1,9-1.31.61-.06,1.49.9,2,1.59a4.29,4.29,0,0,1,.54,1.53l0-3.51-13.9-.1-1.88.6c-.09-.21-.18-.41-.28-.61L769,181.49l2.58.57-1.33,1.87c.79,1.06,1.47,1.94,2.14,2.83l.14.05a.09.09,0,0,1,0,.05c2.14,0,4.38-.38,6.39.12,2.73.66,6.57-1,8.48,4.29-4.67-4.89-8.4-1.89-12.57-.21l-2.3-4.2h-.1a.61.61,0,0,0-.07-.1c-2.58-.76-5.06-1.61-4.88-5.28l-148.43-1.07a19,19,0,0,1,1.14,3.53,7.71,7.71,0,0,1-2.76-2.13c-.42-.46-.83-.94-1.25-1.42l-144.66-1c.57,1,1.06,1.87,1.53,2.7l-1.32.48c-.34-1.06-.69-2.12-1-3.19l-17.91-.12,2.37.3c-.91,2.2-1.46,3.51-1.68,4.06-2-.85-3.69-1.56-5.37-2.36-1.1-.52-2.14-1.19-3.2-1.79l.14-.28-8.65-.05-.32,2.49-4.78-1.86.66-.67-20.64-.14c-1.26,1-2.29,2-2.84,1.84a4.67,4.67,0,0,1-1.86-1.88h-2c.31,1.63.61,3.35,1.61,4.39,2,2.08,2.42,3.38,0,6.52l13-3c1.19,4.11,1.19,4.11,3.24,2,1.79,1.94,1.72,5.94,6.61,5.37l-4.65-6.76c1.32.38,3.26.32,3.87,1.19,1.67,2.41,3.7,3,6.44,2.95,1.36,0,2.73,1,4.09,1.6-.09.37-.2.73-.29,1.1l3.41-1.2c1.22,3.63,0,6.09-3.24,8l3.57-1.15,4.42,4.25.07-9.8a2.86,2.86,0,1,1,5.72,0l0,6.65,3.36.3c.07-.25.15-.49.23-.74l-2.37-1.78.59-1.12c1.39.78,3.14,1.26,4,2.41.56.71,0,2.49-.38,3.68a23.44,23.44,0,0,1-1.63,3.44l5.44,0a4.9,4.9,0,0,0,1-1.7c-.78-.42-1.8-.63-2-1.17a4.43,4.43,0,0,1,0-2.81,2,2,0,0,1,1.82-.72c2,1,3.92,2.29,6,3.58L463.1,207l.69.3,12.6.09.09-12.81a2.87,2.87,0,1,1,5.73,0l-.1,12.82,5.87,0-4.36-2.95c5.31.17,5.83.69,4.92,3h2.52l1.34-1.28a8.58,8.58,0,0,0,.07,1.29l13.6.11v-.7l-12-1.75c.05-.41.11-.84.16-1.25,3.81-1,8,3,11.89,0l.06-9.09a2.86,2.86,0,1,1,5.72,0v2l.27-.21,4.53,5.55-1,1.37-3.83-1.21,0,5.27,7.67.05c-2.19-1.81-2.5-4.45-1.19-8.65.37-.07.75-.13,1.12-.18.61,2.9,1.23,5.83,1.86,8.85l3.64,0a7.76,7.76,0,0,0-1.64-1.89c.58-.19,1.23-.37,2-.6l-2.38-4.83c3.07-1.73,3.63-.13,3.91,2.35a8,8,0,0,0,2.57,5l6.43.05.1-12.81a2.86,2.86,0,1,1,5.71,0l-.09,12.81,23.95.17.1-12.81a2.86,2.86,0,1,1,5.72.05l-.1,12.8,24,.18.09-12.81a2.86,2.86,0,1,1,5.72,0l-.09,12.8,24,.18.1-12.81a2.86,2.86,0,1,1,5.71,0l-.09,12.81,7.34.05,2.23-1c.69.33,1.45.71,2.17,1.07l12.21.09.09-12.82a2.87,2.87,0,0,1,5.73,0l-.09,12.81,24,.17.09-12.8a2.86,2.86,0,1,1,5.72,0l-.09,12.81,23.95.17.1-12.81a2.86,2.86,0,1,1,5.71,0l-.09,12.81,24,.17.1-12.81a2.86,2.86,0,0,1,5.72,0l-.1,12.81,24,.17.09-12.81a2.86,2.86,0,0,1,5.72,0Zm-164.32,7c-6.36-1.06-7-.8-7.12,3.28q-.64-4-1.28-7.95C605.64,198.6,613.31,200.82,614.62,203.72Zm87.44,1.95c-.26.5-.53,1-.79,1.51-2.29-1.17-4.58-2.32-6.88-3.48.28-.42.55-.85.84-1.27Zm-9.44-21.21,6.34,4.28-.88,1.26-6.21-4.49ZM466.36,192c.73.06,1.4.69,2.36,1.21-4.42,2.19-11.68-.93-15.19-7.33,1.52.45,3.62.42,4.46,1.44C460.25,190.05,462.81,191.73,466.36,192Zm215.53,2.07c-4.95,3.45-4.95,3.45-6.47,1.35,2.05-.77,4.08-1.55,6.12-2.33Zm108.45-.2c-.51-1.49-1-3-1.92-5.6,2.1,1.2,3.56,1.68,4.37,2.69.3.38-.91,2-1.44,3Zm3.43-26.61c.21,1.78.33,2.86.51,4.45l-1.21-1.09,0,5.33,4.18,0,0-7.6ZM3,107.71l-2.13,0a7.82,7.82,0,0,1,1.76,2.22,6.24,6.24,0,0,0,1.29-.18ZM725.09,25.08c-2.24-.47-4.48-1-6.73-1.39a12.55,12.55,0,0,0-2.88.25l6.88,8.24c.43-1.18.69-2,1-2.72Zm68.52,5.36,1.25-3.67-6-2.45C788.43,27,788.43,27,793.61,30.44ZM370.26,6.31c-1.39,2.5-3.13,3.19-5.42,2.38l0,3.46,4.18.44-1.74,3.13c-.89-.49-1.69-1-2.45-1.38v.83a2.9,2.9,0,0,1-.86,2c2.07,1.31,4.32,2.17,5.62,1.78.2-.06.31-.39.46-.59h0c-.31-.82-1-1.74-.78-2.43a61.78,61.78,0,0,1,2.2-6l4.71-.31.65-1.37-3.4-2.37L378,3.47c-.14-.27-.29-.51-.45-.76l-12.63-.1,0,3.66ZM685.56,8l-1,0,1,.2Zm-1,0-.4-.08,0,.07h0A2.26,2.26,0,0,1,684.55,8ZM2.4,0c.23.29.45.56.68.82V0ZM3,10.83,3,7.58c-.58.22-1.14.42-1.67.63l0,2.9c.3-.3.6-.62.89-.92ZM335.18,7V8.8l2.81.14A24.5,24.5,0,0,0,335.18,7Zm45.17,19.59,1.58-1c-3.95-2-4.84-5.1-4.39-8.89.07-.55-1.62-1.84-2.5-1.83a6.87,6.87,0,0,0-3.47,1.53,7.11,7.11,0,0,0-1.48,2.07l3.6.8ZM295.66,8.15c1.15.06,2.2.11,4.12.18V6.19a4.19,4.19,0,0,1-2.5-3.91h0C297,4.34,292.37,5.36,295.66,8.15Zm1.63-5.9,0,.07a1.23,1.23,0,0,1,0-.19h-.18a1.43,1.43,0,0,1,.11.15A0,0,0,0,1,297.29,2.25Zm83,192-4.89,1c-.32-1-.62-1.92-.84-2.62a8.42,8.42,0,0,1-2.81.33c-2-.5-3.89-1.27-5.82-1.93.6-.35,1.35-1.06,1.75-.9,2.69,1.05,3.31-.63,3.65-1.4-1.59-1.78-2.6-2.9-3.57-4.06-.08-.1.13-.44.28-.85l2.73.6-1.12-1.57,2.14-4.23-17.58-.12s0,.09,0,.13c-.19.33-1.38.58-1.6.35s-.31-.33-.47-.5l-18.48-.13-3.93,3.89a13.33,13.33,0,0,1,1.5-3.92l-94.82-.67c.19,1.07.4,2.17.65,3.58l2.86.64c-.78,1.51-1.39,2.71-1.81,3.54l8,5.44c.69-.7,1.47-1.47,2.49-2.49,2.78,2.41,5.43,4.71,8.3,7.22.26-1.79.47-3.3.75-5.24.55.74.71,1.13,1,1.32,1.17.76,2.38,1.46,3.57,2.19l.57-1.07-2.35-2.52c1.2,0,1.79,0,2.38,0a5.7,5.7,0,0,0,1.85-.24c3.14-1.36,3.52-1.53,4.74,1.28a2.29,2.29,0,0,1,2.59-1l-4.54-6.24.94-.89c1.66,2.83,3.47,4.77,7.09,3.36.71-.28,2.47,1.92,3.64,3.08.7.7,1.05,1.94,1.84,2.31a61.91,61.91,0,0,0,6.17,2.09c-.05-1.85-2.87-4.48.92-6.1l1.33,4.59c.81-2.05,1.39-3.51,2.2-5.58,1,2,1.63,3.18,2.68,5.25.2-1.82.28-2.58.42-3.81,1.53,1.1,2.61,2,3.79,2.7l.63.4a2.77,2.77,0,0,1,1.83-1c-3.41-1.34-6.35-3.28-7.6-5.53,6.53-1.22,9.48,6,16.81,5.29,1.69-1,1.69-1,3.57,1.58-2.88.85-6.77.51-10.42-.54a2.9,2.9,0,0,1,.82,2v.93a9.6,9.6,0,0,0,5.57.64,32.23,32.23,0,0,1,4-.84,7.68,7.68,0,0,1,2.49.71,19,19,0,0,0,.42-3.16,22.47,22.47,0,0,0-.58-3.44l6.5.34c-.25,3.1-.44,5.53-.65,8.12l-4.18,1.21,6.66,4c.68-1,1.69-2.56,2.7-4.07a4.75,4.75,0,0,0,1,3.21l.05-7.43a2.86,2.86,0,1,1,5.72,0l-.07,9.22a25.58,25.58,0,0,1,3.13.92,10.14,10.14,0,0,1,2.57,2.08c-.21.21-.42.41-.62.63l3.84,0a6.59,6.59,0,0,1,1.05-3.42L341,200.23l.89-.89c2.46,1.12,4.9,2.27,5,5.75h.06l-.06,0s0,0,0,0c-2.35,0-2.47.61-2.06,1.34h2.54c-.13-.44-.26-.89-.41-1.32,3.66-.92,7.27-1.4,10.79-.15l.08-10.56c-2.36-.67-2.56-2.49-2.59-4.62,0-1.06-.07-2.12-.11-3.31-8.17,1.2-1.89,4.75-1.2,8.25-2.45-1-5-1.34-5.49-2.51-1.3-3,1.77-6.75-1.18-9.77.74-.55,1.45-1.49,2.23-1.55.93-.07,1.89.84,2.88.94,2.08.22,4.19.12,6.28.29,1.3.11,2.85.13,3.81.84a31.46,31.46,0,0,1,4.1,4.38l-4.18,4.09,3.57-.37,0-.06,5.7,7.1-7.34-2.51c1.22,3.66,6.65,3.39,4.31,7.64-2-2.52-3-4.55-5.06-4.3l0,5.2,2.84,1.71-.59.72,15.28.11c-.74-1.34-.49-2.33.43-3.79,1.43,1.22,2.93,2.53,4.43,3.83h1.55v-.41c-1.14-2.19-1.91-5.08-3.71-6-2.86-1.51-3.77-3.15-3.34-6,0,0-.05,0-.07,0Zm-40.73-3.46c-2.28-.87-4.28-1.61-7-2.65l8.32-3.15C340.4,187.17,340,188.88,339.59,190.78ZM202.12,205.4l5.39,0c.5-1.08,1.29-2.3,1.84-3.56A71.42,71.42,0,0,1,202.12,205.4ZM352,206.48h2.11C353.26,205.94,352.57,205.85,352,206.48Zm41.08.29h.12a.42.42,0,0,0-.12,0ZM233.31,196a43.64,43.64,0,0,0-4.75,1.78c-2,1.11-3.9,2.41-6.55,4.07,3.6.29,6.26,1.11,5.92,3.71l5.83,0-1.66-3.19C233.73,200.23,236.05,197.83,233.31,196ZM72.49,160.54A69.8,69.8,0,0,1,68,152.72l-1.82,1.09c1.18,1.89,2.49,3.7,3.48,5.67s1.78,4.35,2.65,6.53a5.6,5.6,0,0,1-3.2-2.7c-.89-1.54-1.41-2.58-3.8-2.82-3.41-.32-6.68-2.18-10-3.4-1.17-.3-2.62.36-4,.48l0,2.26c.65.18,1.19.17,1.49-.16,2.5-2.59,3.43-.61,5,1.08-.7.36-1.29.68-2,1.07l1.88,2.1c-.17.25-.33.52-.5.78l-5.82-2.45,0,4.11.4,0c2.44,0,4.9-.55,7.32-.37a5.36,5.36,0,0,1,3.19,2.09c.3.37-.22,1.42-.6,2.57l2.95,0c0-.65.07-1.26.11-2l6,2,4.6,0,.06-8.49A6.06,6.06,0,0,1,72.49,160.54Zm158.44,21c.39,1.33.06,3.08.82,4.09a25.58,25.58,0,0,0,7.5,6.5,2.77,2.77,0,0,1,.67-1.28l-2.21-1.38a4.47,4.47,0,0,1-1.68-1.43c-1-2.08-1.88-4.23-2.56-5.8.7-1.76,1.29-3.2,1.87-4.62l-9.86-.07c1.35.67,2.71,1.3,4.05,2A3.43,3.43,0,0,1,230.93,181.57Zm28.49,24.24,3.7,0-4.42-1C258.94,205.21,259.18,205.51,259.42,205.81Zm-221-53.07-6.09-3.21c-.05,1.91-.09,3.81-.13,5.79l5.71-1.6ZM751.6,9.47,752,8l-1.33-.29,0,1.47C750.94,9.28,751.28,9.37,751.6,9.47ZM230.27,191.06,225,183.19l3.41-.62L224,179.22c-.22,2.47-.41,4.69-.63,7.32l-3,1.48c1.23,2.67,2.44,5.28,3.63,7.9.39-.16.78-.3,1.18-.45-.31-1.07-.61-2.15-.87-3.07Zm7.4,14.59h1.12l-1.07-.24Zm-22.59-3.31v.41l.18-.22C215.19,202.46,215.13,202.41,215.08,202.34Zm29.73-7.58v.11l.21.1C245,194.89,244.87,194.84,244.81,194.76Zm-143.52-132c1.43,1.09,2.86,2.16,4.29,3.24l.23-31.81-24-.17-.19,26.52,4.09-3.32c.44,1.55.65,4.73,1.53,4.93a13.07,13.07,0,0,1,7.15,4.27l8.83.06-3-2.44ZM519.61,27.18a58.48,58.48,0,0,0-6.16-2.08c0,1.84,2.87,4.48-.92,6.1-.47-1.62-.84-2.88-1.33-4.6-.7,1.76-1.24,3.14-1.89,4.78l14.06.1c-.66-.64-1.35-1.44-1.92-2S520.41,27.56,519.61,27.18ZM425.18,3.05h-.94v.87ZM70.06,93.75l-.41.85.83,0ZM444.51,8.21c-1.65.12-2.79.22-4,.32,2,1.32,3.8,2.37,5.41,3.67.93.75,1.63,1,2.24.75l.05-8a5.22,5.22,0,0,0-.33-1.73l-8.23-.06-4.24.78C436.73,7.73,442.76,3.4,444.51,8.21ZM68.64,96.74h1.09l-.79-.65Zm26.23-8.19.84.53,8-16.88-5.56,0c.3.59.59,1.18.88,1.78.59,1.22,1,2.52,1.53,3.84-2.15-2-4.31-3.81-6.37-5.65L80.33,72,72.16,89.3a8.74,8.74,0,0,0,1.07,1.93,15.85,15.85,0,0,0,2.29,2h0c1.32-1.68,2.65-3.35,4.32-5.45,1,2.16,1.65,3.71,2.57,5.8l-6.89-.35s0,0,0,0l0,0c-1.76,1.27-2.52,2.43-2.67,3.52l6,0a12.41,12.41,0,0,1,4.48-2.18c2.27-.5,3.24.35,3.06,2.24l5.62,0,3.11-6.57C95,89.81,94.94,89.22,94.87,88.55ZM36.32,148.9c-.78-1.31-1.59-2.7-2.49-4.22,4.94-.58,4.84,3.1,6.32,5,.15.19.1.53,0,.92l2.7,1.18c.06-.34.11-.68.16-1L39,144.54c.33-.31,1-.91,2-1.85l-6.19-4.5-2.52,0c.78.93,1.54,1.87,2.38,2.88-.91,4.38-3.68,2.78-6.29,1.4-.08,1-.14,1.71-.26,3.22l-.37-.27c-.06.62-.13,1.28-.21,2l4.75,2.05c-.24-.83-.48-1.67-.77-2.66C33.09,147.48,34.7,148.18,36.32,148.9Zm-14.58-8.4v1.65l2.63.7C23.42,142.09,22.56,141.31,21.74,140.5Zm76.61-32.11,4.89,10.73c2.73.74,6.37-2.06,8.11,2.33.25.64-.3,1.59-.48,2.4l-.45,0c-.13-.9-.28-1.81-.37-2.38-2.17-.28-4.14-.52-6.09-.75L109.57,133h.08l4-1.56-.8,1.58,20.06.14-11.23-24.61Zm30.17,16.79c-4.18,2.66-9.29.27-12.66-6C120.35,121.29,124.36,123.21,128.52,125.18ZM32.25,149.44a.17.17,0,0,0,0,.07l.05,0v-.06ZM274.4,205.92h.2c-.05-.16-.13-.32-.19-.47ZM768.85,71.26l3.29,0-3.75-1.63C768.53,70.16,768.7,70.73,768.85,71.26ZM653.76,27.87c-.24,1.08-.49,2.17-.81,3.66-4-3.14-7.94-5.85-8.72-11.36-.49,1-1,2-1.42,2.86-3.7-.26-9.64-5.32-10.92-9.06l0,3.12a2.83,2.83,0,0,1-1.65,2.54A45.65,45.65,0,0,1,635.38,22c.61.34.51,2,.74,3a10,10,0,0,1-2.48-.39,11.12,11.12,0,0,1-2.75-1.72c-1.34-1.1-2.57-2.34-3.86-3.51l.16-.15a2.77,2.77,0,0,1-1.05-2.18V15.14c-.43-.27-.88-.52-1.28-.82a26.13,26.13,0,0,1-2.31-2.16c-.63.79-1.26,1.6-1.6,2-1.48-1.6-3.11-3.13-4.46-4.88a9.63,9.63,0,0,1-1-3l-.09-.1.06,0a1.3,1.3,0,0,0,0,.13c1.61,1.89,3.15,2.55,4.54-.77,2.13,2.3,4.15,4.51,6.17,6.69l0-3.08-2-3.31,2,.47,0-1.78-9.16-.06c0,.56-.58,1.14-1.65,1.7a4.93,4.93,0,0,0-1.57-1.73l-11.58-.08-.06,8.34c2.26-.5,4.44-.82,6.1-1.15l10.46,5.3-.69,1.34-5-2.35c-.05,1.4-.08,2.58-.11,3.54l-10.49-4.71c-.11.19-.21.38-.31.57V16l13.15,10.59-.31.15,5.79,3.17-6.71.69A4.1,4.1,0,0,1,617,32.15l4.26,0c1.15-1.4,3.92-.18,5.55-1.07-.12.36-.24.74-.37,1.11l2.82,0a3.62,3.62,0,0,0-.16-2.71,7.34,7.34,0,0,1,.08-2.75l0-.05-.06-.07L620.86,24c3.82-1.53,6.62-.74,8.21,2.69l.11,0,0,0,0,0a.29.29,0,0,0,0,.09,51.92,51.92,0,0,0,3.54,3.85,8.23,8.23,0,0,0,2.52,1c.08-.89.16-1.78.27-2.94,3.64.66,2.91,2,1.82,3.59l5.6,0a17.71,17.71,0,0,1,.82-3.37c.87.34,1.75.67,2.61,1,.7.28,1.4.56,2.08.89l3.15,1.51,5.51,0c-.9-1.82-1.66-3.33-2.39-4.81Zm114.57,41.7v.06l.06,0s0,0,0-.06Zm19.82,28.8c1.29.28,2.58.53,3.85.87a3,3,0,0,1,.42.14,26.85,26.85,0,0,1-4-2.1c-.74-.47-1-1.66-1.63-2.38s-1.84-1.11-1.93-1.6l-.92,1.94.9,1.3-1.39-.24-1,2.15c.54.12,1.06.25,1.6.36l.12.5-1.48.26c0,.06.09.17.14.23l-1.69,2.06,12.39.1-5.81-1.87ZM613.93,30.54s0,0,.06,0l.12,0-.15,0ZM764.15,65v2.38q2.08,1.11,4.19,2.2c0-1.91.08-3.81.13-5.79Zm-28-47.85c.74.36,2-.43,3.27-.75l-6.85-3.15-.62.63A24,24,0,0,0,736.1,17.14Zm-133.7,8.7a81.57,81.57,0,0,0,7.81,5.9c.73.44,2.44-.74,3.72-1.2-1.75-1-3.44-2-5.23-2.89A15.85,15.85,0,0,0,602.4,25.84ZM720.88,17v.76a2.79,2.79,0,0,1-.2,1l1.38.55c.2-.54.41-1.09.61-1.64Zm-6.44-.75.73.29V15l-.13,0Zm18.48-11H731c.33.49.63,1,1,1.47A4.75,4.75,0,0,0,732.92,5.26ZM274.49,193.85l.09-.07-.09-.12Zm-5.8,10.85v-2.44a4,4,0,0,1-1.47-.24c-1-.42-1.71-1.41-2.89-1.76C265.16,202.43,266.88,203.62,268.69,204.7Zm5.89-10.92h0l0,0Zm521.3-93.48a5,5,0,0,1,1.21,0c0-.13,0-.25,0-.39a16.75,16.75,0,0,1-2.95.13A3.81,3.81,0,0,0,795.88,100.3ZM304.08,205.16v1l9.39.06L312,202.54A8.35,8.35,0,0,1,304.08,205.16Zm-7.2-4.88a29.64,29.64,0,0,0-5.83-7c.32,3.57,2.62,6.62,2.11,10.23h0a13.39,13.39,0,0,1,.57,2.55l4.64,0,0-3.86A9.28,9.28,0,0,1,296.88,200.28Zm-7.49,4.84c-1-6-8-2.62-10-6.37.77-1.07,2.08-2.23,1.86-2.72-.61-1.4-1.61-3-2.9-3.61-.84-.38-2.44.9-3.7,1.42,0,0,0,0,0-.05l-.09.14,0,5.45a7.41,7.41,0,0,1,1-.61l-1,2.28,0,2,4,2.94h1.13l3-2.57c.19,1,.33,1.87.46,2.6l7.94.06a31.31,31.31,0,0,0,2.16-2.5Zm464.32-72.67-.92-2-2.13.84c0,.22.07.46.11.68Zm-485,64.46,0-3.84a1.91,1.91,0,0,1,.1-.53l-3.49-.14-1.84,3.88A7.93,7.93,0,0,0,268.74,196.91ZM739.8,126l8.54-2c1.76,2.28-.49,3.33-3.44,4.82l7.24.17-7.29-16-23.36-.16,5.26,11.54c2.68-3,0-5.47-3.09-8.07a7,7,0,0,1,4.09-.07,15,15,0,0,1,3.13,2.47c.53-1.29.94-2.32,1.56-3.85a15.72,15.72,0,0,1,2,1.77c-1.18,1.81-2.49,3.52-3.87,5.38l2.85,2.35c-1.39,0-2.17.09-3.22.14,1.15,2.35,3,4.72-.7,5.83l3.25,7.12,23.37.17L754,133.13C748.1,134.1,744.89,128.62,739.8,126Zm-6.58-4.49c.32-.19.63-.4.94-.59l4.66,1.33c-.62,1.53-1.24,3-1.84,4.52C735.73,125.07,734.47,123.31,733.22,121.55Zm23.35,50.84-.89-.64a22.8,22.8,0,0,1,2-3.13l.18-25.23-20.2-.14a3.57,3.57,0,0,0,3.73.85c3.8-.87,5.1.58,4.76,4.17-2.23-.5-4.27-.64-6-1.43a26.36,26.36,0,0,1-5.39-3.62h-.83l-.23,32.3,23.95.17,0-3.81C757.3,172.05,756.94,172.23,756.57,172.39Zm-15.15-18.86,4.61,1.61c-.28,1.25-.49,2.22-.77,3.45C740,157.41,739.91,157.32,741.42,153.53ZM377.56,183.94c-.34,2.38-.62,4.3-1,7,1.36-1.25,3.32-2.21,3.4-3.31.16-2,1.85-4.48-.8-6.35a7.07,7.07,0,0,1-2.36-2.63l-3.93,0C373.14,181.55,371.71,185.54,377.56,183.94ZM32.74,3.18l-3.63-.52a9.94,9.94,0,0,0,3.62,2.53ZM185.47,192.47h0l.15-.07-.18-.09A.76.76,0,0,1,185.47,192.47ZM421,30.75h2.7c.11-.81.24-1.65.37-2.61A30.23,30.23,0,0,0,421,30.75ZM111.53,34.24l-.24,32.3,24,.17.24-32.3Zm16.93,31.44-10-5.12C127.21,60.77,128.55,61.49,128.46,65.68Zm51.28,129.47c-3.8,1.5-6.59.7-8.17-2.7l-.11,0,0,0,0,0s0-.06,0-.09a47.91,47.91,0,0,0-3.54-3.84,8.18,8.18,0,0,0-2.51-1c-.08.89-.17,1.78-.28,2.94-5.18-.94-1.52-3.34-.52-5.61l-6.31-1.41,3.47-1.78c-2.36-1.62-4.52-3.14-6.74-4.52l-2.8,0c.28.59.47,1.31.94,1.61a14.56,14.56,0,0,0,3,1.12L154,180.94c1.38,1.87,2.93,3.37,3.67,5.2.43,1.06-.46,2.64-.75,4-.87-.34-1.74-.67-2.6-1-.7-.29-1.4-.57-2.08-.9-2.67-1.27-5.33-2.56-8-3.84,0-.23.09-.47.13-.7l7.72,1.18c-1.46-2.63-5.14-3.5-3.05-7.82l-14.34-.1a27.11,27.11,0,0,0,2.21,1.66c1.2.78,2.81.92,4.24,1.36.39.06.79.12,1.18.2-.81,2.94-4.89,2.16-6.33,4.48l-5.73-7.74H130c-.23.19-.47.36-.71.54.35.71.69,1.41,1.5,3.09a27.68,27.68,0,0,1-2.68-1.62c-.89-.77-2.74-1-3.25-2l-6.05-.05c.89.7,1.78,1.4,2.79,2.17l-4.08,2.11c-1.5-1.61-2.81-2.93-4-4.32l-5.28,0a6.87,6.87,0,0,0,1.9.49c3,.45,4.15,2,4.6,4.92-2.81,1-6.88,1.31-7.08-1.11s-1.73-3.16-2.85-4.33h-1.06c-.07.37-.16.72-.22,1l-2.95-1-20.08-.15a18.78,18.78,0,0,0,7.13,8.09c1.87,1.12,3.17,3.41,5.09,4.49a2.74,2.74,0,0,1,.86-.17,2.79,2.79,0,0,1,1.79.7,5.93,5.93,0,0,0,1.91-.51c.72-.31,2.2,1.15,3.33,1.79l-.33,1.44c-1.73-1.46-2.9-1.3-3.89-.65a.45.45,0,0,0,0,.11l0,3.22c1.22.16,2.54.17,3.38.81,3.69,2.82,7.21,5.89,10.78,8.89h.61a.86.86,0,0,1,0-.16l.53.17,8.57.06.06-8.3c-.77-.76-1.54-1.54-2.31-2.29-.21.87-.41,1.74-.6,2.62-.87-.58-2.2-1-2.5-1.78-.43-1.14-.11-2.57-.11-3.88l3.76,1.09c.55-.17,1.3-.5,1.88-.69a2.83,2.83,0,0,1,2.8-2.43,2.86,2.86,0,0,1,2.84,2.89l0,2.23,7.3-1.54L144.08,205h.28c.37-.78.55-1,.54-1.22,0-.51-.17-1-.26-1.51.33.92.69,1.83,1,2.74h2a3.62,3.62,0,0,1,1.31-2.28,34.53,34.53,0,0,1-2.11-4.94,22.82,22.82,0,0,1-.32-4.62l-1.17,0c-.25,3.06-.49,6.12-.74,9.18a15.66,15.66,0,0,1-.83-1.82c-1.4-4.38,1.09-10.05-5.7-13.33l5.16-1c1,2.09,1.84,3.7,2.65,5.31l.93-.23c.24-1.09.47-2.18.81-3.66,1.11.87,2.2,1.73,3.25,2.61a2.85,2.85,0,0,1,4.86,2.06l0,4.25a12.62,12.62,0,0,1,.64,2.44c.48-1,1-2,1.42-2.87,3.7.27,9.66,5.35,10.93,9.09l4.1,0c-.44-.49-.89-1-1.34-1.46l.72-1.2c1.18.74,2.41,1.43,3.53,2.25.17.14.32.29.48.43l3.19,0,.23-.29Zm-65.27,1.69a20.14,20.14,0,0,0,3.32,2.56l-9.23.41c-3-5.49-3-5.49,4.45-6A13.46,13.46,0,0,0,114.47,196.84ZM102,195.19c3.11-9.14-4.94-8.38-8.71-12,7.85,1.26,9.41,2.34,13.65,9.3Zm12.46-6.32c.17.7.34,1.39.5,2.09a16,16,0,0,1-4.22,1.1,3,3,0,0,1-2.14-1.88,66.53,66.53,0,0,1-1.16-7.47C110.24,185.13,112.36,187,114.49,188.87Zm50.77,8.23c-.61-.35-.52-1.95-.74-3a10,10,0,0,1,2.47.38,11.57,11.57,0,0,1,2.76,1.71c1.34,1.11,2.57,2.35,3.86,3.53l-.82.71A79.34,79.34,0,0,1,165.26,197.1ZM401.75,50.57l.69.21,0-2.7-5.68-5c-1-1.85-.89-5-2.19-6.83l-16-.12-.23,32.3,15,.1-6-6.13c3.51-.76,6.94,2.47,7.08,6.14l7.88.06.09-12.87C401.29,54.13,401.58,52.37,401.75,50.57Zm-13.06-9.92c1.55-1.1,2.8-2.54,3.44-2.3,1.07.39,1.74,1.85,2.58,2.86l-.95.8ZM379.26,58c1.38-3.61,2.76-3.59,6.54.43Zm23.26-17.8,0-3.87-4.66,0a2.69,2.69,0,0,1-.22.28ZM631,32c0,.09-.09.18-.14.27h.94v-.07C631.49,32.12,631.23,32,631,32Zm-27.4-1.73c-1.74-.06-3.41-2.59-5.2-4.06l-3.55,2.74A6.88,6.88,0,0,0,598.49,32l8.6.07A3.83,3.83,0,0,0,603.56,30.25ZM477.86,3.43h-.09l.09.12ZM485,6.67c4,2.15,4.12,2.8,1.81,5.37.65,1.68,1.2,3.09,1.77,4.53,3.82-4.61,12-3.22,15.16,2.25a29.2,29.2,0,0,0,5.83,7c-.31-3.42-2.41-6.36-2.14-9.77v-.61a9.78,9.78,0,0,1,.05-7.13l0-4.67h-1.35a7.22,7.22,0,0,1,.07,2c-.18,1.27-2.06,2.8-3.85.8L498.8,3.58l-15.22-.11,0,2.87A3.6,3.6,0,0,1,485,6.67ZM588.69,17.82c-.27-.92-1.61-1.52-2.47-2.27-.28.34-.55.69-.83,1L587,18.25c-.29,2.54-.92,4.54-.53,6.31.16.8,2.39,1.14,4.11,1.89.28-2.53.47-4.26.75-6.88-1.17,1.14-1.76,1.71-3.06,2.95C588.49,20.34,589,19,588.69,17.82ZM127.15,168c-1.26-2.44-2.7-3.74-5.84-2.58-3.57,1.29-6.41-.44-8.12-4.33.94.35,2.26,1.06,2.39.87,3.15-4.23,3.52,0,4,.64,3.25.55,6,.31,7.83,1.53s3,4,4.39,6.07c.25-.25.51-.49.77-.73-.89-3.09-1.78-6.17-2.58-9l-5.38-3.57c.21-.41.41-.82.62-1.22,3,.82,5.92,1.66,9.33,2.6l0-4.77q-.91-2.52-1.82-5c.21-.26.44-.51.65-.76l1.2.87.07-9.67-4.63,0c.2.53.37,1,.54,1.5-.84-.55-1.83-1-2.74-1.51l-6.69-.05a2,2,0,0,0,0,.83,4.54,4.54,0,0,1-2.41-.84l-1.64,0c-.21.29-.42.58-.64.86l-1.06-.87-4.66,0-.06,7.56a3.33,3.33,0,0,0,3.28-.72c.41-.28,2.82,1,2.86,1.71.09,1.31-.85,2.67-1.46,4.3-.55-1.44-1-2.47-1.1-2.9l-3.59-.18L110.54,171l7.3.05c-1.94-1.56-1.83-2.18-1.31-4.14l3.16,4.16,10.31.07-1.51-1C127.84,169.72,127.56,168.74,127.15,168ZM119,143.6l8.06,5.11C121.8,150.48,119.67,149.18,119,143.6Zm269.45,35.15-5.71,0-.56,1.53Zm-201.77,9.82-.06,0h-.13l.15.05S186.7,188.57,186.71,188.57Zm17.52-10.72c0-.14,0-.28-.07-.43l-5.26,0a10.9,10.9,0,0,0,1.13.79C201,178.76,202.81,178,204.23,177.85Zm282-11.52c1.13.25,2.19.5,3.23.72.33-.81.65-1.58,1.14-2.75l.17-22.83-23.95-.17-.19,26.22c2.33-.19,4.63-.39,7.21-.59-4.31,3.45-5.64,4.32-7.22,2.86l0,3.81,9.52.06c-.47-.34-.94-.67-1.38-1-.26-.24.4-2.23.64-2.24a19.52,19.52,0,0,1,4.49.57,7.16,7.16,0,0,1,1.83,1.15c-.62.53-1,.87-1.91,1.59h.48a17.4,17.4,0,0,1,3.84-.07c.08,0,.14.08.21.1l6.24.05,0-4C486.77,169.84,486.69,169.5,486.27,166.33ZM377.84,140.66l-.19,26.17c.13,0,.27.06.41.09a21,21,0,0,1-.42,3.35l0,0,0,2.67,14.53.1-10-11.53c2.81.87,5.79,1,6.15,2.06,1,2.88,3.17,2.85,5.26,3.42l0-.07h.05c.23-3.79.46-7.57.7-11.41.69,2.13.76,5.19,2.22,6.14,3.11,2.07,2.66,4.42,2.42,6.85L393.55,167v0c2.33,2.05,4.68,4.09,7,6.14h1l.23-32.3ZM81.65,62.71l0,3.61,6.76.05a1.14,1.14,0,0,1-.15-.16C86.22,63.88,84.45,62.22,81.65,62.71ZM265.56,109.6a10.13,10.13,0,0,1,3.56,3.58l-7.43-3.61-2.91,0h0a7,7,0,0,1-5.53,0l-6.55,0,1.3,2.84,4.73,1.91c-1,1.24-1.54,2-1.81,2.34,1.07,1.46,1.95,2.63,2.82,3.81l-.88.63a4.86,4.86,0,0,0-1.86-2.12l2.93,6.45.45-.59,5.57,4.45-.79,1-4.41-3.12,3.18,7,23.37.17-11.23-24.62Zm-94,82.85,8.17,2.67,0-2.7a2.8,2.8,0,0,1,1.46-2.42l-1.41-.76c3-.32,4.84-.51,6.71-.7-2.47-.36-3.56-1.86-3.86-4.34a37.08,37.08,0,0,0-1.33-5.2l-1.2,0,2.94-1.53a1.25,1.25,0,0,1-.16-.22l-23.37-.17-1.33.82,10.91,1.55c-.08,2.51-.16,5-.25,7.45l.8.21,3.07-6.24c4.64.11,7.1,1.25,7.2,3.81.17,4.63-3.95,2.13-6.1,3.28.33-1,.67-1.95,1.13-3.31-2.79.83-4.55,1.76-3.41,4.9a7.57,7.57,0,0,1-.09,2.75l0,.05A.55.55,0,0,0,171.57,192.45ZM86.15,140.84a5.58,5.58,0,0,1,.65.36,7.78,7.78,0,0,1-.47-2c2.16,1,4.11,2,6.9,3.27-.52-1.37-.85-2.82-1.21-3.9l-8-.06c0,.25.07.49.11.73A7.58,7.58,0,0,0,86.15,140.84ZM639.3,65l.44-.66.06-8.37c-3-2.35-6.12-4.52-8.74-7.38,3.61-3.39,3.35,2.3,5.07,1.4l3.73-2.11,0-7-8.4-1.2c0-.55,0-1.09.06-1.65L628,38a1.58,1.58,0,0,1-.13.26,22,22,0,0,1-3.07-.27l-6.17,0c.23.74.46,1.48.65,2.22l1.2,0-2.93,1.52c.44.53.65,1,.92,1.07,4.35.6,11.3-1.72,8,7.29,0,.07.11.21.37.67.74.11,2.28-.06,2.6.49a23.8,23.8,0,0,1,2.65,6.36c.14.56-1.48,1.78-2.5,2.28-.4.19-1.36-.79-2.06-1.24-.08-.31-.17-.63-.25-1l2.63-.14-.3-1-1.74-1.28c-3.1,1.87-5.45,3.64-8.08,4.69-1.07.42-2.61-.36-4-.74l-.08,11.09,11.83.08c-1.25-1.72-1.91-4.2-2.93-6.23.4-.23.79-.47,1.18-.71.85,1,1.73,2.06,2.6,3.12,5.72-7.29,8.44-8.4,11.16-5.12-2.18,4.7-6.63,3.82-11.15,5.12l3.21,3.85,1.73,0c.21-.91.35-1.55.49-2.19,1.07.34,1.9.59,1.76.54.2.61.36,1.15.51,1.66l3.56,0,0-5.08Zm71-11.17c-.29-1.18-.51-2.12-.76-3.13,1.14-.08,2-.12,2.85-.17l-2.3-4c4.84,1.33,10.46,1,11.89,7.33l-2.77,2c2.12.19,3.57.08,4.86.5,1.47.48,3.27,1.09,4.12,2.24.24.34.42.72.65,1.06l0-5.15c-.18-.46-.34-.93-.53-1.38a3.55,3.55,0,0,1,.54.3l0-5.44c-2.38-.79-4.72-1.59-7-2.39a1.57,1.57,0,0,1-.73-.86,24.57,24.57,0,0,0-3.49-6.1L705,38.5,704.9,52Zm-6,89.2,0,2a80.71,80.71,0,0,1,8.18,7.89c2.4,2.79,4.45,4.67,8.37,3l.35.93-6.26,5.08c-.44-1.55-.64-4.73-1.52-4.93-4.48-1-7.12-3.71-9.15-7L704,175.31l24,.17.24-32.3Zm21.39,23.33c-.13.45-.25.91-.39,1.36l-4.53-2.22,1.8-3.34C723.85,163.91,724.74,165.12,725.64,166.33Zm61.74.2L785.07,164l.61-.54c.58.34,1.15.69,1.71,1v-1.24l-1.83-2.47-7.69,6.09c2.52-.19,4.9-1,6.55-.23,1,.47,1,3.3,1.6,5.85l-5.24-1.59c.39,1.66.77,3.29,1.15,4.94l4.45,0c.31-1.13.62-2.28,1-3.44ZM511.84,201.36l1.5-.32-1.49-1.88ZM693.55,152c.4-.49.78-1,1.18-1.45,1.23,1,2.48,2,3.72,3l.08-10.55-18.91-.13a3.51,3.51,0,0,1,.14.69,20.87,20.87,0,0,1-4.06-.11,2.48,2.48,0,0,1-1-.61h-.09l0,4.14a17.36,17.36,0,0,1,2,2,19.94,19.94,0,0,1,1.8,3c-1.67-.71-2.93-1.25-3.86-1.7l0,4.38,7.66,3.94c-3.85-.1-6.2-.31-7.68-.85l-.13,17.39,23.95.18.15-19.62ZM7,188.66c-.09.27-.17.49-.26.75a2.7,2.7,0,0,1,.66,1.77V193l4.37,1.78C12.21,192.13,12.21,192.13,7,188.66ZM7.4,196a7.27,7.27,0,0,1,1.21-.15,11.76,11.76,0,0,0-1.21-.69Zm578.15-53.88-.23,32.29,23.95.17.23-32.29Zm73.82.53c-1.27,1.84-3.43,1.74-5.1,2l-1.54-2.06-7.83-.06-.23,32.3,24,.17.23-32.29ZM558.47,142c0,.09,0,.21,0,.3l-1.2.34c-.3-.23-.62-.44-.93-.66h-.5l-.08,10.58c2.08.11,4.16.26,6.22.47a27.45,27.45,0,0,1,3.09.67l-.09,1.58c-3.08-.05-6.16-.09-9.24-.21l-.14,19.2,24,.18.23-32.3Zm67.88.49c.64,1.22,1.24,2.39,1.93,3.7l-2.64,2.93c-2.53-3.06-2.64-3.29-.12-6.64l-10.29-.07-.24,32.3,24,.16.22-32.29ZM669.6,38.26l-2.17,0,2.15,2.9Zm88.87,22.89,0-3.4a9.21,9.21,0,0,0-5-.71A6.58,6.58,0,0,0,758.47,61.15Zm-.07,8.41,0-1.94c-.22-.08-.42-.18-.64-.27l-.15,1Zm-3.63-19c0-.27.05-.53.07-.8-3.53-2.34-7.12-4.6-10.53-7.1-.61-.46-.58-2-.62-3a6,6,0,0,1,.08-.94l-2.11,0-2.53,4ZM198.23,193.26a83.14,83.14,0,0,0-7.8-5.9c-.73-.44-2.44.74-3.72,1.21,1.74,1,3.44,2,5.22,2.88A15.9,15.9,0,0,0,198.23,193.26Zm566.7-122h1.76l-2.37-1Zm-99.3,62.65-9.8-21.48-23.36-.18,1.21,2.68c1.35-.45,2.68-.87,4.06-1.21.38-.1,1.24.52,1.43,1a46,46,0,0,1,1.34,5L635,117.8l.9,2,5.33,1.58-2.43,4.5-.28-.35,5.18,11.35,9,.07L654,135.2a8.28,8.28,0,0,0,.34,1.73l7.77.06c-.17-1.21-.34-2.36-.52-3.56A14.62,14.62,0,0,1,665.63,133.89Zm-14.94,1.52c.44-2,.81-3.67,1.23-5.58l4.09,2.81ZM430.11,74.55l-5.34,0c1.39.84,2.76,1.7,4.15,2.55Zm337.58,7.7,1-1c-.87-1-1.72-2.08-2.66-3.22a6,6,0,0,1,.34-1.08l-3.52,0-.61,1.3ZM77.29,189.65c-.57,1.46-1.16,2.92-1.75,4.39,2.25.47,4.48,1,6.74,1.38a13.19,13.19,0,0,0,2.88-.25l-6.88-8.25C77.85,188.11,77.59,188.88,77.29,189.65Zm697.63-88.74Zm-415.81-91,.05-6-4.08-.9.26-.38-7.34,0a21,21,0,0,0,8.39,5.39C357.83,8.38,358.72,8.87,359.11,9.86Zm428.53,58.6c-5.22-.59-10.52-3.12-15.76-1,1.54,1.17,3.34,2.51,5.14,3.84h0l11,.09,0-2.84C787.94,68.55,787.79,68.48,787.64,68.46ZM15.9,145.29a8.53,8.53,0,0,1-2.6-1C11,142.21,9,139.89,6.66,138l-6.22-.05,0,5.6a3.46,3.46,0,0,1,.65.55c3,3.19,7.68,6.06,11.94,6.55,1,.11,2,.3,3,.51l0-6.92C16,144.57,15.93,144.93,15.9,145.29ZM796.08,39.17l-2.05,0c0,.52,0,1.05,0,1.57A2.56,2.56,0,0,0,796.08,39.17ZM780,19.2a45.85,45.85,0,0,0,5.2,2.56c-1.91-2-3.38-3.46-5-5.1v1.5A2.81,2.81,0,0,1,780,19.2ZM.53,125.33v2.5a17.63,17.63,0,0,0,3.39,2.36,21.82,21.82,0,0,0,4.46,1.06,5.9,5.9,0,0,0,0,1l4.59,0C11.14,128.64,5.23,125.53.53,125.33ZM452.44,207.2l3,0-3-3.67Zm322.32-48c.58-1.14-1.83-3.84-3-5.75a16.18,16.18,0,0,0-2,.94l-6.2-5.73,0,6.44a8.85,8.85,0,0,1,2.93,2.09l-3,.32,0,2.92c.14-.34.28-.7.4-1l5,4.06-5.38.84,0,2.39c4.52-.83,6.85.62,9.73,5-3.19-1.09-5.78-2.77-8.21-2.57a9.14,9.14,0,0,0-1.54.31l0,6.28h1.39l.93-1c.17.35.33.67.51,1l12.25.09c-1.16-2.49-2.3-5-3.3-7.56C774,165.43,773,162.56,774.76,159.17Zm13-72.11c1.66,3,5.94,5.53,10,6.4l0-3.84a7.72,7.72,0,0,0-1.11-.71,21.91,21.91,0,0,0-4.47-1.06c.28-2.75-.85-4.1-2.48-5Zm6-15.62,1.38,0c-.46-.3-.9-.61-1.38-.87Zm.67,10.12a11.07,11.07,0,0,0,3.43,1.56l0-5.93-5.44,0L791.62,79A32.77,32.77,0,0,0,794.46,81.56Zm-524.35-75,0-4.61-6.49-.05C265.26,4.07,267.71,5.29,270.11,6.54Zm108,23.76c-1.78-1.95-1.71-5.95-6.6-5.37l3.78,5.49,5.51,0C380.11,28.3,379.79,28.57,378.12,30.3ZM22.28,65.89l2.24,0L22.29,65ZM299.82,2.14h-.58l.57.76Zm42.39,2c-.19-.58-.36-1.14-.53-1.71l-6.47,0V3.94C339.21,6.89,339.65,6.78,342.21,4.15ZM526.85,141.73l1.23,2.69-.91.39-1-.79L526,174l24,.17.23-32.29Zm10.58,27.4c-.42.14-.85.27-1.27.39-.72-1.87-3.21-3.42-.23-6.88C536.56,165.37,537,167.25,537.43,169.13ZM19.2,1.09l6.23.48c.05-.3.11-.61.16-.93L23.43.16l-5.68,0c.44.81.73,1.39,1,1.95C18.91,1.73,19.05,1.41,19.2,1.09ZM32.76.22H30c.78.69,1.6,1.47,2.71,2.5ZM185.38,205.28h2.4l-2.39-1.21ZM278.25,2.57,277.92,2l-2.05,0V3.71ZM3.49,112.41a15.27,15.27,0,0,1,.31,3.67l3.56,1.14L4.71,111.4A6.36,6.36,0,0,1,3.49,112.41Zm82.09-4.11c0,.51,0,1,0,1.54l-1.24-1.55-15.69-.11L79.9,132.8l6.4,0a6.09,6.09,0,0,0-2.7-2.26l.46-1.06,8.93.92a5.09,5.09,0,0,0-1.65,2.43l8.54.06-2.12-2.17A17.17,17.17,0,0,1,103,133h.27L92,108.34Zm3.59,16-.68,1.21-8.59-5.21c.18-.33.36-.65.54-1ZM652.1,20.47c-2.26-4.31-8.87-5.76-11.4-3L636,14.74l-.57,1.12c2.83.76,4.79,5.33,8.81,1.49.57-.56,3,.75,4.56,1.34A28.9,28.9,0,0,1,652.1,20.47Zm-.78-10.34c2.08,2.25,2.49,4.35.3,6.26a33.9,33.9,0,0,1,2.12,4.93,24.41,24.41,0,0,1,.32,4.63q.59,0,1.17,0c.22-2.77.44-5.52.67-8.28a2.15,2.15,0,0,1-.09-.44v-.89c-.68-1.81-1.42-3.59-2-5.44-.56-2-1-4.07-1.5-6.25h-2.48a12.7,12.7,0,0,0-.16,2.27A5.65,5.65,0,0,0,651.32,10.13ZM56.58,182.33c.34.06.68.14,1,.21l3.83-6.14-5.17,0,.07,0c.61.45.58,1.94.62,3A18.86,18.86,0,0,1,56.58,182.33ZM655.83,15.05a.56.56,0,0,0-.09.3,3.4,3.4,0,0,0,.08.46ZM784,41.24l-2.55-2.18-4.92,0q3.63,1.4,7.26,2.76ZM75,52.78c.12-.46.26-.91.38-1.37l.63.31L76.14,34l-24-.18L52,66.11l24,.17L76,54.11ZM59.21,65.57,54.61,64c.27-1.25.49-2.22.76-3.46C60.67,61.7,60.73,61.79,59.21,65.57ZM185.4,202.3l2.13,1c0-1.41.07-2.58.11-3.54l10.49,4.7.61-1.1L185.47,192.7ZM782.84,84.18l1.82-3.83-3.79-3,.74-.31h-1.16l-.12.27-1-.28h-2.13A21.31,21.31,0,0,1,782.84,84.18Zm-120.7,28.27,11.23,24.61,4.66,0,.29-.57,1.08.58,17.33.13-11.22-24.62Zm18.27,14.48c-1.24,1.86-2.35,5.1-3.77,5.25-2,.21-4.16-1.94-6.25-3.07.17-.34.34-.69.52-1l4.13,1.31-1.17-2.09,4.92-2.14C679.33,125.75,679.88,126.34,680.41,126.93ZM25.73,182.53c.19-.53.4-1.06.6-1.6-3.18-1.2-6.34-2.41-9.51-3.62q-.11.28-.21.54l2.76,2.38ZM764.8,62.71l-.63-.56v.29A4.85,4.85,0,0,1,764.8,62.71Zm-729,93.69c2.82,2.39,5.25,5.59,9.71,5.73l0-2.42C42.83,157.13,38.67,158,35.83,156.4Zm-12.21-8.61c.24-.43.49-.85.74-1.28l-2.65-1.76-.05,7.52a13.52,13.52,0,0,0,7.1-.64Zm-17,30.59c-2.26.26-3.38,2.71-1.9,7.68a19.67,19.67,0,0,0,1.78-3.74A21.44,21.44,0,0,0,6.59,178.38Zm202.79,20.91,0,.24s0,0,0,0ZM191.86,184c1.5,1.78,1.34,4.72,5.21,4.83,1.74,0,3.42,2.59,5.2,4.06l3.56-2.75c-1.48-2.94-6-4.53-10-3.63-1-1.26-1.95-2.4-2.88-3.55Zm-6.72-5.69c0,1.61-.08,4.19-.13,6.78l.78.22c.52-1.18,1.06-2.37,1.69-3.78l2.52.81c0-1,0-1.8,0-3.26,2.29,1.12,4.28,1.93,6.1,3,3.16,1.93,5.62,1.32,7.27-2l-.94-1.49a8.45,8.45,0,0,1-1.28,2.31c-1.6,1.47-2.56,1.09-3.21-1.1a5.29,5.29,0,0,0-1.55-2.46l-6.51-.05-.1.07C189,178.1,187.38,177.93,185.14,178.34ZM16,138.06h-1c.32.24.64.5,1,.75Zm.59-17.78c0-.16-.08-.33-.13-.49l1.49-.25-.14-.24,2.4-2.93c-2.23.19-4.49.37-6.73.57l2.58,5.68c1.43.24,2.8.49,4.12.73-.57-1-1.08-1.85-1.51-2.59ZM21.14,132c.23-.21.47-.43.71-.63l-5.23-7.61,3.19,7A4,4,0,0,1,21.14,132ZM8.21,119.72c.13.06.25.15.38.21l0-.08Zm54.37-7.62,3.74,4.69-3.95-8.66-9.82-.07c-.59,1-1.17,2.1-1.77,3.15l-1.31-1c.45-.7.91-1.4,1.36-2.11H49.37c0,.38,0,.74,0,1.16L48.45,108,39,108l10.12,22.18,9.46,1.06-1.13,1.42,5.77.05a2,2,0,0,1,.53-1.11c.24.38.55.75.83,1.12l9,.06-6.77-14.86C62,116.36,60.65,113.74,62.58,112.1Zm-4.46,9.24L50.4,116c.3-.45.6-.91.91-1.36l7.47,5.76Zm515,13.63c1-1.17,1.81-2.48,2.67-3.64l-8.92-19.57-17.19-.12a11.91,11.91,0,0,1,1.32,2.7l-5.19-2.73-2.31,0,1.81,4c3,1.17,5.06,3.11,5.14,5.47-1.15-.51-2.22-1-3.32-1.48l6.67,14.63c.71.67,1.39,1.36,2.08,2l22.21.16-.93-2Zm-.07-8.62c-.17.54-.32,1.08-.49,1.62-3.28-1-6.56-2.06-9.83-3.09.14-.44.27-.88.4-1.33Zm-8.66-5.45c-1.41-1.42-2.4-3.32-.26-5.12l6.06,4.39C568.41,122.28,566.38,123,564.34,120.9Zm-3,11c-1.5-1.78-1.36-4.92-2.17-8.5,3.43,2.33,3.57,7.47,8.43,4.94.64,2.55,1.18,4.71,1.92,7.64C566.1,134.42,563,133.83,561.36,132ZM176.87,72.73c.38,1.13-.34,2.08-2.25,4.59-.77-1.5-1.45-2.82-2.26-4.37.08-.1.15-.16.23-.25l-3.23,0-11.7,24.7,1.94,0,2.24-4.14,3.33,4.18,15.86.12,11.7-24.71Zm396.25,39.08,2.85,6.25,4.07-2.78,4.16,3.64-3.44,6.43c0-2.71,0-4.43,0-6.24l-4.18.24,4.16,9.13c2.18.54,2.78,3.89,4.17,4.67l-1.9.29,1.35,3,23.37.17L596.49,112Zm25.08,11c-6.66-1.79-7.75-3.39-5.11-6.66Zm64,14.13,4.65,0A8.64,8.64,0,0,0,662.19,137ZM467.38,69.1h1c-.32-.44-.64-.88-1-1.34ZM365.86,27.54c-1.36,0-2.73-1-4.09-1.6.1-.36.19-.74.29-1.1L358.64,26c-1.21-3.63.05-6.09,3.24-8l-3.56,1.14L345.69,7.07l-1.07.55c0,1.18,0,2.35,0,3.53-2.52-.25-5.4-1.49-6.69,2.39.77.41,1.79.63,2,1.16a4.46,4.46,0,0,1,0,2.82,2,2,0,0,1-1.81.71c-1.15-.59-2.27-1.26-3.41-1.95a2.8,2.8,0,0,1-2.5,1.51,2.87,2.87,0,0,1-2.84-2.88l.09-12.55-7.28,0c.45.18.94.37,1.48.54-1.11.65-2.28,1.11-2.88.7a8.56,8.56,0,0,1-1.44-1.26l-2.66,0c-.93,1.76-1.61,1.57-3.85,0l-7.32-.06V4.32a29.59,29.59,0,0,0,6.28,2.5c2.2.54,4.76-.34,7.17-.58.1.46.2.92.29,1.38-1,.45-2.7,1.55-3,1.23-2.87-2.75-3.9.13-5.4,1.57-.67.63-1.33,1.26-2.61,2.5,0-3-1.07-4.35-2.74-5.09l0,6,1.12.17-.15,1.26a5.77,5.77,0,0,1-1.1.1,2.81,2.81,0,0,1-2.76,2.26,2.86,2.86,0,0,1-2.84-2.88v-.47a5.76,5.76,0,0,0-6.16,1.85c-.53-1-1.1-2.09-2.25-4.34L299.74,13l0-4.51c-3.43,2.52-5.63,2.76-7.39-.46a7.79,7.79,0,0,0-1.54-1.61h0c.26,1,.52,2.11.75,3-1.87,0-3.63.44-5.09,0s-2.37-1.85-4.27-3.45l8.61.47V6.35l0,.05,0-.06s0,0,0,0c2.45-2.45.91-3.35-.71-4.31L280.66,2a47.29,47.29,0,0,1-2,5.27l-2.79-2-.05,6.2a7.87,7.87,0,0,0,1.59,1.82l-1.61.49v.76s0,0,0,.06c.71,1.44,1.35,2.75,2,4.13-2.73,1.53-3.48.43-3.81-1.55a3.09,3.09,0,0,1-1.11.21,2.86,2.86,0,0,1-2.83-2.88l0-4.06a10.9,10.9,0,0,0-3.39-1.55c-1.57-.38-3.65-1.62-4.12-3-.92-2.64-2.15-4-3.75-4.08h-.38a4.46,4.46,0,0,0-1.76.59l-.63-.61-9.86-.07v.47c.55.15,1.14.25,1.66.42a15.09,15.09,0,0,1-1.66,0l-.08,11.69a2.87,2.87,0,0,1-5.73,0l.09-12.55-23.95-.17-.09,12.55a2.86,2.86,0,0,1-5.72,0l.09-12.55-24-.18-.1,12.56a2.79,2.79,0,0,1-.52,1.54c6.14,1,6.74.71,6.91-3.32.42,2.65.85,5.29,1.27,7.94.57.44-6.76-1.69-8.27-4.49a2.78,2.78,0,0,1-2.26,1.17A2.86,2.86,0,0,1,181,13.85l.09-12.55-6.56-.06c.08.12.18.22.25.33.77,1.27,1.3,2.7,2.2,4.64l-6-5-4.77,0c0,.08,0,.17-.05.24l-1.65-.18s0,0,0-.07l-7.35,0,0,4.72c4.49-.45,8.94-.83,13,1.33l-9.56,4.44L157.11,9.9l0,3.77a2.86,2.86,0,1,1-5.71,0l0-6.56-1.78-.87c.59,0,1.19,0,1.78,0l0-5.14-24-.17-.09,12.55a2.86,2.86,0,1,1-5.72-.05L121.78.86,97.83.7l-.09,12.55A2.86,2.86,0,1,1,92,13.2L92.11.65l-24-.17L68.07,13a2.87,2.87,0,1,1-5.73,0l.09-11.85-1-.71-23-.17V.83l1.81,1-1.82,1-.07,10a2.86,2.86,0,1,1-5.72-.05l0-5.59-2.28-.74-4,2.81c-.19-.29-.39-.57-.59-.85,2-3.51,1.85-3.81-3.18-5.19-2,2-7.46,1.2-8.46-1.21-.26-.65-.53-1.28-.8-1.91L8.81.05,8.73,11.59l.39-.12c-.14.4-.27.74-.4,1.1v0a2.83,2.83,0,0,1-.65,1.73c-.45,1.19-.85,2.3-1.33,3.58C6,16.94,5.22,16,4.39,15a2.83,2.83,0,0,1-1.22-1.52l-.1-.13.07,0A3,3,0,0,1,3,12.56v-.64L1.33,14.36l0,2.37c.53.75,1,1.49,1.62,2.33a3.84,3.84,0,0,1-1.64.55l-.05,8.11,6.62.05a24.7,24.7,0,0,1,1.42-2.64l1,.11c.27.8.54,1.6.87,2.55l329.94,2.38a10.82,10.82,0,0,0-6.84-3.05c-.72-.05-1.39-.7-2.35-1.21,3.63-1.81,9.17,0,13,4.29l27.31.19C370.55,28.09,368.55,27.52,365.86,27.54ZM322,9.16c.78-4,3.2-5,6.94-4.51-.06,1.33-.11,2.52-.18,4l-4-1.23c.08,1,.15,1.81.3,3.49Zm-9.8,2.19c1.05.7,2.58,1.76,4.81,3.25C311.47,14.43,311.12,13.89,312.21,11.35ZM129.92,1.6l7.22,2.57-.38,1C134.32,4.93,131.33,6,129.92,1.6ZM98.58,13.44c.26-.5.52-1,.79-1.51,2.29,1.16,4.58,2.31,6.87,3.48-.27.41-.55.84-.83,1.25Zm244.1,1.87a31.64,31.64,0,0,1,2-4.07l0,0,.08,0a.59.59,0,0,0,0,.08l5.74,7-5.59-.49c-.08.24-.15.49-.23.73l2.37,1.78c-.2.38-.4.74-.6,1.11-1.39-.76-3.13-1.24-4-2.4C341.73,18.29,342.28,16.5,342.68,15.31Zm-63.56-5.16c4,1.8,4.9,4.62,3.24,9.93-.37.06-.74.13-1.11.18ZM284,16.91c.33-.46.67-.92,1-1.36,1.46.44,2.91.9,4.38,1.36l-.26.77-1.8.39c.93,1.17,1.77,2.24,2.63,3.31l-1.43,1.07ZM119.1,26c-.12-.32-.23-.65-.35-1,4.94-3.44,4.94-3.44,6.46-1.35ZM474.32,74.87c.14.15.28.34.41.5l-1.22.89-1-1.41-6.41,0-11.7,24.7,23.38.17L489.46,75Zm-2.79,13.26c0-.46-.11-.93-.17-1.39l6.75-.66C476.31,88.64,474.16,90.09,471.53,88.13Zm107.7-20.54c-.32-.45.07-1.4.16-2.47.36.41.65.73,1,1.13l.09-12.53a14.15,14.15,0,0,1-3.52-2.3,49.44,49.44,0,0,1-4.47-5c-2.6,1.63-4.05,0-4.92-4l8.29,1.84c.41,1.8.71,3.09,1,4.37l1.25.11,1-4.57c.52.57,1,1.08,1.41,1.58V44.16c-3.16-1.53-6.32-3-9.44-4.62a3.52,3.52,0,0,1-1.4-2h0l-2.81,0c-.64,1.59-1.21,3-1.75,4.34l-.78.34c-.23-1.3-.47-2.6-.78-4.34l-1.73-.38-5.22,0-.23,32.3,24,.17V69C580,68.55,579.58,68.09,579.23,67.59ZM615.86,54.1l0,3.53,4.59-.41ZM576.62,23.19c-.39.14-.78.3-1.17.45.3,1.07.61,2.14.87,3.06l-6,1.34,2.56,3.8,5.7,0,1.62-.8ZM348.84,45.68v2c.37-.47.77-1,1.15-1.51Zm169.41,18c0-1.28,0-2.72,0-4.41a24.35,24.35,0,0,0,2.78,2.15l.07-9.8c-4.24-2-8.5-4-12.71-6.09-.57-.28-.89-1.1-1.2-1.73-.06-.14.51-.83.65-.78a8.56,8.56,0,0,1,1.86.82c1.41.76,2.78,1.59,4.19,2.33,2.4,1.26,4.82,2.5,7.23,3.74l.09-12.7-24-.16-.23,32.29,23.95.17,0-5.48Zm-13.42-5.48a23.77,23.77,0,0,0-4-.41l.18-1.28c3,.75,7.07-1.17,8.74,3.62A45.09,45.09,0,0,0,504.83,58.17Zm-2.33,4,.33-1.25c2.06-.4,4.58-2.38,5.47,2.54ZM606.82,46.89c-.51-.21-.75-1-1.19-1.4-1.63-1.59-3.1-3.45-5-4.57-1-.58-2.78.18-4.21.33l.24,1.36,2.08-.31c.38,1.77.72,3.31,1.09,5l3.31-2.85c-.11,2.31-.64,3.93-.1,5s2.16,1.85,3.68,3l-5.28.66c.19,1.36.35,2.48.65,4.58-1.8-1.55-2.75-2.35-3.9-3.33-2,2.34-4,3-6.62-.16l4.73-1.46.09-1a9.12,9.12,0,0,0-3-.12c-1.75.5-2.89,1-3.46-1.62a4.32,4.32,0,0,0-3.65-3.69v2.08c.93,1.59,1.95,3.28,3.19,5.36-1.2.06-2.24.18-3.24.28L586.07,70l23.95.17.16-21.86C609.06,47.81,607.94,47.37,606.82,46.89Zm62.7,3.19c-.23-.4-.46-.79-.71-1.15l-.77.74c.48,1.7,1,3.38,1.45,5Zm54,14.07,1.24.69c0-.11,0-.19,0-.31ZM491,44.84c-.15-.45-.29-.88-.44-1.32l.94-.29.05-6.26-23.95-.17,0,3.34,3.32-3.29a11.77,11.77,0,0,1-3.34,6.25l-.07,8.63,1.42,0c0,.23,0,.46,0,.69l-1.46.42,0,3.4a16.85,16.85,0,0,0,4,2.95c3.34,1.52,3.78,2.53.76,5.56a18.72,18.72,0,0,0-4.81-5.49l-.05,6.52L472,69.13l19.32.14L491.5,45Zm-1.23,8.58c-.3.46-.6.93-.88,1.39l-7.6-5,.54-.85C485,49.55,488.51,49.52,489.78,53.42ZM.26,163.21v.29c3.65.8,7.05,1.56,10.44,2.33C7.61,163.38,4.54,160.76.26,163.21Zm670.89-81.3-.46,1c.32.15.63.29,1,.43C671.47,82.8,671.3,82.33,671.15,81.91ZM.21,170.24h2l-1.95-.43ZM335.15,11.11v2.14l2.4-1.13ZM1.7,192.56a6.6,6.6,0,0,1-1.64-1.88L0,199.32A25.69,25.69,0,0,1,1,204h.39l.24-.66Zm632.69-116L636.9,78l.92-2-23.36-.17-11.7,24.71,23.36.17L635.94,80C634.7,79.4,634.22,78.27,634.39,76.6ZM359.51,80.8l.32-.58c1.52,1.1,3,3.06,4.55,3.12a8.06,8.06,0,0,1,1.88.29l4.49-9.48-.12,0L347.4,74l-11.7,24.7,23.37.16,5.64-11.93ZM.08,188.58V190c.35-.59,1.25-1.44,1.75-2.09A7.8,7.8,0,0,1,.08,188.58Zm.54-75v1.84a15.1,15.1,0,0,0,.18-1.89ZM141.2,34.45,141,66.74l23.95.18.24-32.3ZM589,75.69c1.29,1.3,2.57,2.62,3.85,3.92-.2.33-.4.67-.61,1-1.34-.65-3-1-4-2a27.65,27.65,0,0,1-2.56-2.94h-.9l-11.69,24.71,5.63,0a7.65,7.65,0,0,1-.77-1.17l7.08.82c-.11.15-.24.26-.35.4l11.77.09,11.7-24.71Zm135.71,2.92-1.17-2h-2.07L720,78.21A6.74,6.74,0,0,1,724.68,78.61Zm-30-1.9a2.38,2.38,0,0,1-.5-.26l-20.33-.14L672.1,79.9c2.31,1.19,4.4,2.47,2.44,6l-5-.52L662.1,101l23.37.16,10.74-22.68A2.09,2.09,0,0,0,694.64,76.71Zm-15.2,2.75c5.63.7,1.63,4.32,2.91,6.35C674.36,86.05,680,81.89,679.44,79.46Zm5.33,20.5-12.65-6C676.29,91.26,681.41,93.66,684.77,100Zm7-14.18L687,87.65l1.67-3.29L683,80.94l1.09-1.48C686.5,81.4,688.87,83.36,691.81,85.78Zm31.48-1.6h-.11l.05.11Zm-61,.4.46-1.24L660,78.23l5.45,2.37,2.06-4.35-4.69,0-.38.61-1-.61-17.24-.13-11.71,24.7,23.37.17,7.7-16.26ZM657.72,94l-9.3-3.77C652.86,88,657.23,90,657.72,94ZM276.39,109.67l11.22,24.62,23.37.17-11.22-24.62Zm14,9.3c-4.16.26-5.61-1.5-5.35-5.21C286.65,115.33,288.26,116.92,290.38,119ZM798.07,56.78l0-1.69-4.18-.93v1.89A6.32,6.32,0,0,0,798.07,56.78ZM259.9,35.31l-.23,32.3,23.95.16.23-32.29Zm4.8,21.15c-.63-2.73-1.06-4.61-1.5-6.49l1.28-.39C265.19,51.45,267.68,53,264.7,56.46ZM792,23.21a10.81,10.81,0,0,0,2.88,1.43,12.21,12.21,0,0,1,2.91,1c.16.12.31.26.48.38l.06-8.37C797.23,20.78,795.94,23.16,792,23.21ZM133.66,166.33a3.64,3.64,0,0,0,.87.18l.06-8C132.06,161.24,131.63,165.42,133.66,166.33ZM390,113.57c-3.13-.06-3.06-1.59-2.95-3.1l-21.67-.16,11.22,24.62,23.37.17-10.29-22.56C389.81,112.88,389.92,113.21,390,113.57Zm4.4,17.72c.07.48.14,1,.22,1.42-1.52.3-3.14,1-4.54.74-.85-.18-1.37-2-2.42-3.65ZM320.86,45.38c-.65,0-1.15.06-1.69.11v1.3Zm474.42,2c.13.45.83.84,1.35,1s1,.25,1.5.36l0-3.7a3.82,3.82,0,0,0-2.48.64A2,2,0,0,0,795.28,47.4ZM306.06,109.88l11.23,24.62,23.36.17-11.22-24.62ZM329.11,131c.05.47.11.93.16,1.4l-6.75.65C324.32,130.47,326.48,129,329.11,131ZM795,162.53c-.94-1.58-1.49-3.31-.87-4.31.75-1.19,1.73-2.48,3.24-2.63l.08-11.92-4.19,0-.14,20.91C793.75,163.88,794.38,163.21,795,162.53Zm-14.17-49.22,3.75,8.2c.37-.51.79-1.07,1.11-1.59,2.33,2.71,3.24,3.75,4.15,4.8-.87.46-2,1.48-2.55,1.24a8.8,8.8,0,0,1-.93-.53l5.7,12.49,5.43,0,.18-24.53ZM796.29,133c-1.35-.4-2.88-.37-3.51-1.11-2.91-3.39-3-4.72-1.16-6.32ZM335.74,110.1,347,134.71l23.36.18L359.1,110.27Zm461.57,53,0-2.95a22.16,22.16,0,0,0,0,2.69A2.11,2.11,0,0,0,797.31,163.06Zm-486.17-111-1.51,3.59c-.48-2.75-.8-4.54-1.12-6.33,2.9,0,4.22-.06,4.91.49l.1-14.12-23.95-.17-.23,32.3,24,.17.11-15.43Zm-9.63-3.27-.06-1.06c1.27-.27,2.85-1.12,3.73-.65s1.27,2.25,1.86,3.45l-1.24.81Zm3.94,14.37-7.7-1.71C302.34,58.52,303.65,58.92,305.45,63.16ZM140.22,170.41v.84l3.22,0a7.48,7.48,0,0,0-2.24-.85A4.62,4.62,0,0,0,140.22,170.41Zm20.32,1,3.63,0,0-2.09Zm40-136.51-.22,32.29,24,.18.23-32.3ZM140.31,158.94l-.05,7.14.16,0,5.83,5.23,8.7.06c.17,0,.31,0,.48-.06C148.21,169.26,144.38,164,140.31,158.94Zm33.44,9.53c-.73-.12-2.27.06-2.59-.5a24.89,24.89,0,0,1-1.22-2.42l-.05,5.91,3.57,0a16.27,16.27,0,0,1,.67-2.36C174.16,169.06,174,168.92,173.75,168.47Zm622-135H796a2.7,2.7,0,0,0-.08-.41C795.87,33.19,795.81,33.3,795.73,33.44ZM170.88,34.67,170.65,67l23.95.17.23-32.29Zm12.3,2.62c1.4,1.54,2.68,3.2,4.21,4.6,1,.88,2.31,1.37,4.42,2.56-7.5.23-10.14-3.74-11.39-9.29A8.26,8.26,0,0,1,183.18,37.29Zm47-2.2L230,67.39l23.95.17.24-32.29Zm16.71,29.06c.45,0,.81,1.25,1.22,1.91a7.56,7.56,0,0,1-2.23.6c-2.44-.08-4.88-.3-7.31-.55a30.18,30.18,0,0,1-3.08-.66c0-.53.06-1.07.09-1.59C239.4,63.93,243.17,63.93,246.93,64.15ZM340.23,68c.09-1.13.17-2.25.29-4l2.45,3,.23-31.17-23.95-.17-.06,7.17a9.87,9.87,0,0,1,2.33.72,18.85,18.85,0,0,1,4.35,2.87c.27.23-.39,2.23-.63,2.24a20.69,20.69,0,0,1-4.5-.57,5,5,0,0,1-1.58-1L319,68l19.22.14c0-.32,0-.63,0-1ZM324.48,41.49c.15-.32.3-.66.46-1l5.24,1.17c-1.15-2-1.88-3.32-2.62-4.61l1.31-.49c.75,2.3,1.49,4.61,2.25,6.91l-1.14.76Zm11.23,9.95-9,.74C332.46,47.6,332.94,47.56,335.71,51.44Z"/></g></g></svg>