<?xml version="1.0" encoding="utf-8"?>
<!-- Generator: Adobe Illustrator 22.0.0, SVG Export Plug-In . SVG Version: 6.00 Build 0)  -->
<svg version="1.1" id="Capa_1" xmlns="http://www.w3.org/2000/svg" xmlns:xlink="http://www.w3.org/1999/xlink" x="0px" y="0px"
	 viewBox="0 0 360 57.7" style="enable-background:new 0 0 360 57.7;" xml:space="preserve">
<style type="text/css">
	.st0{fill:#FFFFFF;}
	.st1{fill:#1E1E1E;}
</style>
<title>huella_1</title>
<g id="Capa_2_1_">
	<g id="Layer_1">
		<rect class="st0" width="360" height="57.7"/>
		<polygon class="st1" points="127.9,14.4 115.9,14.4 112.2,20.9 118.7,30.4 		"/>
		<polygon class="st1" points="112.9,14.4 100.9,14.4 97.2,20.9 103.7,30.4 		"/>
		<polygon class="st1" points="68,14.4 56,14.4 52.3,20.9 58.8,30.4 		"/>
		<polygon class="st1" points="53,14.4 41,14.4 37.3,20.9 43.8,30.4 		"/>
		<polygon class="st1" points="83,14.4 71,14.4 67.2,20.9 73.8,30.4 		"/>
		<polygon class="st1" points="97.9,14.4 86,14.4 82.2,20.9 88.7,30.4 		"/>
		<polygon class="st1" points="142.9,14.4 130.9,14.4 127.1,20.9 133.6,30.4 		"/>
		<polygon class="st1" points="217.7,14.4 205.7,14.4 202,20.9 208.5,30.4 		"/>
		<polygon class="st1" points="187.8,14.4 175.8,14.4 172,20.9 178.6,30.4 		"/>
		<polygon class="st1" points="202.8,14.4 190.8,14.4 187,20.9 193.5,30.4 		"/>
		<polygon class="st1" points="157.8,14.4 145.9,14.4 142.1,20.9 148.6,30.4 		"/>
		<polygon class="st1" points="172.8,14.4 160.8,14.4 157.1,20.9 163.6,30.4 		"/>
		<polygon class="st1" points="24.6,11.8 27.1,7.4 15.1,7.4 12.6,11.8 		"/>
		<polygon class="st1" points="38.1,14.4 26.1,14.4 22.3,20.9 28.8,30.4 		"/>
		<polygon class="st1" points="232.7,14.4 220.7,14.4 217,20.9 223.5,30.4 		"/>
		<polygon class="st1" points="247.7,14.4 235.7,14.4 231.9,20.9 238.4,30.4 		"/>
		<polygon class="st1" points="292.6,14.4 280.6,14.4 276.9,20.9 283.4,30.4 		"/>
		<polygon class="st1" points="299.6,7.4 297,11.8 309,11.8 311.6,7.4 		"/>
		<polygon class="st1" points="277.6,14.4 265.6,14.4 261.9,20.9 268.4,30.4 		"/>
		<polygon class="st1" points="262.6,14.4 250.7,14.4 246.9,20.9 253.4,30.4 		"/>
		<polygon class="st1" points="57.1,7.4 45.1,7.4 42.5,11.8 54.5,11.8 		"/>
		<polygon class="st1" points="39.5,11.8 42.1,7.4 30.1,7.4 27.6,11.8 		"/>
		<polygon class="st1" points="23.1,14.4 11.1,14.4 7.3,20.9 13.9,30.4 		"/>
		<polygon class="st1" points="295.6,14.4 291.8,20.9 298.3,30.4 307.6,14.4 		"/>
		<polygon class="st1" points="281.6,7.4 269.7,7.4 267.1,11.8 279.1,11.8 		"/>
		<polygon class="st1" points="251.7,7.4 239.7,7.4 237.2,11.8 249.2,11.8 		"/>
		<polygon class="st1" points="266.7,7.4 254.7,7.4 252.1,11.8 264.1,11.8 		"/>
		<polygon class="st1" points="296.6,7.4 284.6,7.4 282.1,11.8 294.1,11.8 		"/>
		<polygon class="st1" points="72,7.4 60,7.4 57.5,11.8 69.5,11.8 		"/>
		<polygon class="st1" points="117,7.4 105,7.4 102.4,11.8 114.4,11.8 		"/>
		<polygon class="st1" points="146.9,7.4 134.9,7.4 132.4,11.8 144.4,11.8 		"/>
		<polygon class="st1" points="236.7,7.4 224.7,7.4 222.2,11.8 234.2,11.8 		"/>
		<polygon class="st1" points="87,7.4 75,7.4 72.5,11.8 84.5,11.8 		"/>
		<polygon class="st1" points="102,7.4 90,7.4 87.4,11.8 99.4,11.8 		"/>
		<polygon class="st1" points="131.9,7.4 119.9,7.4 117.4,11.8 129.4,11.8 		"/>
		<polygon class="st1" points="206.8,7.4 194.8,7.4 192.3,11.8 204.3,11.8 		"/>
		<polygon class="st1" points="221.8,7.4 209.8,7.4 207.2,11.8 219.2,11.8 		"/>
		<polygon class="st1" points="161.9,7.4 149.9,7.4 147.3,11.8 159.3,11.8 		"/>
		<polygon class="st1" points="176.8,7.4 164.9,7.4 162.3,11.8 174.3,11.8 		"/>
		<polygon class="st1" points="191.8,7.4 179.8,7.4 177.3,11.8 189.3,11.8 		"/>
		<polygon class="st1" points="8.1,14.4 0.4,14.4 0.4,27.9 		"/>
		<path class="st1" d="M87.2,33.7h-12c0,0,0,0.1,0,0.1l-9.9,17h12L87.2,33.7z"/>
		<path class="st1" d="M72.3,33.7h-12c0,0,0,0.1,0,0.1l-10,17h12L72.3,33.7z"/>
		<path class="st1" d="M117.2,33.7h-12c0,0,0,0.1,0,0.1l-10,17h12L117.2,33.7z"/>
		<path class="st1" d="M102.2,33.7h-12c0,0,0,0.1,0,0.1l-10,17h12L102.2,33.7z"/>
		<path class="st1" d="M42.3,33.7h-12c0,0,0,0.1,0,0.1l-10,17h12L42.3,33.7z"/>
		<path class="st1" d="M57.3,33.7h-12v0.1l-10,17h12L57.3,33.7z"/>
		<path class="st1" d="M192.1,33.7H180c0,0,0,0.1,0,0.1l-9.9,17h12L192.1,33.7z"/>
		<path class="st1" d="M177.1,33.7h-12c0,0,0,0.1,0,0.1l-9.9,17h12L177.1,33.7z"/>
		<path class="st1" d="M27.4,33.7h-12c0,0,0,0.1,0,0.1l-9.9,17h12L27.4,33.7z"/>
		<path class="st1" d="M207,33.7h-12c0,0,0,0.1-0.1,0.1l-9.9,17h12L207,33.7z"/>
		<path class="st1" d="M132.2,33.7h-12c0,0,0,0.1,0,0.1l-10,17h12L132.2,33.7z"/>
		<path class="st1" d="M147.1,33.7h-12v0.1l-10,17h12L147.1,33.7z"/>
		<path class="st1" d="M162.1,33.7h-12c0,0,0,0.1,0,0.1l-9.9,17h12L162.1,33.7z"/>
		<path class="st1" d="M2.4,50.8l10-17.1h-12l0,0v17L2.4,50.8z"/>
		<path class="st1" d="M344.7,33.7L344.7,33.7l-10,17.1h12l10-17.1L344.7,33.7z"/>
		<polygon class="st1" points="355.5,14.4 351.7,20.9 358.7,31.2 360,31.2 360,14.4 		"/>
		<polygon class="st1" points="359.5,7.4 356.9,11.8 360,11.8 360,7.4 		"/>
		<path class="st1" d="M359.7,33.7C359.7,33.8,359.7,33.8,359.7,33.7l-10,17.1H360V33.7H359.7z"/>
		<path class="st1" d="M222,33.7h-12c0,0,0,0.1-0.1,0.1l-9.9,17h12L222,33.7z"/>
		<path class="st1" d="M266.9,33.7h-12c0,0,0,0.1,0,0.1l-10,17h12L266.9,33.7z"/>
		<path class="st1" d="M281.9,33.7h-12c0,0,0,0.1,0,0.1l-10,17h12L281.9,33.7z"/>
		<path class="st1" d="M237,33.7h-12c0,0,0,0.1,0,0.1l-10,17h12L237,33.7z"/>
		<path class="st1" d="M296.9,33.7h-12c0,0,0,0.1,0,0.1l-10,17h12L296.9,33.7z"/>
		<path class="st1" d="M251.9,33.7h-12c0,0,0,0.1,0,0.1l-9.9,17h12L251.9,33.7z"/>
		<polygon class="st1" points="345.8,31.2 355.6,31.2 350.3,23.4 		"/>
		<polygon class="st1" points="340.5,14.4 336.7,20.9 343.3,30.4 352.5,14.4 		"/>
		<polygon class="st1" points="344.5,7.4 342,11.8 354,11.8 356.5,7.4 		"/>
		<path class="st1" d="M311.8,33.7h-12c0,0,0,0.1,0,0.1l-10,17h12L311.8,33.7z"/>
		<path class="st1" d="M329.8,33.7C329.8,33.8,329.8,33.8,329.8,33.7l-10,17.1h12l10-17.1L329.8,33.7z"/>
		<path class="st1" d="M326.8,33.7h-12c0,0,0,0.1,0,0.1l-10,17h12L326.8,33.7z"/>
		<polygon class="st1" points="91.3,31.2 101.1,31.2 95.8,23.4 		"/>
		<polygon class="st1" points="136.2,31.2 146,31.2 140.7,23.4 		"/>
		<polygon class="st1" points="181.1,31.2 190.9,31.2 185.6,23.4 		"/>
		<polygon class="st1" points="166.1,31.2 175.9,31.2 170.6,23.4 		"/>
		<polygon class="st1" points="121.2,31.2 131,31.2 125.7,23.4 		"/>
		<polygon class="st1" points="106.3,31.2 116.1,31.2 110.7,23.4 		"/>
		<polygon class="st1" points="271,31.2 280.7,31.2 275.4,23.4 		"/>
		<polygon class="st1" points="256,31.2 265.8,31.2 260.5,23.4 		"/>
		<polygon class="st1" points="241,31.2 250.8,31.2 245.5,23.4 		"/>
		<polygon class="st1" points="211.1,31.2 220.9,31.2 215.5,23.4 		"/>
		<polygon class="st1" points="226,31.2 235.8,31.2 230.5,23.4 		"/>
		<polygon class="st1" points="196.1,31.2 205.9,31.2 200.6,23.4 		"/>
		<polygon class="st1" points="151.2,31.2 161,31.2 155.6,23.4 		"/>
		<polygon class="st1" points="0.4,11.8 9.6,11.8 12.1,7.4 0.4,7.4 		"/>
		<polygon class="st1" points="76.3,31.2 86.1,31.2 80.8,23.4 		"/>
		<polygon class="st1" points="46.4,31.2 56.2,31.2 50.8,23.4 		"/>
		<polygon class="st1" points="61.3,31.2 71.1,31.2 65.8,23.4 		"/>
		<polygon class="st1" points="16.4,31.2 26.2,31.2 20.9,23.4 		"/>
		<polygon class="st1" points="1.5,31.2 11.2,31.2 5.9,23.4 		"/>
		<polygon class="st1" points="31.4,31.2 41.2,31.2 35.9,23.4 		"/>
		<polygon class="st1" points="310.5,14.4 306.8,20.9 313.3,30.4 322.5,14.4 		"/>
		<polygon class="st1" points="314.6,7.4 312,11.8 324,11.8 326.6,7.4 		"/>
		<polygon class="st1" points="315.9,31.2 325.6,31.2 320.3,23.4 		"/>
		<polygon class="st1" points="300.9,31.2 310.7,31.2 305.4,23.4 		"/>
		<polygon class="st1" points="325.5,14.4 321.8,20.9 328.3,30.4 337.5,14.4 		"/>
		<polygon class="st1" points="329.5,7.4 327,11.8 339,11.8 341.5,7.4 		"/>
		<polygon class="st1" points="285.9,31.2 295.7,31.2 290.4,23.4 		"/>
		<polygon class="st1" points="330.8,31.2 340.6,31.2 335.3,23.4 		"/>
	</g>
</g>
</svg>
