<svg xmlns="http://www.w3.org/2000/svg" viewBox="0 0 793.68 205.51"><defs><style>.cls-1{fill:#ffd900;}</style></defs><title>huella_yellow</title><g id="Capa_2" data-name="Capa 2"><g id="Capa_1-2" data-name="Capa 1"><path class="cls-1" d="M512.37,2.64a5.41,5.41,0,0,0,.12-1.87h-2.81q1.85,3.54,3.7,7.07C513,6.11,512,4.23,512.37,2.64ZM529.06.71h-2.34a11,11,0,0,1,.64,2Zm29.66,9.49c.46-2.21.93-4.4,1.39-6.62l-1.61-.29q-.69,3.29-1.39,6.57ZM517.81,8.89c.62-.59,1.25-1.18,1.07-1a60.68,60.68,0,0,0-1.09-6.65,1.42,1.42,0,0,0-.26-.46h-2.69C512.84,4.09,517.5,6,517.81,8.89Zm12.26.46,3,.64V7.74A6.24,6.24,0,0,0,530.07,9.35ZM538.73,1v3.3a11.74,11.74,0,0,1,5.1-.56c2,.31,3.88,1.36,5.83,2a7.72,7.72,0,0,0,1.9.18c-.73-1.81-1.43-3.56-2.13-5.35l-8.6,0q-.14.43-.3.87ZM522.16,22.18h0ZM346.06,34.64V35c1.24.51,2.43,1,3.58,1.54s2.14,1.15,3.21,1.75l-.59,1.16-6.19-.73v3.77c4.26,1.35,3.56,5.23,3.6,9a15.77,15.77,0,0,1-3.57-2.32l.06,17.65L370,66.69l-.11-32.13Zm20.31,3.2-3.24,3.34c3.62,1.7,3.63,1.75,1.28,4.22l-4.21-2.64c1.08,2.07,1.63,3.1,2.42,4.61l-8.1-.52c0-.82-.1-1.68-.11-1.84l-4.27-2.48c.15-.32.29-.65.43-1,1.17.06,2.34.13,3.69.23.24-1.15.44-2.1.65-3.08L361.14,40c.16-1.38.28-2.44.46-4ZM120.77,94.78,119.14,93c1.22-1.87,2.28-5.1,3.7-5.27a4.11,4.11,0,0,1,2.22.57l2.77-6a8.82,8.82,0,0,1-1.92-4l-.09-.1,0,0c-3.92,1.85-6.25,1.11-6.18-1.65a20,20,0,0,1,4,.07c.79.17,1.44,1,2.14,1.58,0,0,0,0,.08,0a1.13,1.13,0,0,0,0,.15,13.4,13.4,0,0,0,2.59,2.57L132,73.23l-5.54,0c-.15.27-.3.54-.5.87-.34-.32-.66-.58-1-.86l-16.21,0L99.63,93.17l1.14.69c-.62.18-1.16.32-1.66.43l-1.6,3.48,5.33-1.1c.45.47.87.89,1.3,1.32l16.5-.06,1.8-3.9Zm-8.16-15.85.6-1.18,8.38,4.77-.48.94ZM548,27.28c-2.79-2.36-5.44-4.62-8.33-7.09-.24,1.78-.43,3.29-.69,5.21-.55-.73-.72-1.11-1-1.29-1.17-.75-2.38-1.44-3.57-2.14-.18.35-.38.71-.56,1.07l2.37,2.47c-1.2,0-1.79,0-2.37,0a5.48,5.48,0,0,0-1.83.26c-3.55,1.57-3.53,1.6-5.31-2.51l4.61.14c.59-1.3,1.16-2.54,1.79-3.88-4.56-2-7.78.18-11,2.6q2.3,3.06,4.57,6.14l28.92-.11-5.18-3.42ZM425,52.61c1-.53,1.72-1,1.84-.9.73.66,1.46,1.34,2.2,2l-.08-19.41h-1.39l-2.64,5.34c-.73-1.46-.22-3.76-.58-5.33l-7.23,0a3.41,3.41,0,0,0,1.18,1.32c2.85,2,3.79,4.64,1.89,8-1-.37-2.07-.74-3.14-1.13l-3.38-1.27c.45-1.27.8-2.28,1.6-4.52-3.76.93-6.69,1.65-9.61,2.42-.11,0-.12.45-.18.76l3.31,1.57-3.63,2v.18l10.38,11.72c-2.81-.83-5.77-.94-6.14-2-.84-2.38-2.49-2.74-4.22-3.12l0,16.24,23.84-.08,0-9.17C427.52,55.9,426.64,53.87,425,52.61ZM419.51,50a21.74,21.74,0,0,1,.38-3.33l1.43-1.36c.59,7,3.09,3.17,5.45,2.57-.39,1.33-1.06,2.75-1.86,2.84A15.89,15.89,0,0,1,419.51,50Zm6,9.45-4.39-2.9.93-1.35c2.34-.72,3.76.43,4.47,2.61C426.65,58.2,425.87,58.89,425.51,59.45Zm95.78-42.23,1.57-3.78-5.24-3.77h0l-3.43,3c-.39-2.08-.63-3.32-.86-4.56a6.48,6.48,0,0,0-4.1-.24l0,5.36a2.92,2.92,0,0,1-.15.77c2.49,1.67,6.71.48,8.26,3.24-.76,1.09-2,2.24-1.82,2.73.62,1.38,1.64,3,2.92,3.56.85.37,2.43-.92,3.67-1.45l0,0L526,16.32C524.76,13.89,523.25,16.18,521.29,17.22Zm-23-16.4h-1.35c.5.75,1.16,1.48,1.65,2.23C498.51,2.33,498.34,1.58,498.27.82Zm27.9,12.75c1,.25,2.28-.07,3.22.33s1.73,1.38,2.9,1.72c-1.82-4.65-7.67-4.73-10-8.93C520.91,10,522.78,12.78,526.17,13.57Zm115.2,43.18v.42a3,3,0,0,0,.24-.18C641.54,56.91,641.45,56.85,641.37,56.75ZM661.69,56c2.62-2.77,3-7.09,1-8-1.63-.71-3.92.13-6.72.33l-6.3-5.52c.21-.36.42-.7.63-1,1.61.78,3.16,2,4.84,2.24,2.43.38,3.53-.88,3.47-2.66l-4.82.16c0-.31,0-.63,0-1l3.93-2.93c2.52,1.6,5,3.2,7.46,4.8v-2h0a66.5,66.5,0,0,0-5.83-4.57c-1.21-.76-2.81-.89-4.24-1.3l-1.17-.19a2.79,2.79,0,0,1,.36-.78l-6.84,0c.6,1,.74,2.31-.31,4.29-1.5,2.88-2.29,5-5.79,5.37v.19c7.11,2.07,10.95,7.36,15.08,12.32l-.69.84-12.07-9.85c-.39.52-.79,1.06-1.19,1.58,1.07.7,2.2,1.32,3.19,2.12,1.2,1,2.27,2.09,3.41,3.15a3.45,3.45,0,0,1-2.48-.19c-1.14-.33-2.32-.55-3.49-.81a20.34,20.34,0,0,0,.1,3.41c.31,1.66.85,3.26,1.59,5.93l-3.39-2.22v2.9L642,63c-.21.34-.41.69-.62,1v1.65l8.81,0c.06-.09.12-.18.17-.27a4.37,4.37,0,0,1,2.57.27l8.9,0c-1-.68-1.89-1.33-2.6-1.85.33-2.06.59-3.66.85-5.25l.81-.31,2.75,7.41h1.57l0-8.74C664.06,56.59,662.93,56.28,661.69,56ZM642.3,33.66l-.07-.08h-.94v.62Zm-6.7-.06h-.32l.31.21ZM611.82,48.09l1.37-1.22-1.38-.54ZM568.25.59V2.37c1.86.92,2.89,2.88,3.66,5.26C573.16,3.76,570.79,2,568.25.59Zm-5,18.92a38.79,38.79,0,0,0,4.71-1.83c2-1.12,3.87-2.44,6.47-4.12-4.73-.33-7.88-1.58-4.64-6.73l-1.47.63,0,5.6a2.86,2.86,0,0,1-2.84,2.86,2.8,2.8,0,0,1-2.28-1.23C562,16.42,561.11,18.16,563.2,19.51Zm55,25.41L613,41.48c.12,2.25.2,3.83.28,5.39l1.49,2.91Zm-5,1.95.08,0v0l0,0ZM127.08,109.29l11.42,24.38,23.25-.08-11.43-24.38Zm24.28,19.88c-4.38,2.27-8.76.39-9.29-3.65ZM80.83,171.7h2.45a7.91,7.91,0,0,1-2.45-1.51Zm288.37-4.94a6.52,6.52,0,0,1,1.15-2.38v-2c-.63.35-1.11.64-1.21.55-2.26-2.08-4.46-4.24-7.41-7.09,5.42-.68,6.23,3.21,8.61,5.59v-3a5,5,0,0,1-.89-1.65c-.12-.35.49-.94.88-1.46l-.05-15.19-2.74-1.65-21.1.08.07,20.66s.05,0,.07-.06l3.89,2.94c-.24-1.48-.36-2.25-.48-3l.94-.27c.49,2.16,1,4.33,1.71,7.46l-6.11-.18,0,4.58h.71l4.28-1.86c.17.59.34,1.23.51,1.84h.84l3.74-5.9c-.32,4.65-.38,5.15-2.9,5.89l8.48,0-3.36-4.2c3.76.11,4.4,2.08,4.72,4.19l6.81,0v-4.39A5.52,5.52,0,0,1,369.2,166.76ZM494,138.09l.06,14.63,6.44,1.36c-3.49,2.27-5.06,2.55-6.44.67l0,10.33,2.79,1.63c0,.36.05.71.08,1.06a29.27,29.27,0,0,1-2.85.79v1.66l23.83-.09L517.88,138ZM458.2,148c-.07,1.12-.14,2.23-.24,3.94l-5.7-6.87,6.6-.42,0-6.45L435,138.3l.1,29.09,6.35.4c0,.81.09,1.68.1,1.84l1.33.77h4.4c-1.29-1.85-1-4.56-1-7.2a15.84,15.84,0,0,1,4.76,3.34c.14.16-1.2,1.75-2.3,3.32l1.28.53,8.91,0-.08-22.09Zm-29.55-1.36-2.34-3.91.7-.72,2.31.6v-4.31l-23.84.09,0,9.83c1.93,1.92,3.93,3.89,5.87,5.83a5.78,5.78,0,0,1-5.86-2.53l.07,19,23.83-.09-.08-24.36Zm-9.17,11.73C418.16,162,416.77,162,413,158Zm-315.57-9.45c-.5-2.3-.29-4.93-1.47-6-1.48-1.35-2.22-2.45-2.06-3.43l-3.89,0-2.1,1,1,1.36,6.17,2.39-2.81,2.09.08.12-1,.6c-.32.25-.64.48-1,.71l3.35.43-2.3,3.69c.43.88.94,1.94,1.45,3-.38.26-.76.52-1.14.8-.67-1-1.72-2-1.91-3.1-.22-1.29.33-2.72.54-4.08a20.24,20.24,0,0,1-7.55-2.84c0,.15.1.28.14.43.51,2.46,1.14,4.92,1.89,8.06.63.88,1.21,1.73,1.78,2.56,0,.24,0,.49,0,.73-1.44-.8-3.29-1.3-4.19-2.51a4,4,0,0,1-.45-2.38c-1.24-.77-2.17-1.7-1.46-4,.91-2.88-.25-4-3.4-3.36a16.83,16.83,0,0,1,1,3.21c.49,4.49,2.38,7.72,7.08,8.87.75.19,1.25,1.34,2.52,2.79a32.67,32.67,0,0,1-5-1.75A57.81,57.81,0,0,1,81,153c-.09-.08-.17-.19-.26-.27v4.37c.65.19,1.29.38,1.93.59l1.72-2.21c2.85,2.42,6.3,4.18,7.87,7,2.06,3.73,4.84,4.06,8.28,4,.21,1.25.4,2.43.54,3.2l-10.9-3.59c.3,1.18.54,2.1.8,3.12l-2.84.19,1.32,2.26,15.17-.06L104.58,149Zm538-111c.52.31,1.49-.13,2.24-.22-.33-.61-.52-1.45-1-1.78a7.06,7.06,0,0,0-1.81-.73v2.35ZM140,141.27l-.22-.1V144l6.69,3.83-.89,1.45c-2.83.48-4.24-1.29-5.79-2.86l.05,12.21c.14-.18.27-.35.42-.51l12.06,9.85c.4-.53.8-1,1.19-1.58a36,36,0,0,1-3.18-2.13c-1.2-1-2.28-2.08-3.41-3.13a3.38,3.38,0,0,1,2.47.18c1.15.33,2.33.55,3.5.81a20.52,20.52,0,0,0-.11-3.42c-.3-1.65-.86-3.26-1.58-5.92l5.18,3.39-2,1.52c2.64,3.37,6,5.71,9.33,8.2l0-6.26c-1.17.11-2.19-.49-3.21-1.7a6.28,6.28,0,0,1,3.19-3.33l0-6.16c-.47-1.51-.83-2.64-1.15-3.65.36.11.76.21,1.14.3V141.6l-4.27-2.32-19.58.07v1.53C139.84,141,139.9,141.12,140,141.27Zm20.72,13-1,1.53L154,151.61c.24-.41.48-.83.73-1.24ZM589.14,7.87c.49,1.26-1.25,3.39-2.15,5.55,1.63-.83,3.33-1.85,5.13-2.71l0-10.23-9.57,0a9.08,9.08,0,0,1,1.75,1A16.48,16.48,0,0,1,589.14,7.87ZM775,81l-.7.63,1.42,2,.65-1.41A4,4,0,0,1,775,81Zm-58,44.59-2.62-5.75,2.83.12-1-2.21a10.1,10.1,0,0,1-2.67,1.06c-3.22.75-4-1.14-2.23-5.15h0c0-.09,0-.14,0-.21q-.06-3.17-.13-6.18l-23.13.08,2.55,5.46,3.62-3.57c2,2.74,3.5,4.82,5.4,7.46L693.13,118l-.19-.2,6.51,13.89,23.24-.08-3.9-8.33Zm-21.81-4.76c5.47-1.54,6.23-1,6.89,4.16Zm16-7.18,0,0s0,0,0,0l3.51,1.12-2-4.38a4.32,4.32,0,0,0-1.46,3,1,1,0,0,1,0,.17Zm52.82-24.23c2.76.42,5.5,1,8.24,1.57l.87-1.88c-2.76-.46-5.41-.9-8-1.29-2.07-.31-4.59-2.79-6,1.06-.09.24-1.23.34-1.73.14-2.09-.83-4.4-1.26-6.37-2.3l-4.15,9,21.28-.08-9.07-4.72C760.82,90.33,762.55,89.15,764.06,89.37ZM51.23,150.86l13.94,9.22c.27-.35.53-.71.79-1.06-.55-1.75-.19-3.8-3.47-4-1.72-.08-3.35-2.07-5.67-3.64l3.62-.71c0-.25.07-.5.11-.75L54.11,149c-.29-.93-.68-2.23-1.09-3.58a3.47,3.47,0,0,1-1.8.2ZM156.6,109.19,168,133.56l23.25-.08-11.43-24.37Zm-52,33.37v-3.08h-.46A3.12,3.12,0,0,0,104.56,142.56ZM67.22,142l-.54.1c-.58,1.59-1.43,3.25-2.12,5.07,1.24-.52,2.42-1,2.86-.57,2.31,2.06,5.83,3.12,7.43,5.56l.22.09,0-6.9a4.7,4.7,0,0,0-3.62-1.08c-.67.06-1.49-1.53-2.24-2.36-.12-.62-.23-1.24-.35-1.87,3.09,3.39,3.33,1.33,4.26,0-.15-.12-.31-.26-.46-.37H67.22c0,.11,0,.22,0,.32C67.19,140.6,67.21,141.28,67.22,142Zm148.42-33,3.93,8.37a6.6,6.6,0,0,1,1.8,2.15l-.84-.09,6.54,13.94,23.26-.09L238.89,108.9Zm-29.52.1,11.43,24.38,23.25-.09L209.37,109ZM80.81,164.17v.42l.53-.4ZM53.36,142.88,52.81,144l.21.05c.17-.36.34-.73.5-1.09Zm2.5,1-.89.53,5.34.6c-.83-1.39-1.6-2.71-2.36-4l-1.43-1.37h-.85c.86,1.46,0,1.91-1.57,1.74l-.25.51Zm-1.76-2.53,0,0H54l.06,0Zm7.65,3.24a9.85,9.85,0,0,0,.56,3.39c.64-.21,1.4-.53,2.15-.86C63.52,146.27,62.65,145.46,61.75,144.63ZM54,141.35A9.35,9.35,0,0,0,52,139.66h-.32l1.66,1.68ZM740.37,75.88c.43.43.36,1.35.51,2.07l.08,0,0,0,2.07-.1a27.72,27.72,0,0,1-2.59-2.61c-1.18-1.72-.18-2.19,1.45-2,.09-.16.17-.33.26-.5l-1.68-1.69-3.92,0c.51.85,1,1.71,1.49,2.55C738.8,74.36,739.61,75.11,740.37,75.88ZM541.09,122.69l-4.89-10.43-.81-.35c.1-.23.21-.46.32-.68l-1.58-3.39-23.25.08L515.59,118a2.5,2.5,0,0,1,1.49-.26c2.24.54,4.18,2.31,6.26,3.56-1.49,1.19-3.29,1-4.39,1.82a3.33,3.33,0,0,0-.65.65l4,8.54,23.26-.08-2.32-4.93A7.5,7.5,0,0,1,541.09,122.69Zm-19.68-5.59c.83-2.31,1.7-4.73,2.61-7.14a1.69,1.69,0,0,1,.72-.82c1.3-.78,7.26,1.26,8.8,3.8-5.38-1.69-5.49,2.57-7.35,5.4C524.84,114.48,522.84,116,521.41,117.1ZM749.07,74.52a7.42,7.42,0,0,0,.9-1.15l-3.68,0Zm-6.47-2.76c.12-.24.23-.48.35-.71h-.22c-.09.22-.19.44-.29.65ZM707.38,89.34c.22-.4.43-.8.66-1.2l5.19,3.07L718,80.77,716.39,79c-1.14.12-2.26.2-3.31.31-.24-1.42-.52-3.14-.82-5a7.17,7.17,0,0,0-2.07-1.53c-.25-.11-.42-.24-.64-.35a7.54,7.54,0,0,1,.49,2c-2.16-1-4.12-1.9-6.89-3.18.93,2.42,1.28,5.2,2.23,5.42,3.88.92,4.2,5.12,7.47,6.33-.14.34-.3.7-.45,1l-8.89-.82c1.9-1.86,2.56-3.5-.14-4.68-1.79-.8-3.56-1.61-5.65-2.57l3.86-1.86-1-1.36-1.75-.67-3.45,7.48,3.38,3.4a19.7,19.7,0,0,1-4.22-1.55l-5.2,11.27,5,.55c-.12.51-.23,1-.35,1.52-1.68-.79-3.79.19-5.62.07l-.49,1.07,23.25-.08,1.61-3.5Zm-285.07,18.9,9.39,20,.29-.69,4.38,5,20.62-.08-11.43-24.37Zm59-.21,11.44,24.37,23.24-.08L504.6,107.94Zm28.35,21.26c-1.82-.73-3.34-1.33-5.43-2.18,3.07-.64,5.08-1.08,8.19-1.74ZM740.88,78l-.29.07.13.23.21-.28s0,0,0,0Zm1.8-4.65H742a9,9,0,0,0,2.85,2.14Zm-200.94-15,5.1-1.41.27.32L547,33.92,523.19,34l.1,26.12a3.25,3.25,0,0,0,3.35-2.23l5.88,1.23-1,3.19-8.18-1,0,4.77,23.83-.08,0-5.86C545.39,59.6,543.74,59,541.74,58.3ZM526.11,48.13c4.9,2.45,6,4.2,4.21,5.87Zm-74.28,60,11.43,24.37,23.25-.08-11.43-24.37ZM466.47,116c-.18.35-.37.69-.55,1-2.14-1.1-4.27-2.2-6.4-3.32.32-.55.62-1.12.94-1.68ZM742,73.3l-.05,0h0a.08.08,0,0,1,0,.05ZM627.32,6V9.34c3,1.15,3.52-.7,3.64-2.54ZM214.1,85.83l.58-.1,5.91-12.82L197.33,73,186,97.7l16.14-.06L201,96.2a24.82,24.82,0,0,1,4.24,1.43h4l5.28-11.45A1.73,1.73,0,0,0,214.1,85.83Zm71.8-13.15-8.51,18.49c1-1,1.61-2.5,2.69-4.19,1.56.78,3.84,1.5,1.56,3.7l2,4.25c-1.59.73-3.39,2.31-4.73,2a11.11,11.11,0,0,1-3.38-1.64l-1,2.11,23.25-.09,11.38-24.7Zm5.8,14.85c-3.07.64-5.08,1.08-8.2,1.74l2.77-3.92C288.08,86.08,289.61,86.68,291.7,87.53ZM558.9,26a4.42,4.42,0,0,1,1.68,1.41c.13.24.22.49.35.73h2.44a29.63,29.63,0,0,0-11.8-7.5A32.39,32.39,0,0,0,558.9,26ZM315.43,72.57,304.05,97.28l23.25-.08,11.38-24.71Zm78.21,22.19-1,2.21,2.9,0A5.35,5.35,0,0,1,393.64,94.76Zm27.44-21.33.6-1.24L404,72.26,396,89.7l.34.2a4.43,4.43,0,0,0-.49.13l-1.66,3.59c2.94-1,5.7.17,7.84,3.31l13.87-.05,9.56-20.76C424,75.21,422.53,74.32,421.08,73.43Zm-13.2,10c.85.18,1.38,1.95,2.45,3.62l-6.72-1.42c-.08-.47-.15-.95-.23-1.41C404.89,83.9,406.49,83.14,407.88,83.43Zm-17.66,2.91.82.47,6.68-14.53-23.24.09-6.2,13.46a31.79,31.79,0,0,0,2.43,3.86,5.87,5.87,0,0,1-3.47-1.61l-4.13,9,12.43,0c.63-1.16,1.26-2.31,2-3.61l2.4,1.06c-1,1.2-1.7,2-2.23,2.55l8.68,0,3.87-8.42A12.64,12.64,0,0,1,390.22,86.34Zm-15.05-.52,9,5.13C376.14,91.87,373.57,90.27,375.17,85.82Zm162.24.47.77-1.05.72.49,5.48-11.9a7,7,0,0,1-1.56-2l2.06.88.46-1-23.25.07L510.72,96.54,534,96.46,538.32,87Zm-5.3-10c.15-.39.29-.78.43-1.18,2.41.28,4.82.49,7.21.91.28,0,.38,1.19.85,2.76ZM256.38,72.79l-5.82,12.64c.33.3.64.61,1,.88,3.26,2.5,3.75,5.36,3.25,9.44-1-1.88-1.56-3.57-2.66-4.67-.95-.93-1.94-1.83-2.93-2.73L245,97.49l23.24-.08L279.63,72.7ZM275.66,77c-.52,1.3-1,2.45-1.74,4.3-1.31-2.78-2.36-5-3.42-7.25l.91-.41Zm295.05-5.3a2.91,2.91,0,0,1-1.49.7,13.42,13.42,0,0,1-4.09-.68l-13.52,0-.36.79,2.28,3.37a14.49,14.49,0,0,1-3.87.09l-6,13,.37.24-1,1.39a.18.18,0,0,1-.07-.05l-2.69,5.84,4.52,0L543.68,95c.28-.22.57-.43.87-.64a4.63,4.63,0,0,0,1.83,2l17.11-.06,11.38-24.7ZM241.18,80.74c-.86-.89-.64-2.81-.93-4.26l1.19-.35a16.36,16.36,0,0,1,2.37,1.79c.89,1,1.73,2,2.57,3l3.73-8.1-23.26.09-5.38,11.71,4.38-.73c-1.93,2.33-3.23,5.28-5.42,6.27a3.34,3.34,0,0,1-1.67.33l-3.28,7.12h.7c.6-1.13,1.26-2.4,2.12-4,0,1.64,0,2.89.06,4l11.56,0a3.12,3.12,0,0,1,4.45,0h4.36l6.12-13.27C243.61,83.08,242.36,82,241.18,80.74ZM226,92.46c.16-.54.32-1.08.47-1.63l9.82,3c-.13.44-.25.87-.38,1.32Zm13.78,2.72c-3.43-2.26-3.64-7.37-8.44-4.81-.67-2.53-1.22-4.67-2-7.58,3.44,1.56,6.57,2.12,8.18,4S238.93,91.65,239.78,95.18ZM492.57,71.94,481.2,96.64l23.25-.08,11.36-24.7Zm-74.11,49.28-2.4-1c2.49-2.93,3.08-3.62,3.89-3.55L416,108.26h-4.67a1.31,1.31,0,0,0,.52.58c-.31.31-.61.61-.93.91l-2.74-1.47-15.43.06,3.81,8.12c2.53.38,5,.92,6.13,4.23a6.49,6.49,0,0,1-3.88.58l1.55,3.27c2.7-.74,5.89-2.46,5.35,3.75l-5-2.9,3.43,7.32,23.25-.09-7-15Zm-9.95-8.86c.42-.4.84-.8,1.25-1.21,1.28,1.22,2.55,2.45,3.83,3.66-.43.38-1.19,1.13-1.26,1.06C411,114.75,409.77,113.55,408.51,112.36Zm12.28,16.46c-2.79-1.61-5.55-3.19-9-5.13C419.83,122.76,422.39,124.37,420.79,128.82Zm-251.5,10.42,0,7.4a9.41,9.41,0,0,1,2,1.11c2,1.51,2.7,4.79,4,7.28l-1.17.7c-.86-1-1.73-2-2.62-3.07-.78,1-1.48,1.89-2.15,2.66l0,4.62a7.47,7.47,0,0,1,1-.63c.38-.19,1.35.77,2.06,1.2l.25.94c-.87.07-1.74.12-2.61.17l.3,1,1.75,1.25c3.07-1.89,5.39-3.67,8-4.74,1.16-.47,2.9.49,4.37.8-.07.44-.14.87-.2,1.31l-4.74.47,5.7,3.81-2.48,2.22c3,1.17,6,2.33,9,3.53h1.47l-.12-32.13Zm167.09,26.39-6-.08c0-.23,0-.46,0-.69l4.34-1.31c-2.74-2.19-4.59-4.35-6.95-5.39-3.34-1.48-3.78-2.48-.81-5.53,3.14,5.42,9.13,8.82,13.93,9l-.08-23-23.83.09L317,167l1.05.67-.52.85-.52-.09v2.43l23.84-.08v-1.56Zm-12.1-19.32,3.09-.46-3.05-3.72,1.19-.9,7.18,9.71-.82.73ZM182.7,167.76l0,.06.06,0-.08,0S182.7,167.75,182.7,167.76Zm-13.37-17.63v3.05a21.82,21.82,0,0,0,2.16-.52Zm8.44,19.59,2.45,1.62h2.66c-.07-1.31-.13-2.48-.18-3.57-.44-.83-.86-1.67-1.49-2.9C179.85,166.76,178.8,168.26,177.77,169.72Zm443.77-61.61,4,5.36-2.79-6-18.57.07,9.09,4.74c-6.58,1-9.33-.54-9.21-4.74l-4.57,0L610.87,132l23.25-.09-8.35-17.82C622.85,115.34,622.46,114.93,621.54,108.11ZM249.12,157.76c-1-1.23-2-2.47-3.79-4.56l6.89,2.43,0-13.26L246,139.71c.29,1.37.5,2.37.72,3.37l-.93.61L242.6,139l-14.27,0,0,3.35c1.31.22,2.65.67,4.06,1-.33,1-.73,2.32-1,3.28l-3-.82.09,25.37,23.83-.08-.05-14.2ZM737.65,92.85l.65-.93L741.41,94l5.08-11-8.76-.87c.9-1.18,1.71-2.22,2.53-3.27l-7.06.88a2.87,2.87,0,0,1-.61,2.08c-.43-.62-.91-1.23-1.4-1.83l-2.32.3c0-1.19,0-2.67-.07-4.25a3.66,3.66,0,0,1-.13-.44,7,7,0,0,1,.11-.89c0-.66,0-1.34,0-2l.54-.11c.18-.48.41-1,.62-1.49h-1.15l-1.62,3.54-1.19,2.56c.19.14.34.29.53.44l-1,.5L717.38,95.8l12.17,0-.39-.49c.53.15,1,.32,1.45.48l10,0,.21-.45ZM721.11,62.53c-1.09-.46-2.2-.89-3.25-1.42-.8-.4-1.1-1.81-1.63-3.28l-3-.9-1.72,2.2c-2.84-2.42-6.3-4.19-7.86-7a7.19,7.19,0,0,0-3.28-3.25l.06,16.63,5.41,0c-.36-1.54-.76-3.15-1.21-5-.62-.88-1.2-1.73-1.78-2.56,0-.24,0-.49,0-.74,1.44.81,3.29,1.31,4.18,2.52a4,4,0,0,1,.45,2.38,2.88,2.88,0,0,1,1.55,3.43h2.19c-.61-4.12-2.53-7.09-7-8.19-.74-.18-1.24-1.33-2.52-2.79,2.46.85,3.83,1.1,5,1.77a55.82,55.82,0,0,1,8.2,5.35A17.22,17.22,0,0,1,718,65.44l6.28,0v-.17A9.77,9.77,0,0,1,721.11,62.53Zm-34.58-21c2.6-3.65,2.53-4.24-.63-4.68a4.64,4.64,0,0,1-4.25-3.44h-2.81c1.67,1.73,3.17,3.16,4.44,4.74a9.29,9.29,0,0,1,1.1,2.78c-1-.18-2.18-.09-3-.59-2.25-1.47-4.34-3.17-6.94-5.12l3.39-1.8-7.07,0V36.9c.6.46.87,1.11.19,2.28a2.4,2.4,0,0,1-.18.26l0,9c1,.77,2.23,1,4.09.31,3.53-1.33,6.38.36,8.12,4.22-.93-.34-2.26-1-2.39-.84-3.08,4.24-3.5,0-4-.59-2.22-.35-4.18-.37-5.81-.7l0,5.85.84.54c-.21.41-.4.81-.61,1.23l-.23-.07,0,6.57c2.14-.54,3.64-.36,4.68.61l4.13,0c.26-1,.84-2,1.26-3.14l1.13,2.87,6.1.24,6.54,0-.08-24.13Zm-6.83,5.63-5.4-7C680.42,44.35,680.42,44.35,679.7,47.19Zm51.84-6.6c-.08,1.73-.13,2.79-.2,4.24l-1.44-.48,0,8.53a5.32,5.32,0,0,0,.78.17c3.4.29,6.67,2.1,10,3.27,1.39.35,3.15-.72,4.78-.56s2.85,1.38,4.3,2.28A.55.55,0,0,0,750,58c-1.37-2.62-5.6-5.46-6.75-4.24-2.45,2.6-3.4.65-4.92-1l2-1.09c-.69-.76-1.29-1.4-1.89-2.07.16-.26.32-.51.48-.78,2.61,1.07,5.22,2.12,8.55,3.49.14-1.8.72-3.35.2-4.23s-2.18-1-3.34-1c-2.43,0-4.87.6-7.28.45a5.34,5.34,0,0,1-3.19-2.06c-.35-.41.36-1.7.71-3Zm17.92,21.62c-.14-.26-.3-.54-.45-.83L746.5,65,730.79,54.56c-.26.35-.53.7-.79,1.06.55,1.75.2,3.8,3.47,4,1.72.08,3.35,2.07,5.67,3.64l-3.61.71-.12.75,4.6.68,9.18,0A5.11,5.11,0,0,0,749.46,62.21ZM692,38.42l.44-2.09,2.18.73V33.39l-6.21,0C688.89,36.05,691.1,36.53,692,38.42ZM572.8,33.83h-3.2l3,2.28C572.68,35.34,572.74,34.59,572.8,33.83ZM449.39,55.43l-3.89-2.94c.25,1.48.37,2.24.49,3l-.95.28c-.49-2.17-1-4.33-1.71-7.46l10.75.33c.14-.66.34-1.58.73-3.43l3.7,2.95-.05-13.91-8.49,0c-.71.56-1.4,1.46-2.15,1.52-.92.08-1.89-.81-2.88-.9-2.06-.2-4.16-.07-6.23-.22a14.6,14.6,0,0,1-2.81-.35h-1.28l.05,10.75c.75,1,1.55,2,2.45,3.08a6,6,0,0,1-2.44-.52l.06,18.83,23.83-.08,0-12.77C454.82,52.47,451.25,52.88,449.39,55.43Zm7-14.25-3.22,2.32-3.79-3.63C455.49,40.06,455.49,40.06,456.38,41.18Zm-13.26-3.09a1.72,1.72,0,0,1,1.59-.37c1.86,1.84,3.61,3.8,5.29,5.61l-5.57,2.44c-.5-1.78-1.08-3.66-1.52-5.56A3.27,3.27,0,0,1,443.12,38.09Zm.13,5.54-3.9,6.18C439.71,44.6,439.71,44.6,443.25,43.63Zm-305,29.58-4.54,9.86a8.21,8.21,0,0,0,3.49-.25l.56,3.55a14.08,14.08,0,0,1-5.21-.79l-5.68,12.34,23.26-.09,11.37-24.7Zm9.16,16.64-4.1-2.76,5.27-2.81C148.2,86.29,147.85,87.93,147.45,89.85ZM148.68,80c-1.2,1.62-2,2.68-3.34,4.54-.4-4.08-2.85-5.31-6.25-5.29.76-4.07,3.74-3.79,5.87-4.16ZM606.09,38V35.7c-1.5-.71-2.87-1.33-4.16-2l-4.19,0a3.72,3.72,0,0,1,.8,1.49A4.92,4.92,0,0,0,606.09,38ZM221.76,169.67c-.11.51-.22,1-.32,1.52h1.32v-1.44ZM594.07,36.48a8.47,8.47,0,0,1,1.25-2.3,3.81,3.81,0,0,1,.6-.43H594a6.78,6.78,0,0,0-.86,1.26C593.43,35.51,593.75,36,594.07,36.48ZM218,164.42a10.83,10.83,0,0,1,4.7,2.53l-.1-27.9-13,0a6,6,0,0,1,1.74,1,62.24,62.24,0,0,1,4.71,5.6c1.46,1.75,3,3.42,4.37,5.27.33.44-.05,1.4-.13,2.46-2.7-3-4.75-5.41-6.92-7.69s-4.39-4.4-6.6-6.59l0-.06-8,0,.08,22.79,2.85,2.37c1.92-2.34,3.95-3.05,6.58.09l-4.69,1.5c0,.35,0,.68-.08,1a9.89,9.89,0,0,0,3,.08c1.73-.52,2.87-1.05,3.45,1.57a5.43,5.43,0,0,0,1.45,2.66h2.9c-1.15-1.88-2.35-3.84-3.92-6.38C213.6,164.62,215.9,164.06,218,164.42Zm34.13-25.48-4.49,0a8.2,8.2,0,0,1,4.5,2.59Zm-35.42,32.27h1.3c-.15-.15-.28-.31-.43-.47ZM276.4,167l.81-1.25,4.58,2.14-.1-29-18,.07c-.08.22-.16.44-.23.65-1.78-.2-3.55-.4-5.32-.63h-.25l.11,32.14,23.84-.09v-1.29Zm-7.08-10.23-5.87-1.23c.52-1.57.95-2.92,1-3.18l16.66,1.92c0,1.27,0,2.71,0,4.39C275.31,153.45,270.32,153.45,269.32,156.74Zm-3.68,3.9c1.42,2,2.82,3.91,4.22,5.87C265,164.07,263.85,162.31,265.64,160.64Zm43.94,3.48c.29-.45.58-.92.87-1.39l.85.56-.09-24.55-23.83.09.11,31.69,1,.43,22.88-.08,0-4.22A5.26,5.26,0,0,1,309.58,164.12Zm-18.53-9.8,5.78,1.23c-.1.41-.2.83-.31,1.23C294.47,157.21,292,159.21,291.05,154.32Zm-1.41,3.38a46,46,0,0,0,4.91,1.86,23.75,23.75,0,0,0,4,.36c0,.43-.11.86-.16,1.28C295.34,160.48,291.35,162.44,289.64,157.7Zm43.15,46.63,5.08,0-5.08-.66Zm-311.19.06c1.19-2.63,1.19-2.63-5.58-5.6C18.17,201,19.75,202.53,21.6,204.39Zm63.11-16.64-.75.84,6.42,7.46-3.35.07a17.24,17.24,0,0,0,3.86,2.56l0-5.61ZM67.08,205.28h1.13l-1.13-1Zm354.24-12.8v2.79a10.43,10.43,0,0,1,.31,4.26c-.06.54,1.64,1.81,2.5,1.8a7,7,0,0,0,3.44-1.56,7.09,7.09,0,0,0,1.45-2.08l-3.59-.76C424,195.37,422.65,193.92,421.32,192.48Zm-324.74,6.7,0,6h2c-.74-2.07-1.33-3.6-1.78-5.15C96.69,199.74,96.65,199.45,96.58,199.18Zm-10.7,5.65.6-1.29c-2.54-1-5.08-1.94-7.62-2.93-.19.55-.4,1.1-.59,1.65Zm343.67-7.72c-.19.06-.3.39-.45.59h0c.32.82,1,1.72.81,2.41a35.15,35.15,0,0,1-1.31,3.87l7,0-5.42-.51,1.71-3.14,5.19,2.84c-.07.28-.12.53-.19.81h2.86C439.69,201.06,432.33,196.24,429.55,197.11Zm4-125L431,77.64l.76.46c-.28.47-.56.94-.83,1.42l-.62-.39-8.15,17.73,23.25-.09,11.37-24.7Zm350.12,79,0-4.22c-.24-.21-.51-.38-.76-.59a1.71,1.71,0,0,1,0-1.63,2.32,2.32,0,0,1,.73-.3l0-5.74-.28-.39L781,142.07l-3.1-3.34c.91-.64,1.61-1.13,2.39-1.66h-6.68c0,.65.1,1.29.16,1.93a4,4,0,0,1-.92-1.92l-13.08,0,0,4.61Zm-2.53-7.8c0,.37-.06.74-.1,1.11l-8.77-.36-.43-.8,3.13-2.6C777.32,141.75,779.22,142.57,781.11,143.39Zm-14.55-5.7a52.81,52.81,0,0,1,4.94,3.21l-.82,1.41-5.93-3.1C765.38,138.67,766.3,137.55,766.56,137.69Zm-16.85-30.63c1.3,1.6,2.48,3,3.65,4.47-3.76-.68-5.43-1.78-6-4.45h-.3l11.43,24.37,8.64,0L761,128.31c3,.52,7.31-1.61,8.77,3.1h3a3.61,3.61,0,0,0,.38-.42c0,.14,0,.28,0,.42l8.62,0L770.31,107Zm13.37,15.32a13.91,13.91,0,0,1,1.43.44c0,.51-.07,1-.1,1.53-1.8-.35-3.62-.63-5.38-1.11-.26-.07-.26-1-.38-1.61C760.12,121.88,761.6,122.1,763.08,122.38Zm-5-7.33c-1.24-2.38-2.48-4.76-4-7.61C760.07,108.51,757.17,112.57,758.09,115.05ZM638.54,7.38a12.45,12.45,0,0,0,3.3,1c.18-1.24.36-2.49.54-3.78l-6.55-1.38c0-.36.09-.71.14-1,2.15-.16,4.3-.29,7.17-.49L640.75.31l-3.31,0-.15.45-7.1-.09c0-.12,0-.23-.05-.34h-2.41s0,0,0,0l-.06,0h-.35V3.22A28.27,28.27,0,0,1,638.54,7.38ZM429,197.69h.06s0,0,0-.07A.21.21,0,0,1,429,197.69ZM407,192.61l0-1.08c4.75,0,5.21-.39,3.95-3.37l-6.7,1.84c-.75-1.72-.95-3.35-1.86-4-2.8-2.09-3-4.18-.93-6.08l-5-3.63h-3.22c0,1.88-.08,3.57-.13,5.53l3.13,1.76-6.47,2.61c-2.89-1.43-4.22-6.25-9.08-3.46l6.77,4.47c-.05.35-.09.69-.13,1l-4.31-.05c.11.44.26,1.05.38,1.58L379,191.8v0a14.63,14.63,0,0,1,7.1.39v-.82a2.85,2.85,0,1,1,5.69,0V194a18,18,0,0,0,8.59.87l2-1.75c.59,1.32,1.73,2.69,1.64,4-.13,1.61-1.26,3.14-2.06,4.92l-3-2.65-3.65,4.78,9.58,0c-1-1.8-.64-2.22.41-3.41l3.47,3.27.87-.46-2.06-4.76a.43.43,0,0,0-.12-.05l.08,0c-.31-.75-.63-1.51-.95-2.26.87-.36,2.06-1.25,2.55-1a55.74,55.74,0,0,1,5.53,4.07l-.54.86a25.55,25.55,0,0,0-3.82-1.81,7.89,7.89,0,0,0-2.76.13s0,.05,0,.07c3.5,1.54,4.49,3.1,3.07,5.34l5,0,0-11.76ZM395.58,19.8c-.12.09-1.08.92-2,1.74-.6-1.31-1.74-2.69-1.65-3.95.13-1.61,1.26-3.14,2.06-4.92l3,2.65,4.13-5.41,5.6,1.18c-4.74-1.71-5.12-2-4.71-4.55,5,2.61,6.9,2.54,10.13-.41,1.21,1.1,2.14,2,2.84,2.74l0-7.75-10.88,0,.53,1a26.78,26.78,0,0,0-4.16,1.51c-.71.41-1.12,1.32-1.67,2-.52-.65-1.52-1.34-1.46-1.93a5.77,5.77,0,0,1,1-2.57l-3.29,0c-.63,1.76-1.22,3.42-1.8,5L392,6.28c-.31-1-.56-2-.92-2.92l0,7.38c.67,1.34.6,1.89,0,2.64v.32a2.8,2.8,0,0,1-2.55,2.79l.75,1.8c-.87.36-2.06,1.25-2.55,1a56.81,56.81,0,0,1-5.52-4.07c.17-.28.35-.58.53-.86a25.19,25.19,0,0,0,3.83,1.81,3.42,3.42,0,0,0,1.36.05,2.8,2.8,0,0,1-1.43-1.92c-1.19-1.11-1.21-2.35-.12-3.91l0-4.78L380.18,3c.32-.55.64-1.11.95-1.67l4.3,2.53V1.22l-8.86,0c0,1,.08,1.92.12,2.85l.06,0,.1.1,8.09,3.08c-.1.47-.19.94-.28,1.42-.95.08-2.23.6-2.79.17a61.4,61.4,0,0,1-5-4.67.75.75,0,0,1-.13-.06l-2,3.77c3.95,1.35,1.63,4.35,1.68,6.66.06,2.94-.82,6.19,3.58,6.87.27,0,.35,1.31.27,1L389,22c0,.35,0,.71,0,1.07-4.75,0-5.21.39-4,3.37l6.7-1.84c.75,1.72,1,3.35,1.86,4,.05,0,.07.08.12.11l11.79,0,.67-.28c.14.07.27.19.41.28l3.81,0-1.9-1.26c0-.34.09-.69.14-1l4.29,0c-.1-.44-.25-1-.38-1.58L417,22.84v0C409.5,24.48,403.5,18.4,395.58,19.8Zm-9.54,9,4.3,0c.23-.38.5-.77.83-1.22Zm116.13-1c-1.53-1.09-2.61-2-3.8-2.66-3.45-2-6.76-4.6-11.18-3.69a30.48,30.48,0,0,1-3.93.89,8.14,8.14,0,0,1-2.49-.68,18.83,18.83,0,0,0-.39,3.15,23.46,23.46,0,0,0,.61,3.41L474.53,28c.2-3.09.38-5.51.55-8.09l4.15-1.25-6.66-3.86c-.68,1-1.67,2.55-2.65,4.07-.07-3.21-1.58-4.32-4.35-4.55a21.76,21.76,0,0,1-5.5-1.27,10.12,10.12,0,0,1-2.58-2l.6-.64,5.28.69c.09-4.2-6.62-3.08-4.75-7.93A8.07,8.07,0,0,1,452.23,1h-2.07l0,10.7c5-.13-.35-2.77.82-3.83,3.44.31,4.15,2.42,2.25,5.89,1,.95,1.88,1.84,2.79,2.73-.3.29-.59.59-.89.89-2.4-1.06-4.75-2.18-5-5.48v1.59a2.85,2.85,0,1,1-5.69,0v-.87A13,13,0,0,1,435,9.44c.35,1.74.57,2.87.93,4.7l-5.08-3,3.1-3.91L434.24,6c-4.76,1.75-8.58,1.18-10.91-4.48-.84,2.62-1.24,3.85-1.79,5.58l-.88-.4,0,6.92a2.85,2.85,0,1,1-5.69,0v0c-1.45-1.23-2.93-2.49-4.45-3.76l-.91.7c1.27,2.19,2,5.37,3.94,6.35,2.87,1.47,3.78,3.1,3.39,5.95H417l-.07.05,4.87-1.08c.32,1,.63,1.92.85,2.61a8.21,8.21,0,0,1,2.8-.36c2,.47,3.89,1.22,5.81,1.86-.59.34-1.33,1.06-1.74.91-2.68-1-3.28.66-3.61,1.43.16.17.25.27.39.44l5.36,0c.86-.86,1.82-1.81,3.19-3.2l-3.54.42,0,.05c-1.86-2.27-3.73-4.53-5.75-7L433,21.32c-1.25-3.62-6.65-3.29-4.37-7.54,3.21,3.93,4,6.68,10,1.06a8.09,8.09,0,0,1-1.14,3.48c-1.34,2-1.11,3.58,1.31,4,3,.45,3.23,2.42,3.29,4.72,0,.52,0,1.08.07,1.61l4,0c.85-1.68-2.35-4.09-2.85-6.51,2.44,1,5,1.28,5.49,2.44a7.27,7.27,0,0,1,.13,4.07l8.07,0c.2-.91.38-1.77.57-2.69l7,2.56a1.48,1.48,0,0,1-.27.1l30.59-.1c-2.3-1.41-4.74-2.74-8.1-2.36-1.66,1-1.66,1-3.56-1.54,5-1.54,13.18.45,17.71,3.88l3.93,0L502.55,24C502.37,25.8,502.29,26.56,502.17,27.79ZM708.93,3.53,707,.07l-7.37,0L708,4C708.32,3.84,708.63,3.69,708.93,3.53Zm-16.88.1-5.69-.19V4.53c1.83.35,3.66.72,5.48,1.06.35.06.92,0,1.08-.18,1.31-1.74,2.57-3.53,3.84-5.3l-5.25,0C692.07,1.37,692.68,2.64,692.05,3.63ZM129.49,197c-.82-.66-1.73-1.24-3.4-2.4l0,10.49,10.35,0c-1.5-2-3-3.9-4.6-5.83A14.4,14.4,0,0,0,129.49,197ZM751.7,6.89c0,.19,0,.39,0,.58a63.58,63.58,0,0,0,7.45-.59c.7-.12,1.16-1.54,1.73-2.38a10.49,10.49,0,0,0-2.64.14C756,5.29,753.88,6.12,751.7,6.89ZM165.07,203.05c-2.82-.73-4.82-5.25-8.77-1.39a.93.93,0,0,1-.66.11v1.16a5.12,5.12,0,0,0,4.17-1.42l4.69,2.66C164.7,203.8,164.89,203.43,165.07,203.05ZM36.8,125.81c.1-.24,1.24-.34,1.74-.14s1,.36,1.45.51l-7.76-16.54-14.47,0,9.09.58c-.72.61-1.36,1.1-2,1.56,1,.54,1.93,1.06,2.89,1.59-1.45.44-2.89.88-4.34,1.34l-.27-.83c-.52-.05-1.06-.08-1.59-.14-2.73,1.07-4.39-.29-6.54-4.09l-6,0,1.64,3.51,11.7,3c-.11.57-.22,1.14-.32,1.71l-1.13.11,2,1-.57,1.45,3.1-.58s-.15-.91-.38-2.34l11.82,6.14c-1.7.58-3.42,1.76-4.94,1.54-3.57-.54-7.12-1.32-10.66-2.1-.27.67-.53,1.34-.81,2,3.68.62,7,1.18,10.37,1.68C32.87,127.18,35.39,129.66,36.8,125.81Zm-32.25-5a4.11,4.11,0,0,1-1.2,0c0,.14,0,.26,0,.4A16.52,16.52,0,0,1,6.23,121,3.74,3.74,0,0,0,4.55,120.76ZM63.32,94.38,73,73.44l-14.8.06a11.29,11.29,0,0,1,1.33.36A27.22,27.22,0,0,1,65,77.48c.15.12-.76,1.59-1.5,3.08-.89-3.63-2.38-4.64-5.24-4-3.36.81-4.68-.35-4.74-3.1l-3.82,0L38.35,98.23l22.77-.08c.6-1.48,1.17-2.94,1.75-4.39Zm-3.25.17-8.48,2.1C49.82,94.4,52,93.33,55,91.82c-3.62,0-6.07-.09-8.52-.11,0-.39,0-.77,0-1.15l2.72-1.1c0-.22-.08-.45-.11-.68L44.22,88C51.2,85.52,54.52,91.81,60.07,94.55Zm88.38,104.09a6.94,6.94,0,0,0,1.5,1.86v-1ZM698.57,24.9c-.71.31-2.2-1.12-3.33-1.74.11-.48.21-1,.32-1.44,3.8,3.14,4.89-1.27,7.18-2.17l8.51,7.34L712,26l-6.43-7.45,3.35-.07c-1.71-1.61-3.67-2.38-5.44-3.44a4.58,4.58,0,0,1-1.7-2.33c-.1-.27,1-1,1.94-1.79l-6.67-2.47c.92,2.62,1.62,4.35,2.13,6.13.42,1.47.61,3,.9,4.48-1.37-.26-3.05-.11-4.06-.85-3.31-2.47-6.47-5.13-9.65-7.76v2.15a2.86,2.86,0,0,1-.71,1.84l1.6-.09c3,5.44,3,5.44-4.37,6a13.18,13.18,0,0,0-1.49-3,20.36,20.36,0,0,0-3.32-2.51l3.5-.19a2.85,2.85,0,0,1-.9-2.05l0-4.16-.06,0s0-.06.06-.09V5.3a7.07,7.07,0,0,1-1.37-2.08l-2.86,2.12c-.3-1.59-.59-3.16-1-5.16L664.71.23,666.27,2l-.78.86c-1-.88-1.92-1.76-2.88-2.63l-5.79,0,0,5.67.07.14a111.54,111.54,0,0,0,7.16,9.37,14.91,14.91,0,0,0,2.4,2.22c.83.66,1.74,1.24,3.43,2.43l-7.29,1.62-6.41-7.21A2.76,2.76,0,0,1,654,15.6a2.8,2.8,0,0,1-1.65-.58c.91,4.2-.73,9.32,5.59,12.28l-2.62.54,28.93-.1-2.79-2.39c-.17-.7-.35-1.39-.52-2.09a16.22,16.22,0,0,1,4.18-1.12A3,3,0,0,1,687.31,24a27.78,27.78,0,0,1,.72,3.75l5.6,0a25,25,0,0,1-4.7-6l4.89-2.75c-1.79,5.49.38,7.37,3.22,8.78l9.24,0C704.26,25.63,702.43,23.18,698.57,24.9ZM681.11,23l-3.75-1c-.93.28-2.44,1.08-2.69.79a43.08,43.08,0,0,1-4-5.65,6.78,6.78,0,0,1-.47-2.3c.72,0,1.69-.36,2.1,0,1.94,1.64,3.72,3.46,5.56,5.21.19-.86.38-1.74.56-2.6.87.56,2.2.95,2.51,1.73C681.4,20.33,681.1,21.75,681.11,23ZM12.78,76.11l1.13-2.45H10.72c.63.86,1.26,1.74,1.94,2.65ZM32.89,92.26a14.9,14.9,0,0,1-1.44-.44c0-.51.07-1,.11-1.53,1.27.25,2.56.49,3.83.76l8.06-17.5H41.28c.21,1.28-.66,2.88-.81,4.35l-3.92-.83c0-.27,0-.54,0-.81,1-.46,2.09-.92,3.32-1.48-.23-.44-.42-.83-.63-1.23l-11.49,0c1.16.6,2.32,1.22,3.48,1.81-.62.55-1.55,1.67-1.81,1.52a55.45,55.45,0,0,1-4.94-3.2l.08-.12H21.35L21,73.9l-.62-.26H20.2L17.73,79l2.59.86c-1.14.28-2.2.46-3.31.69L8.83,98.33H12L10.3,96.4c.85-.46,1.94-1.49,2.52-1.26a8,8,0,0,1,3.57,2.73c.06.09,0,.25-.06.44l15.74-.06,2.62-5.68ZM22.22,75.62c.85.78.76,2.12,1.16,2.3,5.05,2.09.94,3.87-.5,5.74Zm3.64,6.11L35,86.33C31.7,85.76,26.81,88.47,25.86,81.73ZM9.78,62.44V54.82L8.51,54.7,4.75,58.84c1,1.56,1.52,3.28.92,4.28-1,1.72-2.54,3.64-5.47,2.1V68l9.1,0c-.66-.85-1.3-1.7-2-2.54l.89-1c1.51,1.14,3,2.26,4.49,3.48h3V64.79Zm12-8.13a2.47,2.47,0,0,1-.38,0v.26Zm8.4-18.54c1.16.79,1.93,2,1.76,4.25l-4.06-.86,1.31-1.86L28,35.78l-6.69,0,0,10.13c1.09,2.3,2.16,4.62,3.12,7,1.14,2.83,2.17,5.67.48,9.07-.57,1.14,1.85,3.8,3,5.68a16.65,16.65,0,0,0,2-1l1.33,1.2,14-.05-.12-32.13Zm3.08,28.11,6.92-.83C38.29,66.83,36.61,67.09,33.23,63.88Zm2.55-2.24-5-4,6.91-1.16Zm8-12.38c-.85,1.23-1.43,3.15-2.58,3.58-8.13,3-11,2.38-14.8-3.36,3.19,1,5.78,2.69,8.19,2.47,2.84-.25,5.54-2.14,8.29-3.33ZM31.3,41.5l.21.41c1.31.8,2.65,1.59,4.1,2.48-1.13,1.25-1.83,2-1.82,2-.77-1.52-1.53-3-2.28-4.47l-1.17-.71ZM366.93,17h-.06l0,.06ZM3.8,88.23A18.13,18.13,0,0,1,6.86,89l3.32-7.21c-1.2.18-2.41.38-3.59.53-.42.06-1.26-.66-1.34-1.11a2.42,2.42,0,0,1,.59-1.94C7.16,78.1,8.65,77.13,10.15,76c-.12-.7-.25-1.53-.38-2.36l-9.54,0L.32,98.36H2.55l3.24-7C5.17,90.37,4.53,89.37,3.8,88.23ZM1.74,52.84l4.19,1.29c-.23-1.77-.35-2.85-.55-4.42L7.82,51.9c3.94-2,.17-4.29.38-5.53,1.37-2.07,2.25-3.51,3.28-4.87a2.15,2.15,0,0,1,1.57-.79c.4,0,1.12.9,1,1.23-.91,3.75-1.95,7.48-3,11.5.85.92,2.22,2.36,3.58,3.82-.2.18-.4.37-.6.54l-2.13-1.26-.32.49c.88,1.18,1.77,2.35,2.59,3.43l1.53-1.24V54.71a3.26,3.26,0,0,1-.45-.09c-1-.45-1-3.28-1.66-5.81l2.09.61-.05-13.6H12.17A7.35,7.35,0,0,1,13.84,38c-2.9.48-5.9,1.1-8.94,1.4-.61.06-1.5-.88-2-1.56a5.89,5.89,0,0,1-.66-2H1.85A4.87,4.87,0,0,1,.1,37.63l0,11.82c1.81.17,2.29,1.26,1.54,3.3h.05A.22.22,0,0,0,1.74,52.84Zm.74,5.76c-.13-1.93-.48-3.85-.74-5.76l-.08,0a.07.07,0,0,1,0-.06L.15,52.36l0,4.89a1.47,1.47,0,0,1,0,1.38v3.25l.15,0c0,.09-.09.16-.15.25V64.8c1-.7,1.73-1.24,2.18-1.58A43.48,43.48,0,0,0,2.48,58.6ZM775.59,190l0,12.74,18-.06,0-3.72-5.44,1.74,2.3-6.42c1,1.23,1.94,2.36,3.14,3.82l-.06-16.3c-.26.32-.75.47-1.74.24-3.9-.93-8-1.79-9.73-5.39,2.9-.48,5.9-1.1,8.93-1.4.62-.07,1.5.87,2,1.56a4.19,4.19,0,0,1,.56,1.52l0-3.49-13.83,0-1.86.61c-.09-.2-.19-.41-.29-.61l-12.05,0,2.58.55-1.31,1.87,2.16,2.8.14,0a.09.09,0,0,1,0,.05c2.13,0,4.35-.42,6.36,0,2.73.63,6.52-1,8.48,4.18-4.7-4.81-8.38-1.79-12.51-.08l-2.33-4.15H769l-.07-.09c-2.57-.73-5.05-1.56-4.91-5.21l-147.68.53a18.43,18.43,0,0,1,1.17,3.5,7.72,7.72,0,0,1-2.76-2.09c-.43-.46-.84-.93-1.26-1.4L469.59,176l1.55,2.67-1.3.5c-.35-1.06-.71-2.11-1.06-3.16l-17.82.06,2.36.28-1.63,4.06c-2-.83-3.68-1.51-5.36-2.29-1.11-.5-2.14-1.16-3.21-1.75l.14-.27-8.61,0c-.08.77-.18,1.55-.29,2.49l-4.77-1.8c.25-.26.42-.45.65-.68l-20.54.08c-1.24,1-2.26,2.06-2.8,1.86a4.61,4.61,0,0,1-1.88-1.85h-1.95c.33,1.63.64,3.33,1.65,4.36,2,2,2.44,3.34.07,6.48L417.66,184c1.23,4.07,1.23,4.07,3.25,2,1.8,1.92,1.77,5.9,6.64,5.28-1.75-2.49-3.23-4.57-4.7-6.68,1.31.36,3.24.28,3.85,1.14,1.7,2.38,3.72,2.92,6.44,2.87,1.36,0,2.73,1,4.09,1.55-.09.36-.18.73-.28,1.09l3.39-1.23c1.25,3.6,0,6.06-3.14,8l3.54-1.18,4.44,4.19,0-9.75a2.85,2.85,0,1,1,5.69,0l0,6.62,3.34.26c.07-.24.14-.49.22-.73l-2.37-1.75.58-1.12c1.39.76,3.13,1.22,4,2.35.56.7,0,2.48-.34,3.67a25.33,25.33,0,0,1-1.59,3.44l5.41,0a4.74,4.74,0,0,0,.93-1.7c-.78-.4-1.79-.6-2-1.13a4.4,4.4,0,0,1-.07-2.8,2,2,0,0,1,1.8-.74c2,1,3.93,2.24,6.05,3.5l-5.38,2.58.7.28,12.53,0,0-12.74a2.85,2.85,0,1,1,5.69,0l.05,12.74,5.83,0-4.36-2.9c5.28.12,5.81.63,4.92,2.9h2.51c.36-.37.76-.76,1.32-1.3a10.14,10.14,0,0,0,.08,1.29l13.53,0V203l-12-1.61c.05-.41.1-.83.14-1.25,3.78-1,8,2.93,11.83-.15l0-9a2.85,2.85,0,1,1,5.69,0v2l.27-.2,4.57,5.46-1,1.37-3.83-1.15,0,5.24,7.63,0c-2.19-1.78-2.53-4.4-1.27-8.6l1.11-.19c.64,2.88,1.28,5.79,1.94,8.78H523a7.78,7.78,0,0,0-1.66-1.87l2-.61-2.43-4.78c3-1.76,3.62-.17,3.93,2.29a8,8,0,0,0,2.6,4.95l6.4,0,0-12.75a2.85,2.85,0,1,1,5.69,0l0,12.75,23.84-.09,0-12.74a2.85,2.85,0,1,1,5.69,0l.05,12.74,23.83-.08,0-12.75a2.85,2.85,0,1,1,5.69,0l0,12.74,23.83-.08,0-12.74a2.85,2.85,0,1,1,5.69,0l0,12.74,7.3,0,2.2-1.06,2.17,1,12.15,0,0-12.75a2.85,2.85,0,1,1,5.69,0l0,12.75,23.83-.09,0-12.74a2.85,2.85,0,1,1,5.69,0l0,12.75L710.9,203l0-12.75a2.85,2.85,0,1,1,5.69,0L716.6,203l23.82-.09,0-12.75a2.85,2.85,0,0,1,5.69,0l0,12.75,23.84-.09L769.9,190a2.85,2.85,0,0,1,5.69,0Zm-163.4,8.7c-6.33-1-6.92-.71-7.05,3.35l-1.35-7.9C603.21,193.71,610.86,195.84,612.19,198.7Zm87,1c-.26.51-.52,1-.77,1.52l-6.88-3.39c.26-.42.53-.85.81-1.27Zm-9.62-21,6.35,4.19-.86,1.26-6.23-4.4Zm-225,9.91c.72,0,1.4.68,2.36,1.18-4.37,2.23-11.63-.8-15.2-7.12,1.52.42,3.62.38,4.46,1.38C458.47,186.77,461,188.4,464.57,188.62ZM679,188.38c-4.89,3.48-4.89,3.48-6.43,1.41q3-1.18,6.06-2.39C678.77,187.73,678.9,188.05,679,188.38ZM786.9,187c-.52-1.48-1-2.95-2-5.55,2.11,1.18,3.57,1.64,4.39,2.63.3.38-.89,2-1.41,3Zm3.13-26.5c.23,1.77.36,2.84.56,4.42l-1.22-1.08,0,5.31h4.17l0-7.56ZM2.7,109.74H.58a7.58,7.58,0,0,1,1.78,2.19,6.2,6.2,0,0,0,1.28-.19ZM720.18,19.8c-2.23-.45-4.46-1-6.71-1.32a13.58,13.58,0,0,0-2.87.29l6.94,8.13c.41-1.19.66-2,1-2.73Q719.33,22,720.18,19.8Zm68.23,4.6c.42-1.3.83-2.55,1.2-3.67l-6-2.37C783.21,21,783.21,21,788.41,24.4ZM367,4.93c-1.36,2.5-3.07,3.2-5.36,2.43V10.8l4.17.39c-.67,1.23-1.17,2.15-1.7,3.14L361.63,13v.82a2.79,2.79,0,0,1-.83,2c2.07,1.28,4.33,2.11,5.61,1.71.2-.06.3-.39.46-.59h0c-.32-.82-1-1.72-.8-2.41a62.72,62.72,0,0,1,2.13-6l4.68-.36.63-1.37-3.4-2.32L374.62,2c-.15-.26-.31-.51-.46-.75l-12.57,0V5Zm313.7-1.67c-.34,0-.67,0-1,0l1,.19Zm-1,0-.4-.08a.15.15,0,0,0,0,.07h.37ZM.93,2.6q.34.42.69.81V2.6Zm.73,10.76V10.13L0,10.77v2.89l.87-.93ZM332.08,6V7.78l2.8.11A24,24,0,0,0,332.08,6Zm45.15,19,1.55-1c-3.94-1.95-4.86-5-4.45-8.79.05-.54-1.64-1.82-2.51-1.8a6.91,6.91,0,0,0-3.44,1.56A7.22,7.22,0,0,0,366.93,17l3.59.76ZM292.77,7.56c1.15,0,2.2.08,4.1.13V5.56a4.16,4.16,0,0,1-2.53-3.86s0,0,0,0C294.05,3.76,289.47,4.82,292.77,7.56Zm1.56-5.89,0,.07c0-.05,0-.13,0-.19h-.18c0,.06.08.08.11.14S294.33,1.68,294.33,1.67ZM379,191.78l-4.86,1.08c-.33-1-.64-1.91-.86-2.6a8.43,8.43,0,0,1-2.8.35c-2-.47-3.88-1.22-5.81-1.85.59-.35,1.34-1.07,1.74-.92,2.68,1,3.28-.66,3.61-1.42-1.6-1.76-2.61-2.87-3.6-4-.07-.1.13-.44.28-.85.77.17,1.56.34,2.72.57l-1.13-1.55c.74-1.52,1.4-2.84,2.08-4.23l-17.49.07a.79.79,0,0,1,0,.13,1.72,1.72,0,0,1-1.59.37c-.17-.16-.31-.33-.47-.5l-18.38.06-3.87,3.92a12.6,12.6,0,0,1,1.45-3.91l-94.34.34c.2,1.06.42,2.16.68,3.56l2.85.61c-.76,1.51-1.35,2.71-1.76,3.53,2.78,1.83,5.35,3.53,8.06,5.34l2.46-2.51c2.79,2.37,5.45,4.62,8.34,7.09.23-1.78.43-3.29.68-5.21.56.72.73,1.11,1,1.29,1.17.75,2.38,1.43,3.58,2.14l.55-1.07c-.64-.68-1.29-1.35-2.37-2.48,1.21,0,1.79,0,2.37,0a5.89,5.89,0,0,0,1.84-.26c3.11-1.39,3.48-1.56,4.73,1.22a2.82,2.82,0,0,1,2.17-1.09c.14,0,.26.06.4.08l-4.59-6.16.93-.9c1.68,2.8,3.5,4.71,7.09,3.27.7-.28,2.47,1.89,3.66,3,.7.68,1.06,1.92,1.85,2.27a57,57,0,0,0,6.16,2c-.07-1.83-2.91-4.42.85-6.07.49,1.6.86,2.84,1.37,4.55.79-2.05,1.35-3.5,2.14-5.57l2.71,5.19c.19-1.81.26-2.57.38-3.8,1.54,1.08,2.62,2,3.8,2.65l.63.39a2.81,2.81,0,0,1,1.81-1c-3.4-1.29-6.35-3.19-7.62-5.41,6.48-1.28,9.49,5.89,16.78,5.08,1.67-1,1.67-1,3.57,1.54-2.86.87-6.73.58-10.37-.43a2.85,2.85,0,0,1,.83,2v.92a9.34,9.34,0,0,0,5.54.58,32.35,32.35,0,0,1,3.94-.88,7.86,7.86,0,0,1,2.49.68,19.94,19.94,0,0,0,.39-3.15,23.56,23.56,0,0,0-.62-3.41l6.47.26c-.21,3.09-.38,5.52-.56,8.1L316.73,196l6.67,3.86c.67-1,1.66-2.56,2.65-4.07a4.7,4.7,0,0,0,1,3.18l0-7.39a2.85,2.85,0,1,1,5.69,0l0,9.18a23.65,23.65,0,0,1,3.12.88,10,10,0,0,1,2.58,2c-.21.22-.41.42-.61.64h3.82a6.6,6.6,0,0,1,1-3.42l-2.79-2.72.88-.89c2.46,1.09,4.9,2.21,5,5.67h.06l-.05,0s0,0,0,0c-2.33.06-2.45.64-2,1.35h2.54c-.14-.44-.27-.88-.43-1.32,3.63-.94,7.22-1.46,10.74-.25l0-10.51c-2.35-.64-2.57-2.45-2.63-4.57,0-1-.09-2.11-.14-3.3-8.11,1.29-1.83,4.75-1.1,8.23-2.45-1-5-1.28-5.49-2.44-1.32-3,1.68-6.73-1.28-9.7.73-.56,1.43-1.5,2.2-1.57.92-.08,1.89.81,2.88.9,2.06.2,4.17.07,6.24.22,1.3.1,2.84.1,3.81.8a30.35,30.35,0,0,1,4.12,4.31l-4.11,4.12,3.55-.42-.05-.05c1.87,2.26,3.73,4.54,5.75,7L363,193.32c1.25,3.62,6.65,3.3,4.38,7.55-2-2.49-3.08-4.49-5.09-4.22v5.16l2.86,1.68-.59.72,15.21-.05c-.76-1.33-.51-2.32.39-3.78,1.43,1.2,2.94,2.49,4.44,3.76h1.54v-.41c-1.15-2.17-1.95-5-3.75-6-2.86-1.47-3.78-3.09-3.39-6h-.06Zm-40.56-3-7-2.56,8.25-3.23Zm-136.61,16,5.36,0c.49-1.07,1.26-2.3,1.79-3.56A71.13,71.13,0,0,1,201.83,204.8ZM351,204.26h2.11C352.2,203.71,351.51,203.63,351,204.26Zm40.88-.14H392l-.12,0Zm-159.08-9a41.3,41.3,0,0,0-4.71,1.83c-2,1.12-3.86,2.44-6.47,4.12,3.58.25,6.24,1,5.93,3.63l5.8,0-1.69-3.14C233.22,199.32,235.5,196.9,232.76,195.13ZM72.39,161.56a66,66,0,0,1-4.54-7.73L66,154.94c1.19,1.86,2.53,3.64,3.53,5.59s1.82,4.31,2.71,6.48a5.61,5.61,0,0,1-3.22-2.66c-.9-1.52-1.43-2.55-3.81-2.76-3.4-.29-6.67-2.1-10-3.27-1.17-.3-2.61.38-4,.51v2.25c.64.17,1.18.16,1.48-.17,2.46-2.61,3.4-.65,4.93,1l-2,1.09,1.89,2.07-.48.79-5.82-2.39v4.09a1.89,1.89,0,0,0,.41,0c2.42,0,4.87-.6,7.28-.45a5.37,5.37,0,0,1,3.19,2.06c.3.36-.21,1.41-.57,2.56h2.93c0-.64.06-1.25.09-1.95l5.94,1.92h4.58l0-8.45A6,6,0,0,1,72.39,161.56Zm157.85,19.22c.4,1.32.09,3.07.85,4.06a25.55,25.55,0,0,0,7.53,6.39,2.81,2.81,0,0,1,.66-1.28l-2.21-1.35a4.38,4.38,0,0,1-1.69-1.41c-1-2.05-1.92-4.19-2.61-5.74.68-1.76,1.25-3.19,1.81-4.62l-9.81,0c1.35.65,2.71,1.27,4,1.93A3.48,3.48,0,0,1,230.24,180.78Zm28.6,23.81h3.68l-4.41-.94C258.36,204,258.6,204.3,258.84,204.59ZM38.38,154.16,32.29,151c0,1.9,0,3.79-.07,5.76l5.67-1.65ZM746.39,4c.12-.49.23-1,.34-1.45l-1.33-.28V3.72ZM229.68,190.23c-1.77-2.55-3.4-4.93-5.37-7.77,1.61-.32,2.48-.48,3.38-.65l-4.34-3.3c-.19,2.46-.36,4.68-.56,7.3l-3,1.5c1.25,2.65,2.48,5.23,3.7,7.82l1.16-.46c-.31-1.06-.63-2.13-.9-3Zm7.52,14.44h1.12l-1.07-.22Zm-22.51-3v.4a1.73,1.73,0,0,1,.17-.21C214.8,201.74,214.74,201.69,214.69,201.62Zm29.5-7.86v.11a2,2,0,0,1,.22.09C244.33,193.88,244.25,193.84,244.19,193.76ZM100,64l4.31,3.17-.11-31.64-23.83.08L80.45,62l4-3.35c.45,1.54.69,4.7,1.57,4.89a13,13,0,0,1,7.17,4.16l8.78,0-3-2.39C99.3,64.83,99.65,64.41,100,64ZM515.78,24.1a58.53,58.53,0,0,0-6.16-2c.07,1.84,2.91,4.43-.85,6.09-.48-1.61-.86-2.86-1.37-4.56-.67,1.76-1.2,3.13-1.83,4.77l14-.05c-.66-.63-1.35-1.42-1.92-2S516.58,24.46,515.78,24.1Zm-94.2-23h-.94V2Zm-352.33,94-.4.85.82,0C69.54,95.68,69.39,95.4,69.25,95.14ZM440.86,6l-4,.36c2,1.3,3.8,2.32,5.41,3.59.94.75,1.64,1,2.24.73l0-8A5.4,5.4,0,0,0,444.12,1l-8.19,0-4.2.82C433.12,5.63,439.07,1.26,440.86,6Zm-373,92.11H69c-.25-.21-.49-.41-.79-.64Zm26-8.43.85.51,7.77-16.87H97c.3.59.6,1.18.89,1.77.6,1.2,1,2.5,1.56,3.81-2.16-2-4.32-3.75-6.39-5.56l-13.78,0L71.29,90.69a9.77,9.77,0,0,0,1.08,1.91,15.61,15.61,0,0,0,2.3,2h0L79,89.1c1,2.15,1.69,3.68,2.63,5.75l-6.86-.28,0,0,0,0c-1.73,1.28-2.47,2.44-2.61,3.54l6,0a12.36,12.36,0,0,1,4.44-2.22c2.24-.52,3.22.32,3.06,2.19l5.59,0,3-6.57Q94,90.69,93.87,89.7Zm-57.6,60.66-2.52-4.16c4.92-.63,4.85,3,6.35,4.87a1.23,1.23,0,0,1,0,.92l2.69,1.15.15-1c-1.49-2.22-2.73-4.06-4.1-6.12l2-1.86-6.21-4.41h-2.5l2.4,2.85c-.86,4.36-3.63,2.8-6.24,1.46-.07,1-.12,1.7-.23,3.2l-.37-.26c-.05.61-.12,1.28-.19,2l4.75,2-.8-2.64Zm-14.59-8.2v1.65l2.62.67C23.37,143.73,22.5,143,21.68,142.16ZM97.55,109.4l5,10.62c2.73.71,6.32-2.11,8.09,2.24.26.63-.28,1.58-.45,2.39l-.44,0c-.15-.89-.3-1.8-.4-2.37l-6.07-.68,5.72,12.2h.08l4-1.59c-.3.62-.55,1.11-.78,1.58l20-.07L120.8,109.32Zm30.2,16.39c-4.13,2.68-9.24.36-12.66-5.88ZM32.23,151a.11.11,0,0,0,0,.06l0,0V151Zm241.51,53.59h.2a4.73,4.73,0,0,0-.2-.47ZM764.21,65.28h3.28l-3.75-1.58C763.89,64.19,764.05,64.75,764.21,65.28Zm-115-41.94c-.23,1.08-.46,2.17-.77,3.65-4-3.08-8-5.73-8.8-11.21-.47,1-.93,2-1.38,2.86-3.68-.22-9.65-5.19-11-8.89v3.1a2.83,2.83,0,0,1-1.62,2.55,45.22,45.22,0,0,1,5.17,2.31c.61.33.53,1.94.77,3a9.88,9.88,0,0,1-2.47-.36,11.11,11.11,0,0,1-2.76-1.67c-1.34-1.09-2.58-2.31-3.87-3.46,0,0,.1-.1.15-.15a2.76,2.76,0,0,1-1.07-2.16V11c-.43-.28-.87-.52-1.28-.81A24.49,24.49,0,0,1,618,8c-.62.8-1.24,1.61-1.57,2C615,8.49,613.34,7,612,5.25a9.56,9.56,0,0,1-1.07-3l-.08-.09,0,0s0,.09,0,.12c1.62,1.87,3.16,2.5,4.51-.81,2.14,2.27,4.18,4.44,6.21,6.58V5l-2-3.28,2,.44V.38l-9.12,0c0,.55-.56,1.14-1.62,1.71A4.88,4.88,0,0,0,609.29.42l-11.52,0,0,8.3c2.25-.52,4.41-.86,6.06-1.21l10.46,5.16c-.22.45-.45.9-.68,1.35-1.5-.7-3-1.4-5-2.29,0,1.39,0,2.56-.06,3.52l-10.49-4.57-.31.56v.77L611,22.44l-.31.15c1.78,1,3.57,1.92,5.8,3.09l-6.67.76A4.08,4.08,0,0,1,612.7,28l4.24,0c1.13-1.41,3.9-.22,5.52-1.13-.12.36-.25.74-.37,1.12l2.81,0a3.6,3.6,0,0,0-.19-2.69,7.47,7.47,0,0,1,0-2.74l0-.05-.06-.07-8.2-2.59c3.79-1.56,6.58-.8,8.2,2.59l.11,0,0,0,0,0a.29.29,0,0,0,0,.09,49.32,49.32,0,0,0,3.57,3.79,7.89,7.89,0,0,0,2.51,1c.07-.88.15-1.77.24-2.93,3.63.62,2.92,2,1.85,3.55l5.57,0a18.06,18.06,0,0,1,.78-3.35c.87.33,1.75.64,2.61,1,.7.27,1.39.54,2.07.86,1.06.49,2.1,1,3.15,1.47l5.49,0-2.43-4.76ZM763.67,63.6v.06l.07,0a.21.21,0,0,1,0-.06ZM783.7,92c1.29.26,2.57.5,3.84.82A3,3,0,0,1,788,93a27.53,27.53,0,0,1-4-2c-.75-.46-1-1.64-1.65-2.34s-1.84-1.1-1.93-1.58l-.9,1.94c.32.44.59.82.91,1.28L779,90l-1,2.15c.54.12,1.06.24,1.59.34,0,.17.09.34.14.5-.49.08-1,.17-1.48.27l.14.23-1.66,2.07,12.33,0-5.8-1.79ZM609.65,26.42l.06,0,.12,0-.15,0ZM759.47,59.08v2.37l4.19,2.15c0-1.9.05-3.79.07-5.76Zm-28.42-47.3c.74.35,2-.45,3.24-.78l-6.84-3.06-.62.64A24.57,24.57,0,0,0,731.05,11.78ZM598.13,21.87A81.89,81.89,0,0,0,606,27.66c.73.43,2.42-.77,3.69-1.24-1.75-.94-3.44-2-5.23-2.81A15.76,15.76,0,0,0,598.13,21.87ZM715.9,11.78v.76a2.52,2.52,0,0,1-.19,1l1.39.53c.19-.54.39-1.09.58-1.64Zm-6.41-.68.73.28V9.85l-.13,0ZM727.76,0h-1.87c.33.48.64.93,1,1.45A5,5,0,0,0,727.76,0Zm-454,192.54a.27.27,0,0,1,.08-.07,1.25,1.25,0,0,0-.09-.12Zm-5.66,10.85V201a3.94,3.94,0,0,1-1.47-.22c-1-.41-1.72-1.38-2.9-1.72C264.52,201.17,266.23,202.33,268.05,203.39Zm5.74-10.92h0v0S273.8,192.46,273.79,192.47ZM791.41,93.88a4.18,4.18,0,0,1,1.21,0c0-.13,0-.26,0-.4a16.69,16.69,0,0,1-2.93.17A3.91,3.91,0,0,0,791.41,93.88ZM303.26,203.47v1l9.35,0-1.47-3.62A8.3,8.3,0,0,1,303.26,203.47ZM296,198.69a28.77,28.77,0,0,0-5.87-6.9c.36,3.55,2.68,6.56,2.21,10.16h0a13.28,13.28,0,0,1,.6,2.52l4.61,0v-3.83A9.88,9.88,0,0,1,296,198.69Zm-7.39,4.89c-1.07-5.93-8-2.51-10-6.22.76-1.08,2-2.24,1.83-2.73-.63-1.39-1.64-3-2.93-3.56-.84-.37-2.42.92-3.67,1.45l0,0a1,1,0,0,0-.09.13l0,5.42a7,7,0,0,1,.95-.61l-.95,2.28v2c1.33.95,2.66,1.92,4,2.88h1.12l2.94-2.59c.19,1,.35,1.85.48,2.58l7.9,0a29,29,0,0,0,2.12-2.5ZM749.8,126.31l-.93-2-2.11.85c0,.22.08.46.11.68ZM268,195.64v-3.82a3.1,3.1,0,0,1,.1-.53l-3.47-.1c-.6,1.31-1.17,2.53-1.79,3.87A7.83,7.83,0,0,0,268,195.64ZM735.9,120.09l8.47-2.1c1.78,2.25-.45,3.32-3.37,4.83l7.21.1-7.42-15.82-23.25.08,5.36,11.43c2.63-3,0-5.44-3.16-8a7,7,0,0,1,4.06-.1,14.41,14.41,0,0,1,3.14,2.41c.52-1.29.92-2.31,1.52-3.84a15.76,15.76,0,0,1,2,1.74c-1.14,1.81-2.44,3.53-3.79,5.39l2.86,2.31c-1.38.07-2.16.11-3.2.18,1.17,2.32,3,4.66-.63,5.8l3.31,7.05,23.25-.08-2.1-4.49C744.24,128,741,122.6,735.9,120.09Zm-6.59-4.4c.31-.19.62-.4.92-.6l4.65,1.27c-.6,1.53-1.2,3-1.78,4.52ZM753.08,166l-.89-.62a22.47,22.47,0,0,1,2-3.14l-.09-25.1-20.1.08a3.55,3.55,0,0,0,3.72.8c3.77-.91,5.08.53,4.78,4.1-2.22-.48-4.25-.59-6-1.36a26,26,0,0,1-5.41-3.54h-.82l.12,32.14,23.83-.08V165.5C753.8,165.67,753.44,165.86,753.08,166ZM737.8,147.42l4.61,1.55c-.26,1.24-.47,2.21-.73,3.44C736.4,151.29,736.34,151.2,737.8,147.42ZM376.14,181.57c-.32,2.37-.57,4.29-.93,7,1.34-1.25,3.28-2.23,3.35-3.32.13-2,1.79-4.48-.87-6.31a7.08,7.08,0,0,1-2.38-2.6l-3.9,0C371.71,179.24,370.34,183.22,376.14,181.57ZM31.15,5.44,27.53,5a9.87,9.87,0,0,0,3.63,2.47Zm154,186.67h0a.91.91,0,0,1,.14-.07l-.17-.1C185.1,192,185.13,192.06,185.13,192.11ZM417.72,28.7l2.69,0c.1-.81.22-1.65.34-2.6A29.1,29.1,0,0,0,417.72,28.7ZM109.87,35.49,110,67.63l23.83-.09L133.7,35.4Zm17.18,31.09-10-5C125.76,61.72,127.09,62.41,127.05,66.58Zm52.4,128.26c-3.76,1.53-6.54.77-8.16-2.6l-.1,0,0,0,0,0a.28.28,0,0,1,0-.09,49.32,49.32,0,0,0-3.57-3.79,7.93,7.93,0,0,0-2.5-1c-.07.88-.15,1.77-.25,2.92-5.17-.88-1.54-3.31-.58-5.57L158,183.35l3.43-1.81c-2.37-1.58-4.53-3.07-6.75-4.42H151.9c.28.59.48,1.3.95,1.59a14.62,14.62,0,0,0,3,1.09L153.67,181c1.4,1.84,3,3.32,3.71,5.13.44,1-.42,2.62-.7,4-.87-.33-1.74-.64-2.6-1-.7-.28-1.4-.55-2.08-.88-2.67-1.23-5.33-2.49-8-3.73l.12-.69,7.7,1.08c-1.48-2.6-5.16-3.43-3.12-7.75l-14.27.06c.72.56,1.45,1.14,2.22,1.63,1.2.76,2.8.89,4.23,1.3l1.18.19c-.78,2.94-4.85,2.2-6.26,4.53-2.12-2.81-3.95-5.22-5.77-7.64h-.22l-.7.55c.34.7.69,1.39,1.51,3.05a28,28,0,0,1-2.67-1.58c-.9-.76-2.74-1-3.26-2l-6,0c.89.69,1.78,1.37,2.8,2.13l-4,2.14c-1.5-1.58-2.83-2.89-4-4.25l-5.25,0a6.47,6.47,0,0,0,1.89.47c3,.42,4.15,2,4.63,4.84-2.79,1-6.83,1.39-7.06-1s-1.75-3.11-2.88-4.27h-1c-.07.37-.15.72-.21,1l-2.95-1-20,.08a18.75,18.75,0,0,0,7.17,8c1.88,1.09,3.2,3.35,5.12,4.41a2.39,2.39,0,0,1,.85-.18,2.79,2.79,0,0,1,1.79.67,6.13,6.13,0,0,0,1.89-.52c.71-.32,2.21,1.12,3.34,1.74-.11.48-.22,1-.32,1.44-1.74-1.43-2.9-1.27-3.87-.61,0,0,0,.08,0,.12v3.2c1.21.14,2.53.14,3.37.77,3.71,2.76,7.24,5.78,10.82,8.73h.61a.86.86,0,0,1,0-.16l.52.16,8.53,0,0-8.26c-.78-.75-1.55-1.51-2.33-2.25-.19.86-.38,1.74-.57,2.61-.87-.57-2.2-1-2.5-1.74-.44-1.13-.14-2.56-.16-3.86l3.76,1c.55-.17,1.29-.51,1.86-.71a2.82,2.82,0,0,1,5.61.4v2.22l7.25-1.61c3.57,4,7,7.92,10.75,12.08h.27c.36-.77.54-1,.53-1.22,0-.5-.18-1-.28-1.5.34.91.71,1.81,1.06,2.72h2A3.71,3.71,0,0,1,149,202.7a34.46,34.46,0,0,1-2.15-4.89,23.26,23.26,0,0,1-.37-4.59l-1.16,0q-.33,4.58-.64,9.14a14,14,0,0,1-.84-1.8c-1.45-4.35,1-10-5.82-13.2l5.13-1.05,2.68,5.25.93-.24c.23-1.08.45-2.17.77-3.65,1.11.86,2.21,1.7,3.26,2.56a2.84,2.84,0,0,1,4.85,2l0,4.22a11.58,11.58,0,0,1,.66,2.42c.47-1,.94-2,1.38-2.86,3.69.22,9.67,5.21,11,8.92l4.08,0-1.35-1.43.7-1.2c1.19.72,2.41,1.39,3.54,2.2.17.13.32.28.48.42h3.17l.23-.29Zm-64.91,2.39a20.52,20.52,0,0,0,3.33,2.51l-9.18.51c-3-5.43-3-5.43,4.36-6A14.07,14.07,0,0,0,114.54,197.23Zm-12.39-1.51c3-9.13-5-8.29-8.8-11.86,7.82,1.17,9.39,2.23,13.68,9.11Zm12.32-6.43c.18.7.35,1.39.52,2.08a16.07,16.07,0,0,1-4.18,1.14,3.07,3.07,0,0,1-2.16-1.85,68,68,0,0,1-1.23-7.42Zm50.6,7.64c-.61-.33-.54-1.93-.77-3a9.37,9.37,0,0,1,2.46.36,11.11,11.11,0,0,1,2.76,1.67c1.35,1.09,2.59,2.31,3.88,3.46l-.8.72A76.27,76.27,0,0,1,165.07,196.93ZM398.78,48.63c.24.07.45.12.68.2V46.14l-5.7-4.88c-1-1.83-.94-5-2.25-6.78l-15.92.06.11,32.13,15-.06c-2-2-4.08-4-6.09-6,3.48-.8,6.93,2.38,7.11,6l7.84,0,0-12.8C398.35,52.17,398.62,50.42,398.78,48.63Zm-13.1-9.74c1.53-1.1,2.76-2.56,3.39-2.32,1.07.37,1.76,1.82,2.61,2.82l-.94.8Zm-9.2,17.37c1.33-3.61,2.71-3.6,6.51.36Zm22.95-18,0-3.85-4.64,0c-.08.09-.11.19-.21.29ZM626.61,27.67c0,.09-.09.18-.14.28h.94v-.07C627.14,27.8,626.88,27.73,626.61,27.67Zm-27.28-1.43c-1.73,0-3.42-2.54-5.21-4L590.61,25a6.87,6.87,0,0,0,3.69,3.05l8.56,0A3.84,3.84,0,0,0,599.33,26.24ZM474,.91h-.08L474,1Zm7.17,3.15c4,2.09,4.12,2.74,1.85,5.33.67,1.66,1.24,3,1.81,4.48,3.75-4.63,11.95-3.34,15.11,2.07a29,29,0,0,0,5.87,6.91c-.33-3.4-2.46-6.3-2.23-9.7v-.61a9.66,9.66,0,0,1,0-7.09V.8h-1.34a7.51,7.51,0,0,1,.09,1.94c-.17,1.27-2,2.82-3.83.85L494.83.83,479.68.89V3.74A3.67,3.67,0,0,1,481.15,4.06ZM584.4,14c-.28-.9-1.61-1.49-2.48-2.22-.27.34-.54.69-.82,1l1.57,1.65c-.26,2.53-.86,4.54-.46,6.29.18.8,2.4,1.11,4.12,1.83.24-2.52.42-4.24.67-6.84l-3,3C584.24,16.55,584.75,15.16,584.4,14ZM126.85,168.36c-1.28-2.4-2.74-3.68-5.85-2.5-3.53,1.32-6.37-.36-8.12-4.22.94.34,2.26,1,2.39.84,3.08-4.24,3.5,0,4,.59,3.23.52,6,.25,7.8,1.44s3,3.94,4.43,6l.76-.73c-.92-3.06-1.83-6.12-2.67-8.89l-5.39-3.5c.21-.41.41-.82.61-1.22l9.31,2.48V153.9c-.63-1.67-1.25-3.33-1.87-5l.65-.76,1.2.86,0-9.62-4.6,0c.2.52.38,1,.55,1.48-.84-.54-1.83-1-2.75-1.47l-6.65,0a1.9,1.9,0,0,0,0,.82,4.44,4.44,0,0,1-2.4-.81h-1.64c-.21.28-.41.57-.63.86l-1.06-.86-4.64,0,0,7.52a3.3,3.3,0,0,0,3.25-.75c.4-.28,2.81,1,2.87,1.67.09,1.3-.82,2.67-1.42,4.3l-1.12-2.87-3.57-.15.08,22.41,7.26,0c-2-1.53-1.85-2.15-1.35-4.11,1.14,1.49,2.18,2.82,3.18,4.11l10.26,0c-.49-.33-1-.64-1.51-1C127.55,170.1,127.26,169.12,126.85,168.36ZM118.5,144.2c3,1.83,5.17,3.21,8.08,5C121.34,151,119.2,149.76,118.5,144.2ZM387,176.29l-5.68,0-.55,1.53ZM186.32,188.22a.15.15,0,0,0-.07,0h-.12l.15.05S186.31,188.22,186.32,188.22Zm17.32-10.85c0-.14,0-.28-.08-.43l-5.23,0a8.34,8.34,0,0,0,1.12.78C200.45,178.31,202.22,177.54,203.64,177.37ZM484.1,162.88c1.12.25,2.18.47,3.22.68.32-.8.63-1.57,1.11-2.74l-.08-22.71-23.83.08.1,26.09,7.16-.67c-4.25,3.48-5.56,4.36-7.16,2.93v3.79l9.47,0c-.47-.33-.94-.66-1.38-1-.26-.23.37-2.21.61-2.23a19.85,19.85,0,0,1,4.47.52,7.21,7.21,0,0,1,1.84,1.12l-1.88,1.61h.47a17.55,17.55,0,0,1,3.82-.11c.08,0,.14.08.21.1l6.21,0,0-3.94C484.63,166.37,484.55,166,484.1,162.88ZM376,138.51l.09,26,.42.09a22.09,22.09,0,0,1-.39,3.33l0,0v2.65l14.46,0c-3.29-3.71-6.36-7.17-10.07-11.37,2.8.84,5.77.94,6.13,2,1,2.85,3.19,2.8,5.28,3.35l-.05-.07a.07.07,0,0,1,.06,0c.18-3.78.37-7.54.57-11.36.71,2.11.81,5.15,2.27,6.08,3.12,2,2.69,4.37,2.48,6.79-1.94-.54-3.63-1-5.32-1.51v0l7.05,6h1l-.11-32.14ZM80.45,64.13v3.6l6.72,0L87,67.54C85,65.25,83.23,63.61,80.45,64.13Zm183.46,44.68a10.18,10.18,0,0,1,3.59,3.52l-7.44-3.51h-2.89a0,0,0,0,0,0,0,7.09,7.09,0,0,1-5.5,0l-6.51,0,1.31,2.8,4.73,1.86-1.78,2.34,2.85,3.76-.86.64a4.91,4.91,0,0,0-1.88-2.09l3,6.39c.15-.2.29-.4.44-.59l5.58,4.36-.77,1.05-4.42-3.05,3.24,6.9,23.25-.09-11.44-24.37Zm-92.62,83.43,8.16,2.57v-2.68a2.82,2.82,0,0,1,1.43-2.43l-1.41-.74,6.67-.77c-2.46-.33-3.56-1.81-3.89-4.27a36.54,36.54,0,0,0-1.38-5.17l-1.19,0,2.91-1.55c-.07-.07-.1-.14-.17-.22l-23.25.09-1.31.82,10.87,1.43c-.05,2.49-.11,4.95-.16,7.41l.79.2c1-2,1.93-4,3-6.24,4.61.06,7.08,1.17,7.2,3.71.22,4.61-3.91,2.16-6,3.34.32-1,.65-2,1.09-3.31-2.77.85-4.51,1.8-3.34,4.91a7.71,7.71,0,0,1-.06,2.74s0,0,0,0S171.28,192.21,171.29,192.24ZM85.77,141.82c.25.1.43.23.65.34a7.44,7.44,0,0,1-.5-1.95l6.9,3.18c-.53-1.36-.88-2.8-1.24-3.87l-8,0,.12.73A7.55,7.55,0,0,0,85.77,141.82ZM635.26,60.41l.43-.67,0-8.32c-3-2.31-6.14-4.43-8.77-7.25,3.55-3.42,3.36,2.25,5.06,1.34l3.68-2.15,0-7-8.37-1.1c0-.55,0-1.09,0-1.65l-3.53,0a2,2,0,0,1-.13.25,19.6,19.6,0,0,1-3.06-.24l-6.13,0c.23.74.47,1.47.67,2.2l1.19,0-2.9,1.55c.45.52.66,1,.93,1.06,4.33.55,11.22-1.84,8,7.16,0,.07.12.21.38.66.73.11,2.26-.09,2.59.46A23.56,23.56,0,0,1,628,53c.15.55-1.45,1.78-2.46,2.29-.39.2-1.36-.77-2.06-1.21-.09-.3-.18-.62-.26-.94l2.62-.16c-.11-.35-.21-.68-.31-1l-1.74-1.25c-3.08,1.89-5.39,3.67-8,4.75-1.06.43-2.6-.33-4-.7l0,11,11.78,0c-1.27-1.69-1.95-4.15-3-6.17l1.16-.71c.86,1,1.74,2,2.62,3.08,5.61-7.32,8.31-8.46,11-5.22-2.11,4.7-6.55,3.87-11,5.22l3.24,3.79h1.72c.19-.91.33-1.55.46-2.18l1.76.52c.2.6.36,1.14.52,1.64h3.54V60.69Zm70.48-11.88c-.3-1.17-.54-2.1-.79-3.11l2.83-.19-2.33-4c4.83,1.26,10.41.84,11.91,7.16l-2.74,2a24.82,24.82,0,0,1,4.84.44c1.47.46,3.26,1,4.12,2.19.25.33.43.7.66,1V49l-.54-1.36a4,4,0,0,1,.53.3l0-5.42c-2.38-.76-4.71-1.52-7-2.3a1.6,1.6,0,0,1-.74-.85,24.28,24.28,0,0,0-3.54-6l-12.54,0,0,13.4Zm-5,88.81v2a80.11,80.11,0,0,1,8.22,7.76c2.41,2.75,4.47,4.59,8.36,2.86.11.31.23.62.35.93-2.22,1.85-4.45,3.7-6.17,5.11-.45-1.53-.69-4.69-1.56-4.88-4.47-1-7.12-3.61-9.19-6.84l.09,25.2,23.83-.09-.11-32.13Zm21.53,23c-.12.45-.24.9-.37,1.36l-4.53-2.16c.51-1,1-2,1.75-3.35Zm61.43-.46-2.33-2.48.61-.54,1.71,1v-1.22c-.63-.83-1.27-1.67-1.85-2.45l-7.59,6.15c2.51-.22,4.86-1,6.51-.31,1,.46,1,3.28,1.66,5.81l-5.23-1.52c.4,1.64.8,3.26,1.19,4.9l4.44,0c.29-1.13.58-2.28.9-3.43Zm-273.76,37.6,1.49-.34-1.5-1.85Zm180.26-51.08c.38-.49.76-1,1.15-1.46l3.73,2.93,0-10.49-18.82.07a3.33,3.33,0,0,1,.16.69,20,20,0,0,1-4-.07,2.39,2.39,0,0,1-1.05-.6h-.09l0,4.11a18,18,0,0,1,2,1.93,20.29,20.29,0,0,1,1.83,3c-1.67-.69-2.93-1.21-3.86-1.65l0,4.36,7.66,3.83c-3.83,0-6.17-.24-7.65-.76l.06,17.3,23.83-.08L695.07,150ZM7.56,190.24c-.09.26-.16.48-.24.74A2.82,2.82,0,0,1,8,192.74v1.82l4.37,1.72C12.75,193.64,12.75,193.64,7.56,190.24ZM8,197.58a7.08,7.08,0,0,1,1.2-.17A11.22,11.22,0,0,0,8,196.74Zm574.6-59.81.11,32.13,23.84-.08-.11-32.14Zm73.45-.26c-1.25,1.84-3.4,1.77-5.06,2.06-.56-.76-1-1.39-1.55-2l-7.79,0,.12,32.13,23.82-.08-.11-32.13Zm-100.39.35a2.72,2.72,0,0,0,0,.3l-1.19.35c-.3-.22-.62-.43-.93-.64h-.5l0,10.53c2.06.09,4.13.22,6.19.4a29.49,29.49,0,0,1,3.08.63c0,.53,0,1.06-.07,1.58-3.07,0-6.14,0-9.19-.11l.06,19.1,23.84-.08-.11-32.14Zm67.54-.24,1.95,3.67-2.59,2.94c-2.54-3-2.67-3.25-.19-6.61l-10.24,0,.11,32.13,23.83-.09L636,137.58ZM665.12,33.5H663l2.17,2.86Zm88.65,21.83V52a9.08,9.08,0,0,0-5-.66A6.52,6.52,0,0,0,753.77,55.33Zm0,8.36V61.77l-.63-.27c0,.35-.1.68-.15,1C753.29,62.94,753.54,63.29,753.8,63.69ZM750,44.88l.06-.81c-3.53-2.29-7.13-4.49-10.55-6.94-.61-.46-.6-2-.64-3a5.94,5.94,0,0,1,.06-.94h-2.1l-2.47,4.06C740,40,745,42.45,750,44.88ZM197.83,192.77A81.76,81.76,0,0,0,190,187c-.74-.43-2.43.76-3.69,1.24,1.74.95,3.44,2,5.22,2.81A15.81,15.81,0,0,0,197.83,192.77ZM760.31,65.29h1.75l-2.37-1Zm-98.12,63.39-10-21.26L629,107.5l1.23,2.65c1.34-.46,2.66-.9,4-1.25.38-.1,1.24.51,1.43,1a45.73,45.73,0,0,1,1.39,5l-5.5-1.85.92,1.95,5.31,1.52-2.37,4.5-.28-.35,5.27,11.24,9,0c.37-.52.77-1.07,1.25-1.72a8,8,0,0,0,.37,1.71l7.73,0-.56-3.54A14.94,14.94,0,0,1,662.19,128.68Zm-14.85,1.68c.43-2,.77-3.66,1.17-5.57l4.1,2.76ZM427.25,72.17l-5.32,0,4.15,2.5Zm335.93,4,1-1-2.68-3.17a6,6,0,0,1,.33-1.08l-3.51,0-.59,1.3ZM77.47,190.47c-.55,1.45-1.12,2.91-1.69,4.38,2.24.45,4.46,1,6.71,1.3a13.24,13.24,0,0,0,2.87-.27c-2.42-2.84-4.51-5.3-6.94-8.14C78,188.93,77.76,189.7,77.47,190.47Zm693.1-95.76ZM355.92,8.58l0-6-4.07-.85.25-.38-7.29,0a20.91,20.91,0,0,0,8.4,5.27C354.62,7.12,355.51,7.6,355.92,8.58Zm427,53.71c-5.2-.54-10.5-3-15.69-.82,1.55,1.15,3.35,2.46,5.16,3.76v0l11,0V62.39C783.17,62.37,783,62.31,782.87,62.29ZM15.92,147a8.42,8.42,0,0,1-2.59-1c-2.28-2-4.32-4.29-6.68-6.16l-6.19,0,0,5.57a3.79,3.79,0,0,1,.65.54c3,3.15,7.71,5.95,12,6.39,1,.1,2,.28,2.94.47l0-6.88C16,146.27,16,146.64,15.92,147ZM791,33.05h-2.05c0,.52.05,1,0,1.56A2.54,2.54,0,0,0,791,33.05ZM774.75,13.36a43.32,43.32,0,0,0,5.2,2.49c-1.92-1.93-3.4-3.4-5-5v1.48A2.76,2.76,0,0,1,774.75,13.36ZM.42,127.3v2.49a17.29,17.29,0,0,0,3.4,2.31,21,21,0,0,0,4.45,1,6.85,6.85,0,0,0,0,1h4.57C11,130.48,5.09,127.45.42,127.3Zm450.46,76.6h3l-3-3.63ZM771,152.66c.57-1.13-1.85-3.79-3-5.68a15.88,15.88,0,0,0-2,1l-6.23-5.63,0,6.4a8.8,8.8,0,0,1,3,2l-2.94.35V154l.38-1c1.77,1.43,3,2.45,5,4l-5.34.9v2.37c4.48-.87,6.81.55,9.73,4.9-3.19-1-5.78-2.7-8.2-2.46a8.17,8.17,0,0,0-1.53.32l0,6.25h1.38c.58-.64.92-1,.91-1l.52,1,12.19,0c-1.18-2.48-2.34-5-3.37-7.49C770.36,158.9,769.33,156.06,771,152.66Zm12.21-71.87c1.68,2.95,6,5.43,10,6.26V83.23a9.36,9.36,0,0,0-1.11-.7,21.89,21.89,0,0,0-4.46-1c.25-2.74-.89-4.07-2.52-4.91ZM789,65.19h1.38c-.46-.29-.9-.59-1.38-.85Zm.78,10.06a10.76,10.76,0,0,0,3.43,1.51l0-5.9-5.42,0L787,72.72A32.41,32.41,0,0,0,789.8,75.25Zm-522.46-69V1.64l-6.46,0C262.48,3.83,264.94,5,267.34,6.24ZM375.05,28.71c-1.8-1.92-1.76-5.9-6.63-5.27,1.41,2,2.63,3.72,3.82,5.42l5.49,0C377,26.71,376.69,27,375.05,28.71ZM21.41,67.93h2.23l-2.22-.88ZM296.85,1.54h-.58l.58.75ZM339,3.08c-.19-.57-.37-1.13-.54-1.69l-6.44,0V3C336.09,5.84,336.52,5.72,339,3.08ZM524.21,138l1.25,2.67-.9.4-1-.78.1,29.85,23.83-.09-.11-32.13ZM535,165.13l-1.27.4c-.72-1.86-3.22-3.37-.29-6.85C534.12,161.39,534.58,163.25,535,165.13ZM17.66,3.5l6.2.41L24,3l-2.16-.46-5.64,0c.44.8.73,1.38,1,1.93C17.38,4.14,17.51,3.82,17.66,3.5Zm13.48-1H28.43C29.21,3.19,30,4,31.15,5Zm154,202.37h2.39l-2.39-1.19ZM275.39,2.19c-.13-.21-.22-.37-.33-.57h-2V3.36ZM3.22,114.42a15.44,15.44,0,0,1,.35,3.65c1.24.37,2.4.73,3.55,1.09l-2.7-5.76A5.75,5.75,0,0,1,3.22,114.42Zm81.63-5c0,.52,0,1,0,1.54l-1.24-1.53L68,109.51l11.43,24.37,6.37,0a6.21,6.21,0,0,0-2.71-2.22l.44-1,8.89.81a5.11,5.11,0,0,0-1.61,2.44l8.5,0-2.13-2.13a17.05,17.05,0,0,1,5.23,2.12h.27L91.27,109.42Zm3.74,15.86-.66,1.2-8.61-5.08c.18-.33.36-.66.53-1C82.77,122,85.68,123.68,88.59,125.3ZM647.52,16c-2.3-4.27-8.89-5.64-11.38-2.87l-4.7-2.66-.55,1.12c2.83.73,4.83,5.25,8.78,1.39.56-.56,3,.71,4.56,1.28A28.69,28.69,0,0,1,647.52,16Zm-.89-10.28c2.09,2.22,2.52,4.29.36,6.22a33.55,33.55,0,0,1,2.17,4.89,23.2,23.2,0,0,1,.36,4.59l1.17,0,.57-8.24a3.12,3.12,0,0,1-.09-.44v-.89c-.69-1.78-1.45-3.55-2-5.38-.59-2-1.06-4.05-1.57-6.2h-2.46A13.58,13.58,0,0,0,645,2.56,5.64,5.64,0,0,0,646.63,5.72ZM56.79,183.4l1,.21c1.27-2.07,2.52-4.14,3.76-6.16l-5.15,0,.06,0c.62.44.6,1.93.65,2.94A17.3,17.3,0,0,1,56.79,183.4ZM651.16,10.56a.84.84,0,0,0-.08.3,3.4,3.4,0,0,0,.09.46ZM779,35.25l-2.56-2.15-4.89,0,7.25,2.67C778.86,35.61,778.93,35.43,779,35.25ZM73.72,54.32c.12-.45.25-.9.37-1.36l.63.3-.06-17.65-23.84.08.11,32.14,23.84-.09,0-12.1ZM58.16,67.22l-4.6-1.54c.26-1.25.47-2.22.72-3.45C59.56,63.35,59.63,63.44,58.16,67.22Zm127,134.67,2.13,1c0-1.4.05-2.56.07-3.52l10.49,4.57c.2-.37.4-.73.59-1.1q-6.66-5.23-13.31-10.47ZM778.27,78,780,74.14l-3.8-2.9.73-.32h-1.16c0,.09-.07.18-.12.27l-1-.26h-2.12A21.26,21.26,0,0,1,778.27,78ZM658.49,107.39l11.44,24.37h4.63l.29-.57c.36.18.71.38,1.07.57l17.25-.06-11.43-24.38Zm18.34,14.21c-1.23,1.87-2.29,5.1-3.71,5.27-1.94.23-4.15-1.88-6.24-3,.16-.34.33-.68.51-1,1.37.42,2.74.85,4.11,1.26l-1.18-2.06c1.63-.74,3.25-1.47,4.88-2.19ZM26.1,183.94c.19-.53.38-1.06.58-1.6l-9.5-3.49c-.07.18-.14.36-.2.53.92.79,1.84,1.56,2.77,2.34Zm734-127.13-.63-.55v.29C759.67,56.64,759.9,56.7,760.09,56.81Zm-724.22,101c2.83,2.35,5.28,5.51,9.72,5.6V161C42.84,158.48,38.71,159.41,35.87,157.83ZM23.63,149.4c.23-.43.48-.85.72-1.28-.93-.6-1.81-1.17-2.65-1.73l0,7.48a13.37,13.37,0,0,0,7.06-.7ZM7,180c-2.24.28-3.33,2.73-1.8,7.66.85-1.79,1.53-2.72,1.72-3.75A21.16,21.16,0,0,0,7,180Zm202,18.62a2.24,2.24,0,0,0,0,.24l0,0Zm-17.59-15c1.5,1.75,1.37,4.68,5.23,4.75,1.73,0,3.43,2.54,5.21,4l3.52-2.77c-1.51-2.91-6-4.44-10-3.51l-2.9-3.5Zm-6.76-5.59c0,1.6,0,4.17,0,6.75l.78.21,1.63-3.78,2.52.77c0-.95,0-1.78,0-3.23,2.29,1.08,4.28,1.87,6.1,2.95,3.17,1.88,5.6,1.25,7.21-2.11-.31-.49-.63-1-1-1.46a8.26,8.26,0,0,1-1.25,2.31c-1.57,1.47-2.53,1.11-3.2-1.07a5.27,5.27,0,0,0-1.57-2.42h-6.48a.3.3,0,0,1-.1.07C188.45,177.78,186.87,177.62,184.64,178.06ZM16,139.8H15l1,.74Zm.4-17.69-.13-.49c.49-.08,1-.17,1.48-.27,0-.07-.11-.16-.14-.23l2.35-2.94c-2.22.21-4.46.41-6.69.63l2.63,5.63,4.11.68-1.54-2.56ZM21,133.7l.7-.64-5.28-7.51,3.24,6.92A4,4,0,0,1,21,133.7ZM8,121.64c.14.06.26.14.39.2l0-.08A3.59,3.59,0,0,0,8,121.64Zm54-8.16c1.28,1.56,2.53,3.09,3.77,4.62l-4-8.57-9.78,0-1.72,3.14c-.43-.34-.88-.69-1.32-1l1.34-2.12H48.82c0,.38,0,.74,0,1.16l-.94-1.15-9.4,0,10.3,22,9.42,1c-.39.52-.74,1-1.11,1.44l5.74,0a2.11,2.11,0,0,1,.51-1.11c.26.38.56.74.85,1.1l9,0-6.89-14.71C61.45,117.72,60.1,115.12,62,113.48Zm-4.34,9.24-7.73-5.24.89-1.36,7.49,5.66Zm512.46,8c1-1.18,1.78-2.49,2.62-3.65l-9.09-19.38-17.1.07a11.68,11.68,0,0,1,1.34,2.67l-5.19-2.66h-2.3l1.85,3.94c3,1.14,5.06,3,5.16,5.39l-3.32-1.44,6.8,14.49c.71.65,1.4,1.33,2.09,2l22.1-.08-.94-2Zm-.16-8.58c-.16.54-.31,1.08-.47,1.62l-9.82-3c.14-.44.26-.88.39-1.33Zm-8.68-5.33c-1.41-1.4-2.42-3.28-.31-5.08l6.08,4.29C565.35,118.18,563.34,118.89,561.28,116.85Zm-2.84,11c-1.51-1.74-1.41-4.87-2.25-8.42,3.43,2.27,3.63,7.38,8.44,4.82.66,2.53,1.22,4.67,2,7.58C563.18,130.29,560.05,129.73,558.44,127.87ZM175.29,73.08c.38,1.12-.32,2.07-2.19,4.59l-2.29-4.32c.07-.1.14-.16.22-.26h-3.22L156.44,97.8h1.93c.67-1.28,1.36-2.56,2.18-4.14l3.36,4.12,15.78,0L191.06,73Zm394.63,34.63,2.91,6.19q2-1.41,4-2.8l4.18,3.57c-.94,1.81-1.86,3.55-3.36,6.43,0-2.7-.06-4.41-.08-6.2l-4.16.28,4.24,9c2.17.51,2.81,3.84,4.2,4.59l-1.89.31,1.38,3L604.6,132l-11.43-24.37ZM595,118.44c-6.64-1.71-7.75-3.29-5.16-6.57Zm63.82,13.37,4.62,0A8.53,8.53,0,0,0,658.81,131.81ZM464.26,66.36h1l-1-1.32ZM362.82,26.1c-1.35,0-2.73-1-4.09-1.55.1-.36.19-.73.28-1.09l-3.39,1.22c-1.24-3.59,0-6.05,3.14-8l-3.53,1.18c-4.53-4.28-8.62-8.1-12.7-11.95l-1,.56c0,1.17,0,2.33,0,3.51-2.51-.22-5.38-1.43-6.63,2.44.77.41,1.8.62,2,1.14a4.33,4.33,0,0,1,.07,2.8,2,2,0,0,1-1.8.74c-1.15-.58-2.27-1.23-3.41-1.91a2.78,2.78,0,0,1-2.47,1.53,2.84,2.84,0,0,1-2.85-2.84l-.05-12.48-7.24,0c.45.18.93.36,1.48.52-1.11.67-2.27,1.13-2.87.74a8.9,8.9,0,0,1-1.44-1.25h-2.65c-.9,1.76-1.58,1.58-3.82,0l-7.29,0V3.64a29,29,0,0,0,6.28,2.42c2.2.52,4.73-.38,7.12-.65.11.45.21.91.31,1.37-1,.46-2.67,1.57-3,1.26-2.89-2.7-3.88.17-5.36,1.61l-2.57,2.52c0-3-1.11-4.32-2.78-5l0,5.94,1.13.16-.15,1.25a5.68,5.68,0,0,1-1.09.11,2.8,2.8,0,0,1-2.72,2.28A2.86,2.86,0,0,1,296.89,14v-.47a5.74,5.74,0,0,0-6.11,1.91c-.54-1-1.11-2.07-2.29-4.29l8.39,1.13V7.83c-3.39,2.54-5.57,2.8-7.36-.39A7.72,7.72,0,0,0,288,5.86h0c.27,1,.54,2.09.78,3-1.86.06-3.61.48-5.07,0s-2.38-1.82-4.28-3.38l8.57.37V5.82s0,0,0,0l0-.06s0,0,0,.05c2.41-2.47.87-3.35-.75-4.28l-9.42,0a46.78,46.78,0,0,1-2,5.26l-2.79-2v6.16a7.88,7.88,0,0,0,1.6,1.8l-1.59.51v.75l0,.06,2.08,4.09c-2.7,1.55-3.45.47-3.8-1.51a3.1,3.1,0,0,1-1.11.23,2.86,2.86,0,0,1-2.85-2.84v-4A10.48,10.48,0,0,0,264,8.6c-1.56-.36-3.65-1.58-4.13-2.9-.94-2.61-2.19-4-3.77-4h-.38A4.44,4.44,0,0,0,254,2.3l-.64-.6-9.81,0V2.2c.54.14,1.13.23,1.65.41-.57,0-1.12,0-1.65,0l0,11.63a2.85,2.85,0,1,1-5.69,0l0-12.49L214,1.84,214,14.33a2.85,2.85,0,1,1-5.69,0l-.05-12.49-23.83.08,0,12.5A2.67,2.67,0,0,1,184,16c6.12.94,6.72.64,6.84-3.38.45,2.64.9,5.26,1.36,7.89.56.44-6.75-1.6-8.28-4.38a2.77,2.77,0,0,1-2.24,1.19,2.85,2.85,0,0,1-2.86-2.83l0-12.49-6.52,0c.07.11.17.21.25.32a50.19,50.19,0,0,1,2.23,4.59L168.67,2h-4.75c0,.09,0,.17,0,.25l-1.65-.17s0,0,0-.07l-7.31,0v4.7c4.47-.49,8.89-.93,13,1.18l-9.47,4.52L155,10.79v3.75a2.85,2.85,0,0,1-5.69,0l0-6.52-1.78-.85c.59,0,1.18,0,1.77,0V2.07l-23.84.09,0,12.48a2.85,2.85,0,1,1-5.7,0l0-12.49-23.83.09,0,12.49a2.85,2.85,0,1,1-5.69,0l0-12.49-23.83.08,0,12.5a2.85,2.85,0,1,1-5.69,0l0-11.8c-.33-.22-.65-.46-1-.69l-22.86.08V3l1.81,1-1.8,1,0,9.91a2.85,2.85,0,1,1-5.69,0V9.41L28.88,8.7l-4,2.84-.59-.84c2-3.51,1.79-3.81-3.22-5.13-2,2.05-7.42,1.27-8.43-1.12-.27-.63-.54-1.26-.82-1.89l-4.54,0,0,11.48.39-.12L7.35,15v0a2.75,2.75,0,0,1-.63,1.72c-.43,1.19-.82,2.3-1.27,3.57L3.08,17.49A2.91,2.91,0,0,1,1.84,16a.57.57,0,0,0-.1-.13l.08,0a3.05,3.05,0,0,1-.16-.74v-.64L0,16.89v2.36c.54.74,1.05,1.48,1.64,2.3A4,4,0,0,1,0,22.12l0,8.07,6.59,0a24.79,24.79,0,0,1,1.39-2.64l1,.09c.28.79.56,1.59.9,2.53L338.22,29a10.75,10.75,0,0,0-6.83-3c-.72-.05-1.4-.68-2.36-1.18,3.6-1.84,9.13-.07,13,4.12l27.18-.09C367.5,26.59,365.49,26.05,362.82,26.1ZM319,8.28c.73-3.95,3.13-5,6.86-4.56-.05,1.32-.09,2.51-.14,4l-4-1.19c.1,1,.18,1.8.34,3.47Zm-9.72,2.29c1,.69,2.58,1.72,4.81,3.18C308.57,13.64,308.22,13.1,309.28,10.57ZM127.82,2.82,135,5.3c-.13.34-.25.68-.37,1C132.23,6.08,129.26,7.14,127.82,2.82ZM96.76,14.93l.77-1.51,6.88,3.39c-.27.42-.54.85-.81,1.26Q100.17,16.51,96.76,14.93Zm242.87-.75a31.29,31.29,0,0,1,1.91-4.07l0,0,.08,0,0,.08L347.32,17l-5.56-.43c-.08.24-.15.49-.22.73l2.37,1.75c-.2.37-.38.74-.58,1.11-1.39-.75-3.13-1.2-4.05-2.35C338.72,17.15,339.25,15.37,339.63,14.18ZM276.34,9.72c4,1.76,4.93,4.55,3.33,9.86l-1.1.18C277.83,16.46,277.1,13.17,276.34,9.72Zm4.9,6.68c.32-.46.65-.92,1-1.37l4.38,1.31c-.08.26-.16.51-.25.78l-1.79.4c.95,1.15,1.79,2.21,2.65,3.26-.47.37-.93.73-1.41,1.08ZM117.31,27.24l-.36-1c4.88-3.48,4.88-3.48,6.42-1.41C121.34,25.64,119.33,26.45,117.31,27.24ZM471.24,72l.4.49c-.39.31-.8.61-1.2.91-.33-.46-.68-.93-1-1.39l-6.37,0-11.38,24.7,23.26-.08L486.3,72ZM468.6,85.24l-.18-1.38,6.71-.72C473.36,85.7,471.24,87.16,468.6,85.24ZM575.52,63.65c-.32-.44.06-1.39.14-2.46l1,1.12,0-12.47a13.7,13.7,0,0,1-3.52-2.25,47,47,0,0,1-4.5-4.91c-2.57,1.65-4,.09-4.94-3.89l8.26,1.74c.43,1.78.74,3.07,1.05,4.34l1.25.1c.3-1.4.59-2.81,1-4.56.52.56,1,1.06,1.41,1.55V40.33c-3.16-1.48-6.32-2.95-9.44-4.5a3.41,3.41,0,0,1-1.41-2h-2.8c-.63,1.59-1.17,3-1.7,4.34l-.77.35c-.25-1.3-.5-2.58-.83-4.31l-1.72-.36h-5.19L552.84,66,576.66,66v-.87C576.28,64.61,575.88,64.15,575.52,63.65Zm36.3-13.8,0,3.5,4.56-.46ZM572.45,19.51l-1.16.46c.31,1.07.63,2.12.9,3l-5.91,1.39,2.59,3.76,5.68,0,1.6-.82ZM346.09,44.33v2c.36-.48.75-1,1.12-1.52ZM514.82,60.39c0-1.27,0-2.71,0-4.39a23.81,23.81,0,0,0,2.79,2.11l0-9.75c-4.25-2-8.51-3.89-12.72-5.93-.57-.26-.9-1.08-1.21-1.7-.06-.14.5-.83.64-.78a8.67,8.67,0,0,1,1.86.79c1.41.74,2.78,1.55,4.19,2.28,2.4,1.23,4.82,2.43,7.23,3.64l0-12.63-23.83.09.12,32.13,23.83-.09V60.7Zm-13.41-5.31a24.85,24.85,0,0,0-4-.37c.06-.42.11-.85.17-1.27,3,.72,7-1.24,8.73,3.5A46.19,46.19,0,0,0,501.41,55.08Zm-2.28,4,.32-1.25c2.05-.42,4.53-2.42,5.47,2.47ZM602.75,42.77c-.5-.21-.75-1-1.19-1.38-1.65-1.56-3.13-3.4-5-4.49-1-.57-2.76.2-4.18.37.08.45.17.9.25,1.35l2.07-.34c.39,1.76.75,3.3,1.14,4.94l3.26-2.87c-.09,2.29-.6,3.92,0,5s2.16,1.82,3.7,3l-5.26.72c.21,1.35.38,2.46.7,4.55l-3.91-3.27c-1.93,2.34-4,3-6.59-.09l4.69-1.51c0-.33,0-.68.08-1a9.3,9.3,0,0,0-3-.09c-1.73.52-2.86,1-3.45-1.57a4.32,4.32,0,0,0-3.68-3.63v2.07c1,1.57,2,3.24,3.24,5.29-1.2.08-2.23.21-3.22.32l.05,15.81,23.84-.08-.08-21.76C605,43.66,603.87,43.23,602.75,42.77Zm62.42,2.49c-.24-.39-.47-.77-.73-1.13-.24.25-.5.5-.75.74.5,1.69,1,3.36,1.49,5Zm53.88,13.43,1.25.67c0-.11,0-.19,0-.31ZM487.51,42c-.15-.44-.3-.88-.44-1.31l.93-.3,0-6.23-23.83.09v3.32l3.27-3.3a11.68,11.68,0,0,1-3.26,6.25l0,8.58,1.41,0c0,.22,0,.46.05.69l-1.45.43v3.38a16.48,16.48,0,0,0,4,2.89C471.6,58,472,59,469.07,62a18.6,18.6,0,0,0-4.84-5.4l0,6.48,4.61,3.26,19.22-.07L488,42.11Zm-1.13,8.55-.86,1.39L477.91,47l.53-.85C481.58,46.72,485.08,46.65,486.38,50.52ZM.56,165v.29L11,167.48C7.86,165.08,4.79,162.51.56,165ZM667.13,76.92l-.45,1,1,.42ZM.58,172H2.52l-1.94-.4ZM332.09,10.08v2.13l2.38-1.15ZM2.31,194.18a6.46,6.46,0,0,1-1.66-1.86l0,8.6a24.69,24.69,0,0,1,1,4.59h.39l.22-.66ZM630.49,72,633,73.39l.9-2-23.25.09-11.37,24.7,23.24-.08,9.55-20.73C630.84,74.81,630.35,73.69,630.49,72ZM357.07,79.15l.32-.58c1.52,1.08,3,3,4.56,3.06a7.59,7.59,0,0,1,1.87.27l4.36-9.48-.11,0L345,72.47l-11.37,24.7,23.25-.08,5.49-11.93ZM.64,190.23v1.42c.34-.59,1.23-1.44,1.72-2.1A7.65,7.65,0,0,1,.64,190.23ZM.38,115.58v1.83a13.14,13.14,0,0,0,.17-1.88Zm139-80.2.12,32.13,23.83-.08-.11-32.13ZM585.31,71.61c1.29,1.28,2.57,2.58,3.86,3.86l-.59,1c-1.34-.63-3-1-4-2A27.29,27.29,0,0,1,582,71.63h-.89l-11.37,24.7,5.6,0a9.14,9.14,0,0,1-.78-1.17l7,.74c-.11.16-.23.27-.34.41l11.71,0,11.38-24.71Zm135,1.45-1.18-1.93H717.1c-.55.61-1.06,1.17-1.41,1.57A6.67,6.67,0,0,1,720.34,73.06ZM690.45,71.5a3.48,3.48,0,0,1-.51-.26l-20.23.07-1.66,3.6c2.31,1.16,4.4,2.41,2.49,5.9l-5-.47L658.33,96l23.25-.08L692,73.24A2,2,0,0,0,690.45,71.5Zm-15.1,2.89c5.61.64,1.67,4.28,3,6.29C670.37,81,675.93,76.8,675.35,74.39Zm5.52,20.33-12.65-5.87C672.34,86.17,677.46,88.49,680.87,94.72Zm6.85-14.18-4.81,1.92c.72-1.44,1.2-2.42,1.63-3.3L679,75.82,680,74.34ZM719,78.62h-.12l.06.11Zm-60.71,1,.44-1.23L656,73.38l5.44,2.3,2-4.35-4.68,0c-.11.2-.24.4-.36.6l-1.06-.59-17.15,0L628.81,96.12,652.06,96l7.49-16.25Zm-4.43,9.46-9.29-3.65C649,83.2,653.36,85.08,653.89,89.12Zm-379.2,19.65,11.43,24.37,23.25-.08-11.43-24.38Zm14,9.1c-4.14.31-5.6-1.44-5.38-5.13C285,114.29,286.58,115.85,288.71,117.87ZM793.13,50.55V48.88L789,48v1.88A6.33,6.33,0,0,0,793.13,50.55ZM257.49,35l.11,32.14L281.43,67l-.11-32.14Zm5,21c-.65-2.7-1.11-4.57-1.56-6.44l1.27-.4C262.93,51,265.42,52.48,262.49,56ZM786.75,17.23a11.29,11.29,0,0,0,2.89,1.39,11.13,11.13,0,0,1,2.9,1c.17.11.32.26.48.37l0-8.33C791.9,14.75,790.65,17.13,786.75,17.23ZM133.3,166.66a3.64,3.64,0,0,0,.87.18l0-8C131.65,161.62,131.28,165.78,133.3,166.66Zm254.49-55.23c-3.12,0-3.06-1.55-3-3.05l-21.56.07,11.43,24.38,23.25-.09-10.48-22.33C387.57,110.74,387.68,111.07,387.79,111.43ZM392.36,129c.07.47.15.94.23,1.41-1.51.32-3.11,1.07-4.51.78-.85-.17-1.38-1.94-2.45-3.61ZM318.25,44.32c-.65,0-1.15.09-1.68.14v1.29Zm472-3.06c.14.43.83.82,1.35,1s1,.24,1.5.35V38.9a3.77,3.77,0,0,0-2.46.66A2,2,0,0,0,790.25,41.26Zm-486,67.4L315.64,133l23.25-.08-11.43-24.37Zm23.16,20.74c.05.46.12.92.17,1.38l-6.7.72C322.6,128.94,324.73,127.48,327.37,129.4Zm463.84,26.4c-1-1.56-1.52-3.28-.91-4.28.73-1.2,1.69-2.49,3.18-2.65l0-11.86-4.16,0,.07,20.81ZM776.58,107l3.82,8.12c.36-.52.77-1.07,1.09-1.6l4.18,4.74c-.86.46-1.95,1.49-2.53,1.26-.31-.13-.61-.35-.93-.52l5.8,12.36,5.41,0-.09-24.41Zm15.59,19.43c-1.35-.38-2.87-.33-3.51-1.06-2.92-3.35-3-4.67-1.21-6.28ZM333.74,108.55l11.43,24.38,23.24-.08L357,108.48ZM793.51,156.3v-2.93a21.71,21.71,0,0,0,0,2.67ZM308.64,51.08c-.4,1-.76,1.88-1.46,3.59-.51-2.73-.84-4.51-1.18-6.29,2.88-.08,4.2-.11,4.89.43l-.05-14L287,34.86,287.13,67,311,66.91l-.05-15.36ZM299,47.93c0-.36,0-.71-.08-1.06,1.27-.28,2.83-1.14,3.72-.68s1.28,2.22,1.88,3.41l-1.23.82C301.9,49.58,300.46,48.76,299,47.93Zm4.08,14.25-7.68-1.61C300,57.6,301.26,58,303.11,62.18ZM139.87,170.66v.83h3.21a7.43,7.43,0,0,0-2.24-.83A4,4,0,0,0,139.87,170.66Zm20.23.75h3.61v-2.08ZM198.43,35.17l.12,32.13,23.84-.08-.12-32.14ZM139.84,159.25l0,7.1.16,0c1.42,1.23,3.62,3.16,5.86,5.13l8.66,0c.16,0,.3-.05.47-.07C147.81,169.43,143.94,164.19,139.84,159.25Zm33.37,9.11c-.73-.11-2.26.09-2.58-.46-.46-.77-.86-1.58-1.25-2.4l0,5.88H173a17,17,0,0,1,.64-2.35C173.62,169,173.48,168.81,173.21,168.36Zm617.34-141h.29c0-.15,0-.25-.09-.4C790.69,27.11,790.62,27.22,790.55,27.36ZM168.92,35.28,169,67.41l23.83-.09-.11-32.13Zm12.26,2.48c1.41,1.51,2.71,3.15,4.24,4.52,1,.87,2.31,1.34,4.43,2.51-7.46.3-10.13-3.61-11.44-9.12A8,8,0,0,1,181.18,37.76ZM228,35.06l.11,32.14,23.84-.09L251.79,35ZM244.9,63.8c.44,0,.82,1.23,1.23,1.88a7.73,7.73,0,0,1-2.22.63c-2.42-.06-4.85-.25-7.27-.47a30,30,0,0,1-3.08-.63c0-.53.05-1.06.08-1.58C237.4,63.65,241.15,63.61,244.9,63.8Zm92.86,2.84c.07-1.13.14-2.24.25-4l2.47,3-.11-31-23.83.09,0,7.13a9.89,9.89,0,0,1,2.32.69,18.89,18.89,0,0,1,4.36,2.81c.27.23-.37,2.22-.61,2.23a19.85,19.85,0,0,1-4.47-.52,5,5,0,0,1-1.59-1l.08,20.74,19.12-.07c0-.31,0-.62,0-1ZM321.81,40.42l.44-1,5.23,1.11L324.82,36l1.3-.5,2.31,6.85-1.12.77Zm11.27,9.77-8.9.84C329.81,46.41,330.29,46.36,333.08,50.19Z"/></g></g></svg>