<svg xmlns="http://www.w3.org/2000/svg" viewBox="0 0 54.23 54.23"><defs><style>.cls-1{fill:#ffd900;}</style></defs><title>instagram</title><g id="Capa_2" data-name="Capa 2"><g id="Design"><path class="cls-1" d="M27.11,54.23A27.12,27.12,0,1,1,54.23,27.11,27.14,27.14,0,0,1,27.11,54.23Zm9.15-38.12a2,2,0,1,0,2,2A2,2,0,0,0,36.26,16.11Zm-8.92,2.58a8.43,8.43,0,1,0,8.43,8.42A8.44,8.44,0,0,0,27.34,18.69Zm0,13.82a5.4,5.4,0,1,1,5.4-5.4A5.4,5.4,0,0,1,27.34,32.51Zm17-12.4A10.28,10.28,0,0,0,34.06,9.83H20.5A10.28,10.28,0,0,0,10.22,20.11V33.68A10.28,10.28,0,0,0,20.5,44H34.06A10.28,10.28,0,0,0,44.34,33.68ZM41.12,33.68a7.06,7.06,0,0,1-7.06,7.06H20.5a7.07,7.07,0,0,1-7.07-7.06V20.11a7.07,7.07,0,0,1,7.07-7.06H34.06a7.06,7.06,0,0,1,7.06,7.06Z"/></g></g></svg>