<svg xmlns="http://www.w3.org/2000/svg" viewBox="0 0 54.59 54.59"><defs><style>.cls-1{fill:#ffd900;}</style></defs><title>twitter</title><g id="Capa_2" data-name="Capa 2"><g id="Design"><path class="cls-1" d="M27.29,0a27.3,27.3,0,1,0,27.3,27.29A27.32,27.32,0,0,0,27.29,0ZM43.1,17.36a.78.78,0,0,1-.16.51,12.42,12.42,0,0,1-2.53,2.64c-.15.11-.39.23-.39.43,0,5.26-1.34,10.51-5.17,14.32-4.88,4.84-12.2,6.16-18.7,4.37a18.25,18.25,0,0,1-3.62-1.45,12.74,12.74,0,0,1-1.12-.67c-.1-.07-.17-.14-.09-.19s.14,0,.43,0a12.76,12.76,0,0,0,5.41-.69c.95-.33,3-1,3.56-1.89l.05,0c-.24-.06-.48-.06-.71-.1-1.77-.51-4.13-1.39-5.22-4.37-.07-.17,0-.26.18-.23a7.4,7.4,0,0,0,2.48-.07,4.29,4.29,0,0,1-.84-.26,6.73,6.73,0,0,1-4.14-5.36,3.2,3.2,0,0,1,0-.75c0-.18.09-.23.24-.14a6.55,6.55,0,0,0,2.53.71c-.28-.22-.55-.46-.81-.71-1.92-1.82-2.67-5.54-1.13-7.85.13-.19.21-.19.36,0,3.53,4,7.88,5.9,13.12,6.68.14,0,.15,0,.13-.16A7,7,0,0,1,27,19.33a6.65,6.65,0,0,1,1.29-2.59A7.08,7.08,0,0,1,30.46,15a6.81,6.81,0,0,1,2.69-.75,6.36,6.36,0,0,1,2.83.45,7,7,0,0,1,1.85,1.13,2.77,2.77,0,0,1,.33.35.28.28,0,0,0,.27.07,16.16,16.16,0,0,0,3.81-1.47.2.2,0,0,1,.17,0c.06,0,0,.11,0,.17a5.91,5.91,0,0,1-1.07,2c-.3.38-1.07,1.31-1.58,1.4A12.82,12.82,0,0,0,43,17.33c.13-.06.12-.08.12,0Z"/></g></g></svg>