<svg xmlns="http://www.w3.org/2000/svg" viewBox="0 0 193.54 86.25"><defs><style>.cls-1{fill:#ededed;}</style></defs><title>logo_blanco_2</title><g id="Capa_2" data-name="Capa 2"><g id="Capa_1-2" data-name="Capa 1"><polygon class="cls-1" points="106.31 77.39 103.62 71.07 109.95 68.38 112.63 74.71 110.52 75.6 108.73 71.39 106.63 72.28 108.42 76.5 106.31 77.39"/><rect class="cls-1" x="105.42" y="67.48" width="2.29" height="3.43" transform="translate(-18.57 47.13) rotate(-23)"/><path class="cls-1" d="M98.73,16.4a34.35,34.35,0,1,0,34.36,34.35A34.35,34.35,0,0,0,98.73,16.4Zm0,60.69a26.34,26.34,0,1,1,26.34-26.34A26.34,26.34,0,0,1,98.73,77.09Z"/><path class="cls-1" d="M98.73,86.25a35.5,35.5,0,1,1,35.5-35.5A35.54,35.54,0,0,1,98.73,86.25Zm0-68.71a33.21,33.21,0,1,0,33.21,33.21A33.25,33.25,0,0,0,98.73,17.54Z"/><path class="cls-1" d="M81.24,73.41a28.63,28.63,0,0,1,33-46.73L113,28.61a26.34,26.34,0,0,0-30.36,43Z"/><path class="cls-1" d="M98.73,79.38a28.57,28.57,0,0,1-15.51-4.56l1.24-1.92a26.34,26.34,0,0,0,30.73-42.71l1.43-1.79a28.63,28.63,0,0,1-17.89,51Z"/><path class="cls-1" d="M98.73,56.48a5.73,5.73,0,1,1,5.73-5.73A5.74,5.74,0,0,1,98.73,56.48Zm0-9.17a3.44,3.44,0,1,0,3.44,3.44A3.44,3.44,0,0,0,98.73,47.31Z"/><path class="cls-1" d="M98.73,61.06A10.31,10.31,0,1,1,109,50.75,10.33,10.33,0,0,1,98.73,61.06Zm0-18.33a8,8,0,1,0,8,8A8,8,0,0,0,98.73,42.73Z"/><rect class="cls-1" x="97.59" y="23.27" width="2.29" height="18.32"/><rect class="cls-1" x="84.63" y="28.63" width="2.29" height="18.32" transform="translate(-1.6 71.72) rotate(-45)"/><rect class="cls-1" x="71.25" y="49.61" width="18.32" height="2.29"/><rect class="cls-1" x="76.61" y="62.56" width="18.32" height="2.29" transform="translate(-19.92 79.31) rotate(-45)"/><rect class="cls-1" x="97.59" y="59.91" width="2.29" height="18.32"/><rect class="cls-1" x="110.54" y="54.55" width="2.29" height="18.32" transform="translate(-12.33 97.63) rotate(-45)"/><rect class="cls-1" x="107.89" y="49.61" width="18.32" height="2.29"/><rect class="cls-1" x="102.53" y="36.65" width="18.32" height="2.29" transform="translate(5.99 90.04) rotate(-45)"/><path class="cls-1" d="M17.61,23.6,43.86,63.32V23.23q0-3.91,1.68-5.86a5.65,5.65,0,0,1,4.53-2,5.81,5.81,0,0,1,4.64,2q1.7,1.95,1.7,5.86v53q0,8.87-7.36,8.87a9.82,9.82,0,0,1-3.31-.53A8.2,8.2,0,0,1,43,82.9a16.13,16.13,0,0,1-2.4-2.69c-.73-1-1.47-2.07-2.2-3.15L12.78,37.8V77.29A8.45,8.45,0,0,1,11,83.13a5.93,5.93,0,0,1-4.6,2,5.86,5.86,0,0,1-4.64-2A8.56,8.56,0,0,1,0,77.29v-52a14.75,14.75,0,0,1,.74-5.2,7.41,7.41,0,0,1,2.89-3.38A7.93,7.93,0,0,1,8,15.41a7.5,7.5,0,0,1,3.15.6,7.75,7.75,0,0,1,2.3,1.61,16.49,16.49,0,0,1,2,2.62C16.16,21.31,16.87,22.43,17.61,23.6Z"/><path class="cls-1" d="M186,28.09H155.24V44.64h28.32a6.79,6.79,0,0,1,4.67,1.4,4.8,4.8,0,0,1,1.54,3.7,5,5,0,0,1-1.52,3.75,6.57,6.57,0,0,1-4.69,1.45H155.24V74.11h31.81a7,7,0,0,1,4.85,1.49,5.15,5.15,0,0,1,1.64,4,5,5,0,0,1-1.64,3.89A7,7,0,0,1,187.05,85H150q-4.45,0-6.41-2c-1.3-1.31-1.95-3.45-1.95-6.39V25.93a11.38,11.38,0,0,1,.87-4.8,5.38,5.38,0,0,1,2.74-2.72,11.57,11.57,0,0,1,4.75-.85H186A7,7,0,0,1,190.85,19a4.92,4.92,0,0,1,1.58,3.79,5,5,0,0,1-1.58,3.84A7,7,0,0,1,186,28.09ZM169.35,0h6.21c1.56,0,2.35.23,2.35.69,0,.25-.86,1.24-2.58,3s-3.45,3.42-5.19,5a21.71,21.71,0,0,1-3.64,2.9,12.13,12.13,0,0,1-5.6,1.33c-1.32,0-2-.38-2-1.15a6.62,6.62,0,0,1,1.19-2.71l2.07-3.86A12.72,12.72,0,0,1,165.31.92,7.2,7.2,0,0,1,169.35,0Z"/></g></g></svg>