<svg xmlns="http://www.w3.org/2000/svg" viewBox="0 0 233.61 117.06"><defs><style>.cls-1{fill:#1d1d1b;}.cls-2{fill:#ffd900;}.cls-3{fill:#e9531d;}.cls-4{fill:#fff;}</style></defs><title>Recurso 11</title><g id="Capa_2" data-name="Capa 2"><g id="Capa_1-2" data-name="Capa 1"><rect class="cls-1" y="5.09" width="229.64" height="111.97"/><rect class="cls-2" x="3.98" width="229.64" height="111.97"/><polygon class="cls-3" points="128.12 84.28 125.44 77.96 131.76 75.27 134.44 81.6 132.34 82.49 130.55 78.28 128.44 79.17 130.23 83.39 128.12 84.28"/><rect class="cls-3" x="127.23" y="74.37" width="2.29" height="3.43" transform="translate(-19.52 56.2) rotate(-23)"/><path class="cls-4" d="M120.54,23.28A34.36,34.36,0,1,0,154.9,57.64,34.36,34.36,0,0,0,120.54,23.28Zm0,60.7a26.34,26.34,0,1,1,26.34-26.34A26.34,26.34,0,0,1,120.54,84Z"/><path d="M120.54,93.14A35.5,35.5,0,1,1,156,57.64,35.55,35.55,0,0,1,120.54,93.14Zm0-68.71a33.21,33.21,0,1,0,33.21,33.21A33.25,33.25,0,0,0,120.54,24.43Z"/><path d="M103.05,80.3a28.63,28.63,0,0,1,33-46.73l-1.24,1.92a26.34,26.34,0,0,0-30.36,43Z"/><path d="M120.54,86.27A28.54,28.54,0,0,1,105,81.71l1.24-1.93A26.34,26.34,0,0,0,137,37.08l1.43-1.79a28.63,28.63,0,0,1-17.9,51Z"/><path d="M120.54,63.37a5.73,5.73,0,1,1,5.73-5.73A5.73,5.73,0,0,1,120.54,63.37Zm0-9.17A3.44,3.44,0,1,0,124,57.64,3.44,3.44,0,0,0,120.54,54.2Z"/><path d="M120.54,68a10.31,10.31,0,1,1,10.31-10.31A10.32,10.32,0,0,1,120.54,68Zm0-18.33a8,8,0,1,0,8,8A8,8,0,0,0,120.54,49.62Z"/><rect x="119.4" y="30.16" width="2.29" height="18.32"/><rect x="106.44" y="35.52" width="2.29" height="18.32" transform="translate(-0.08 89.16) rotate(-45)"/><rect x="93.06" y="56.49" width="18.32" height="2.29"/><rect x="98.43" y="69.45" width="18.32" height="2.29" transform="translate(-18.41 96.75) rotate(-45)"/><rect x="119.4" y="66.8" width="2.29" height="18.32"/><rect x="132.35" y="61.43" width="2.29" height="18.32" transform="translate(-10.82 115.08) rotate(-45)"/><rect x="129.7" y="56.49" width="18.32" height="2.29"/><rect x="124.34" y="43.54" width="18.32" height="2.29" transform="translate(7.51 107.49) rotate(-45)"/><path class="cls-1" d="M39.42,30.49,65.67,70.21V30.12q0-3.91,1.68-5.86a5.65,5.65,0,0,1,4.53-2,5.81,5.81,0,0,1,4.64,2c1.14,1.3,1.7,3.25,1.7,5.86v53q0,8.87-7.35,8.87a9.78,9.78,0,0,1-3.31-.53,8.34,8.34,0,0,1-2.76-1.68,15.65,15.65,0,0,1-2.39-2.69c-.74-1-1.47-2.07-2.21-3.15L34.59,44.69V84.18c0,2.58-.59,4.52-1.79,5.84a5.92,5.92,0,0,1-4.6,2,5.86,5.86,0,0,1-4.64-2,8.56,8.56,0,0,1-1.75-5.82v-52a14.75,14.75,0,0,1,.74-5.2,7.47,7.47,0,0,1,2.89-3.38,7.93,7.93,0,0,1,4.37-1.31,7.5,7.5,0,0,1,3.15.6,7.63,7.63,0,0,1,2.3,1.61,16.49,16.49,0,0,1,2,2.62C38,28.2,38.69,29.32,39.42,30.49Z"/><path class="cls-1" d="M207.81,35H177.05V51.53h28.32a6.77,6.77,0,0,1,4.67,1.4,4.76,4.76,0,0,1,1.54,3.7,5,5,0,0,1-1.52,3.75,6.55,6.55,0,0,1-4.69,1.45H177.05V81h31.82a7,7,0,0,1,4.85,1.49,5.16,5.16,0,0,1,1.63,4,5,5,0,0,1-1.63,3.88,7,7,0,0,1-4.85,1.5h-37.1c-3,0-5.11-.66-6.42-2s-1.95-3.45-1.95-6.39V32.82a11.46,11.46,0,0,1,.87-4.81A5.44,5.44,0,0,1,167,25.3a11.62,11.62,0,0,1,4.76-.85h36a7,7,0,0,1,4.85,1.45,4.89,4.89,0,0,1,1.59,3.79,4.93,4.93,0,0,1-1.59,3.84A7,7,0,0,1,207.81,35Z"/></g></g></svg>